<svg width="13" height="11" viewBox="0 0 13 11" fill="none" xmlns="http://www.w3.org/2000/svg">
<path d="M2.62398 0.166626C1.9574 0.166626 0.881726 0.303242 0.457845 0.99983C0.0180635 1.72255 0.124334 2.56637 0.457845 3.16617C0.791357 3.76597 4.62368 5.83243 5.1236 5.83243C5.62353 5.83243 5.79037 5.66579 6.62337 5.33251C7.45638 4.99923 9.95662 7.16557 11.1229 7.33221C11.6278 7.40434 11.9454 7.32035 12.1432 7.20187C12.4247 7.03331 12.5536 6.69187 12.6505 6.3784C12.7424 6.08095 12.7979 5.68361 12.6225 5.33251C12.2894 4.66594 3.29056 0.166626 2.62398 0.166626Z" fill="#F8F7FC" stroke="#F8F7FC" stroke-width="0.333283"/>
<path d="M5.03974 8.44999C5.19107 7.83863 5.56837 6.70477 6.29163 6.66575C7.04177 6.62529 7.49599 7.79862 7.68654 8.43497C7.74735 8.63802 7.59178 8.83209 7.37982 8.83209H5.34992C5.14465 8.83209 4.99042 8.64925 5.03974 8.44999Z" fill="#F8F7FC" stroke="#F8F7FC" stroke-width="0.666566"/>
<line x1="4.45801" y1="10.2479" x2="8.12412" y2="10.2479" stroke="#F8F7FC" stroke-width="0.833208"/>
</svg>
