<svg width="39" height="56" viewBox="0 0 39 56" fill="none" xmlns="http://www.w3.org/2000/svg">
<path d="M9.36572 45.3858V41.0119H4.55874V37.2442H9.36572V34.5593C7.97992 34.2417 6.72404 33.6498 5.59809 32.7837C4.501 31.8887 3.62044 30.8061 2.95641 29.5358C2.32126 28.2366 2.00368 26.8508 2.00368 25.3784C2.00368 23.906 2.35013 22.5202 3.04303 21.221C3.73592 19.9218 4.65979 18.8536 5.81462 18.0163C4.65979 17.0925 3.73592 15.8943 3.04303 14.4219C2.35013 12.9495 2.00368 11.3616 2.00368 9.65826H5.90123C5.90123 10.8131 6.14663 11.8813 6.63743 12.8629C7.15711 13.8445 7.83557 14.6385 8.67282 15.2448C9.51007 15.8222 10.4195 16.1109 11.4011 16.1109C12.4116 16.1109 13.3354 15.8222 14.1727 15.2448C15.0388 14.6385 15.7028 13.8445 16.1648 12.8629C16.6556 11.8813 16.901 10.8131 16.901 9.65826H20.7985C20.7985 11.506 20.4665 13.1516 19.8025 14.5952C19.1673 16.0387 18.2435 17.1935 17.0309 18.0596C18.2146 18.8969 19.1385 19.9507 19.8025 21.221C20.4665 22.4913 20.7985 23.8771 20.7985 25.3784C20.7985 26.8219 20.4809 28.1933 19.8458 29.4925C19.2106 30.7628 18.3445 31.8454 17.2474 32.7404C16.1503 33.6354 14.88 34.2417 13.4365 34.5593V37.2442H18.2435V41.0119H13.4365V45.3858H9.36572ZM11.4011 30.8783C12.4116 30.8783 13.3354 30.6329 14.1727 30.142C15.0099 29.6224 15.674 28.9439 16.1648 28.1067C16.6556 27.2694 16.901 26.3455 16.901 25.3351C16.901 24.3823 16.6556 23.5018 16.1648 22.6934C15.674 21.885 15.0099 21.2354 14.1727 20.7446C13.3354 20.225 12.4116 19.9651 11.4011 19.9651C10.4195 19.9651 9.51007 20.2105 8.67282 20.7013C7.83557 21.1921 7.15711 21.8417 6.63743 22.6501C6.14663 23.4585 5.90123 24.3679 5.90123 25.3784C5.90123 26.36 6.14663 27.2694 6.63743 28.1067C7.15711 28.9439 7.83557 29.6224 8.67282 30.142C9.51007 30.6329 10.4195 30.8783 11.4011 30.8783ZM25.1357 44V25.3289H29.9734C32.3792 25.3289 34.1574 25.7734 35.308 26.6625C36.4586 27.5516 37.0339 28.8853 37.0339 30.6635C37.0339 31.8664 36.7027 32.9037 36.0402 33.7753C35.3777 34.6296 34.4451 35.2572 33.2422 35.6581L34.7327 38.0901L36.1971 35.7366H38.4199L35.7526 39.6591L38.4722 44H36.0925L34.3928 41.2019L32.5623 44H30.3657L33.3729 39.5806L31.3332 36.2596H27.4892V44H25.1357ZM30.1565 34.2983C31.6209 34.2983 32.7279 34.002 33.4775 33.4092C34.2271 32.8165 34.602 31.9361 34.602 30.7681C34.602 29.8964 34.4189 29.2165 34.0528 28.7284C33.6867 28.2228 33.1463 27.8654 32.4315 27.6563C31.7167 27.4296 30.8451 27.3163 29.8165 27.3163H27.4892V34.2983H30.1565Z" fill="white"/>
</svg>
