<svg width="14" height="15" viewBox="0 0 14 15" fill="none" xmlns="http://www.w3.org/2000/svg">
<rect width="13.7562" height="14.0272" rx="6.87812" fill="#C5D1E0"/>
<path d="M6.87769 10.7994C6.74107 10.7994 6.63037 10.6887 6.63037 10.5521V8.42993C6.63037 8.29331 6.74107 8.18262 6.87769 8.18262C7.01431 8.18262 7.125 8.29331 7.125 8.42993V10.5521C7.125 10.6887 7.01431 10.7994 6.87769 10.7994Z" fill="#0D1220"/>
<path d="M7.93877 9.73761H5.81665C5.68003 9.73761 5.56934 9.62692 5.56934 9.4903C5.56934 9.35368 5.68003 9.24298 5.81665 9.24298H7.93877C8.07539 9.24298 8.18609 9.35368 8.18609 9.4903C8.18609 9.62692 8.07539 9.73761 7.93877 9.73761Z" fill="#0D1220"/>
<path d="M6.87776 8.67653C5.61027 8.67653 4.57812 7.64539 4.57812 6.3769C4.57812 5.10841 5.60927 4.07727 6.87776 4.07727C8.14624 4.07727 9.17739 5.10841 9.17739 6.3769C9.17739 7.64539 8.14624 8.67653 6.87776 8.67653ZM6.87776 4.5729C5.88251 4.5729 5.07375 5.38266 5.07375 6.3769C5.07375 7.37115 5.88351 8.18091 6.87776 8.18091C7.872 8.18091 8.68176 7.37115 8.68176 6.3769C8.68176 5.38266 7.872 4.5729 6.87776 4.5729Z" fill="#0D1220"/>
<path d="M6.87807 4.57291C6.1441 4.57291 5.44802 4.21789 5.01622 3.62154C4.93544 3.51085 4.96038 3.35628 5.07107 3.2755C5.18176 3.19472 5.33633 3.21965 5.41711 3.33035C5.75617 3.79805 6.30266 4.07728 6.87807 4.07728C7.45347 4.07728 7.99996 3.79805 8.33902 3.33035C8.4198 3.21965 8.57437 3.19472 8.68506 3.2755C8.79575 3.35628 8.82068 3.51085 8.73991 3.62154C8.3081 4.21689 7.61203 4.57291 6.87807 4.57291Z" fill="#0D1220"/>
</svg>
