<svg width="16" height="16" viewBox="0 0 16 16" fill="none" xmlns="http://www.w3.org/2000/svg">
<path d="M8 16C3.58904 16 0 12.4109 0 7.99999C0 3.58903 3.58904 0 8 0C12.411 0 16 3.58903 16 7.99999C16 12.4109 12.411 16 8 16ZM8 1.04952C4.16649 1.04952 1.04741 4.16859 1.04741 8.0021C1.04741 11.8356 4.16649 14.9547 8 14.9547C11.8335 14.9547 14.9526 11.8356 14.9526 8.0021C14.9526 4.16859 11.8335 1.04952 8 1.04952Z" fill="#F8F7FC" fill-opacity="0.5"/>
<path d="M4.82818 11.6962C4.6933 11.6962 4.56054 11.6456 4.45727 11.5424C4.25285 11.3379 4.25285 11.0071 4.45727 10.8026L10.8008 4.45911C11.0052 4.25468 11.3361 4.25468 11.5405 4.45911C11.7449 4.66353 11.7449 4.99441 11.5405 5.19883L5.19699 11.5424C5.09583 11.6435 4.96096 11.6962 4.82608 11.6962H4.82818Z" fill="#F8F7FC" fill-opacity="0.5"/>
<path d="M11.1717 11.6962C11.0368 11.6962 10.9041 11.6456 10.8008 11.5424L4.45727 5.19883C4.25285 4.99441 4.25285 4.66353 4.45727 4.45911C4.6617 4.25468 4.99256 4.25468 5.19699 4.45911L11.5405 10.8026C11.7449 11.0071 11.7449 11.3379 11.5405 11.5424C11.4394 11.6435 11.3045 11.6962 11.1696 11.6962H11.1717Z" fill="#F8F7FC" fill-opacity="0.5"/>
</svg>
