<svg width="19" height="19" viewBox="0 0 19 19" fill="none" xmlns="http://www.w3.org/2000/svg">
<path d="M18.4143 0.0259212C18.2991 -0.00990269 18.2271 -0.010912 18.0967 0.0375259C17.1403 0.385169 16.2489 0.78024 15.4224 1.22274C14.1877 1.88372 13.2107 2.64005 11.9996 3.56088C11.7972 3.71477 11.1132 4.30763 9.9469 5.34097C9.76469 5.50243 9.58398 5.64926 9.40529 5.78145C9.39422 5.78953 9.38012 5.77691 9.38667 5.7648C9.71334 5.15782 9.98968 4.51601 10.2157 3.84041C10.3038 3.57803 10.3511 3.40345 10.3581 3.31717C10.3632 3.25915 10.3893 3.18397 10.4367 3.09063C10.5278 2.90999 10.5373 2.49827 10.2147 2.54318C10.189 2.54721 10.1638 2.55781 10.1437 2.57446C10.0521 2.65115 9.98515 2.7117 9.94237 2.7561C9.53214 3.18498 9.17173 3.55533 8.86066 3.86967C8.21737 4.51904 7.41049 5.08768 6.73046 5.53573C6.16167 5.91012 5.51234 6.33647 4.78147 6.81227C4.29473 7.13015 3.73902 7.57012 3.17678 7.99396C2.96285 8.15542 2.75396 8.34059 2.54959 8.54847C2.34221 8.75988 2.16704 8.89964 2.04272 9.0828C2.02459 9.10954 1.89624 9.26545 1.65815 9.55103C1.45329 9.79675 1.24943 10.1409 1.10849 10.373C0.713355 11.0254 0.492383 11.7307 0.445571 12.4886C0.411846 13.033 0.397248 13.5462 0.400771 14.029C0.405805 14.5951 0.52812 15.1597 0.76822 15.7223C0.770233 15.7269 0.768222 15.7324 0.763692 15.7349H0.763188C0.755134 15.739 0.746074 15.7359 0.741544 15.7284C0.472249 15.2521 0.305134 14.7445 0.240705 14.2046C0.207987 13.9266 0.195403 13.6042 0.203457 13.2364C0.211007 12.8902 0.285 12.5643 0.325772 12.255C0.330302 12.2217 0.291543 12.199 0.264865 12.2197C0.217046 12.257 0.212012 12.3271 0.195402 12.3781C0.0338248 12.87 -0.028086 13.3711 0.011679 13.8807C0.0504374 14.3893 0.0977531 14.748 0.153626 14.9579C0.186847 15.0841 0.220066 15.194 0.251777 15.2889C0.257818 15.3071 0.266375 15.3247 0.276945 15.3404C0.360502 15.4675 0.405806 15.6582 0.486846 15.8046C0.905134 16.566 1.45027 17.1563 2.12023 17.5751C2.34523 17.7158 2.72174 17.8985 3.25026 18.123C3.50647 18.232 3.77577 18.3132 4.05664 18.3662C4.41553 18.4333 4.69338 18.4606 4.89019 18.4485C5.31452 18.4222 5.79523 18.336 6.33281 18.1906C6.60412 18.1175 7.03499 17.9076 7.39137 17.7386C7.61284 17.6336 7.76385 17.5176 7.92643 17.3667C7.9511 17.344 7.95613 17.3066 7.93851 17.2779L7.937 17.2759C7.91989 17.2481 7.88264 17.2406 7.85546 17.2592C7.67778 17.3828 7.48398 17.5029 7.27408 17.6185C7.02845 17.7532 6.78231 17.848 6.53415 17.9025C5.75446 18.0751 5.30798 18.1856 4.64758 18.1942C4.49053 18.1957 4.34255 18.1785 4.20161 18.1422C4.19557 18.1407 4.19154 18.1346 4.19204 18.1281C4.19305 18.122 4.19808 18.1175 4.20463 18.117C4.34758 18.1099 4.49707 18.1023 4.65362 18.0938C4.95815 18.0771 5.23499 17.9812 5.56318 17.9288C5.70664 17.9056 5.85915 17.8657 6.02174 17.8087C6.98667 17.4696 7.85898 16.9661 8.63918 16.2985C8.81385 16.1487 8.99455 15.9605 9.1813 15.7344C9.53516 15.3066 9.81301 14.9231 10.0974 14.4624C10.5489 13.7313 11.0009 13.0037 11.4529 12.2797C12.0197 11.3715 12.7335 10.5793 13.489 9.7801C13.6018 9.66052 13.786 9.5036 14.0417 9.30733C14.1716 9.20793 14.32 9.08078 14.4862 8.92588C14.6216 8.79924 14.8063 8.73566 14.9407 8.59338C14.9815 8.54998 14.9905 8.48893 14.9608 8.44756C14.8984 8.35875 14.8073 8.33353 14.6875 8.37187C14.3533 8.47834 14.0271 8.64383 13.6833 8.74676C13.195 8.89359 12.8508 9.01822 12.5709 9.01368C12.5462 9.01317 12.5306 8.98643 12.5417 8.96473C12.6263 8.79924 12.7536 8.63424 12.9232 8.47026C13.1251 8.27399 13.3551 8.05803 13.6133 7.82039C13.8081 7.64127 14.0216 7.40917 14.2541 7.12359C14.6346 6.65535 14.9346 6.21084 15.1541 5.78852C15.2462 5.61142 15.3519 5.08869 14.9815 5.17295C14.9664 5.17598 14.9538 5.18658 14.9467 5.2007L14.9145 5.26579C14.908 5.27841 14.8984 5.289 14.8858 5.29606C14.7851 5.35459 14.6422 5.45853 14.4565 5.60839C14.2013 5.81425 13.941 5.93888 13.643 5.9969C13.6214 6.00144 13.6003 5.98681 13.5962 5.96511C13.5711 5.83897 13.5655 5.73806 13.6289 5.61394C13.6647 5.54481 13.711 5.44642 13.7684 5.31877C13.7845 5.28345 13.9284 5.04025 14.2008 4.59018C14.4112 4.24204 14.7907 3.76523 14.9805 3.5195C15.7737 2.48969 16.6757 1.59057 17.6865 0.82111C17.9281 0.637449 18.0524 0.525437 18.3232 0.290816C18.3877 0.235314 18.4294 0.167703 18.4496 0.087982C18.4566 0.0622494 18.441 0.0344987 18.4143 0.0259212ZM1.02393 11.1167L1.58718 10.1469C1.5907 10.1399 1.59976 10.1378 1.60631 10.1419L1.62292 10.1515C1.62946 10.1555 1.63147 10.1641 1.62795 10.1706L1.0647 11.1404C1.06117 11.1475 1.05211 11.1495 1.04557 11.1454L1.02896 11.1359C1.02191 11.1318 1.0199 11.1232 1.02393 11.1167ZM2.64574 17.5988C2.46654 17.5125 2.30396 17.4096 2.15748 17.291C2.01101 17.1719 1.87711 17.0337 1.7553 16.8763C1.74523 16.8626 1.75379 16.844 1.7704 16.8425C1.78299 16.8419 1.79406 16.8455 1.80362 16.8546C1.93449 16.9741 2.07392 17.0937 2.2204 17.2123C2.36688 17.3319 2.51285 17.4429 2.65681 17.5468C2.66688 17.5549 2.67342 17.5645 2.67493 17.5771C2.67745 17.5937 2.66084 17.6064 2.64574 17.5988ZM9.68666 14.6289C9.67509 14.6567 9.65294 14.6744 9.63633 14.6673C9.62022 14.6607 9.61619 14.6325 9.62777 14.6047C9.63935 14.577 9.6615 14.5593 9.67811 14.5664C9.69371 14.5729 9.69824 14.6012 9.68666 14.6289ZM11.3019 11.926L10.6843 12.8166C10.6838 12.8176 10.6823 12.8181 10.6803 12.8171L10.6773 12.8145C10.6415 12.7903 10.7498 12.5729 10.9184 12.3297L10.9279 12.3155C11.0966 12.0723 11.2622 11.8952 11.2974 11.9199L11.3014 11.9225C11.3024 11.923 11.3029 11.925 11.3019 11.926ZM12.1954 10.6883L11.7026 11.3094C11.6951 11.319 11.681 11.3205 11.6714 11.313L11.6704 11.3125C11.6608 11.3049 11.6593 11.2908 11.6669 11.2812L12.1596 10.6601C12.1672 10.6505 12.1813 10.649 12.1909 10.6565L12.1919 10.657C12.2014 10.6651 12.2029 10.6787 12.1954 10.6883ZM16.8554 1.00527C16.3908 1.38874 15.9489 1.79845 15.5286 2.23338C15.1028 2.67537 14.7429 3.0548 14.4409 3.56037C14.3648 3.68752 14.2138 3.92315 13.9873 4.26676C13.8112 4.53468 13.6002 4.80311 13.4311 5.0781C13.2338 5.40101 13.1039 5.77641 13.0405 6.20529C13.0355 6.23606 13.0496 6.30721 13.0813 6.41871C13.0843 6.42931 13.0904 6.4394 13.0979 6.44798L13.2474 6.61146C13.2655 6.63164 13.2952 6.63416 13.3174 6.61852L13.4996 6.48683C13.5081 6.48078 13.5177 6.47724 13.5288 6.47624C13.6954 6.45858 13.8167 6.43082 13.8932 6.3945C14.0638 6.31377 14.2647 6.18763 14.4962 6.01406C14.4987 6.01204 14.5023 6.01254 14.5043 6.01456C14.5063 6.01708 14.5068 6.02062 14.5048 6.02314C14.3165 6.2734 14.1494 6.49238 14.0039 6.68008C13.8972 6.81732 13.7246 6.98635 13.4865 7.18767C12.9439 7.6453 12.3162 8.19679 12.068 8.83809C11.994 9.02881 12.0258 9.1933 12.1637 9.33155C12.2654 9.43448 12.5744 9.39361 12.7098 9.38251C12.9273 9.36485 13.1729 9.26595 13.3989 9.20036C13.4155 9.19532 13.4276 9.21651 13.4145 9.22862C12.8467 9.7579 12.3278 10.2726 11.8576 10.7711C11.4494 11.204 11.0261 11.7575 10.5882 12.4316C10.4915 12.5809 10.1085 13.2061 9.43952 14.3075C9.26485 14.5956 9.03885 14.8752 8.83298 15.1572C8.51737 15.5896 8.19824 15.964 7.8761 16.2809C7.49103 16.6598 7.04103 16.9424 6.54019 17.2264C6.30664 17.3586 6.06553 17.4595 5.81788 17.5276C5.30395 17.6684 4.87358 17.7411 4.52577 17.7461C4.13919 17.7517 3.71436 17.6841 3.25077 17.5428C2.96134 17.4545 2.69255 17.3142 2.44439 17.1225C1.58416 16.4565 0.837684 15.3706 0.781812 14.2763C0.750604 13.6718 0.822081 13.0471 0.996745 12.4023C1.11805 11.9532 1.23886 11.6011 1.35866 11.3458C1.81671 10.3669 2.42124 9.52076 3.22258 8.82547C3.70832 8.40366 3.98416 8.16854 4.44775 7.85318C4.82426 7.59636 5.0709 7.4793 5.5068 7.24872C5.65932 7.16799 5.8365 7.08423 6.03634 6.99745C6.83667 6.6498 7.50412 6.1735 8.14338 5.61899C8.35227 5.43785 8.52694 5.24864 8.66687 5.05135C8.687 5.0231 8.66485 4.98425 8.63012 4.98828C8.60244 4.99081 8.57425 5.00594 8.54405 5.03369C8.18566 5.36065 7.70898 5.73453 7.11553 6.15685C6.73097 6.42981 6.38768 6.62155 6.08365 6.73154C5.84355 6.81833 5.66335 6.89401 5.54305 6.95809C5.33214 7.0701 5.15244 7.16597 5.00496 7.2462C5.00043 7.24821 4.9954 7.2467 4.99238 7.24317L4.99187 7.24266C4.98936 7.23812 4.99036 7.23207 4.99489 7.22904C5.08701 7.17606 5.17157 7.0701 5.28986 6.99392C5.96687 6.55747 6.68415 6.07662 7.44069 5.54986C8.29992 4.95145 9.08969 4.27029 9.81049 3.50689C9.84774 3.46804 9.88902 3.43575 9.93482 3.40901C9.95143 3.39942 9.97156 3.41405 9.96703 3.43272C9.86082 3.89086 9.68163 4.25465 9.41838 4.87324C9.26989 5.22139 9.00512 5.57711 8.92559 5.98479C8.90747 6.08066 9.01318 6.10589 9.01015 6.2184C9.00965 6.23808 9.02475 6.25473 9.04388 6.25625C9.3167 6.28097 9.52207 6.15887 9.75915 6.01002C9.88549 5.9308 10.1377 5.73756 10.5167 5.43028C10.706 5.27689 10.9451 5.06649 11.2345 4.80008C11.6749 4.39492 12.1531 3.97765 12.668 3.54826C13.7563 2.64106 15.0096 1.88523 16.2927 1.21013C16.4875 1.1082 16.6642 1.02394 16.8227 0.958855C16.8363 0.953305 16.8519 0.95835 16.859 0.971469C16.869 0.980047 16.8665 0.996192 16.8554 1.00527ZM13.56 6.00952C13.5117 6.08015 13.4528 6.12809 13.3838 6.1513C13.3637 6.15836 13.3466 6.13566 13.3586 6.1185L13.4628 5.96814C13.4749 5.95048 13.4976 5.94291 13.5177 5.94947L13.5424 5.95755C13.564 5.96411 13.5731 5.99034 13.56 6.00952ZM13.3174 6.42376C13.3179 6.43385 13.3143 6.44192 13.3053 6.44899C13.2927 6.45908 13.2746 6.45656 13.2695 6.44394C13.268 6.4389 13.268 6.43385 13.2695 6.4278C13.2721 6.41872 13.2786 6.41165 13.2897 6.40661C13.3023 6.40156 13.3169 6.41064 13.3174 6.42376Z" fill="#F8F7FC"/>
<path d="M12.1747 2.14055C12.2235 2.24852 12.3619 2.28132 12.4541 2.20665C12.9952 1.76818 13.4859 1.32669 13.9274 0.881667C13.9591 0.849375 13.9868 0.813047 14.0084 0.773691C14.093 0.619799 14.2108 0.479027 14.3618 0.350868C14.3738 0.341281 14.3759 0.323117 14.3668 0.311008C14.3577 0.298898 14.3406 0.295871 14.3275 0.303944L13.6832 0.717684C13.6747 0.723235 13.6661 0.727271 13.6571 0.731308C13.1532 0.931619 12.6765 1.27724 12.226 1.76818C12.1369 1.86607 12.1143 2.00785 12.1697 2.12743L12.1747 2.14055ZM12.9856 1.2944L13.0405 1.25101C13.3339 1.02093 13.6002 0.870566 13.6354 0.915472L13.6359 0.915977C13.6369 0.917491 13.6369 0.920519 13.6354 0.921528L12.5245 1.79442C12.523 1.79593 12.52 1.79543 12.519 1.79391L12.5185 1.79341C12.4827 1.7485 12.6921 1.52498 12.9856 1.2944Z" fill="#F8F7FC"/>
<path d="M7.23106 3.9868C7.37149 3.8758 7.48978 3.7769 7.58693 3.69012C7.75907 3.53572 7.90102 3.36417 8.01377 3.17597C8.02132 3.16336 8.02736 3.15024 8.03088 3.13561C8.05354 3.05488 8.09179 2.96759 8.14565 2.87273C8.14917 2.86566 8.14766 2.85759 8.14162 2.85255L8.12904 2.84296C8.12602 2.84094 8.12099 2.84094 8.11897 2.84397L8.04347 2.94337C8.02887 2.96153 8.01226 2.97818 7.99364 2.9913C7.6428 3.24257 7.3725 3.56145 7.18223 3.94694C7.16713 3.97822 7.20387 4.00799 7.23106 3.9868Z" fill="#F8F7FC"/>
<path d="M13.9364 3.00233C13.9606 2.96751 13.9213 2.92311 13.8836 2.94329C13.7577 3.0109 13.6797 3.0548 13.65 3.07498C13.2317 3.35804 12.7792 3.68247 12.377 4.02608C11.9759 4.36969 11.5848 4.76779 11.2405 5.13763C11.2158 5.16387 11.1599 5.23451 11.0738 5.34854C11.0482 5.38234 11.0859 5.42876 11.1242 5.40959C11.1806 5.38133 11.243 5.33643 11.3099 5.27437C11.694 4.91915 12.0705 4.57101 12.4399 4.23093C12.4601 4.21277 12.4807 4.1936 12.5034 4.17442C12.526 4.15575 12.5482 4.13708 12.5698 4.12043C12.9624 3.80811 13.3636 3.48973 13.7743 3.16479C13.8453 3.10879 13.8997 3.0543 13.9364 3.00233Z" fill="#F8F7FC"/>
<path d="M14.502 3.07634C14.4234 3.10913 14.357 3.16211 14.3036 3.23427C13.838 3.85841 13.5134 4.29687 13.2134 4.88317C13.0906 5.12385 13.0186 5.307 12.9974 5.43264C12.9944 5.4503 13.0105 5.46493 13.0276 5.4609C13.0302 5.46039 13.0347 5.45888 13.0407 5.45635C13.0427 5.45585 13.0453 5.45383 13.0468 5.45131C13.2647 5.05523 13.4414 4.69295 13.7208 4.32614C13.7978 4.22522 14.0203 3.91643 14.3882 3.39926C14.4471 3.316 14.5161 3.23578 14.5573 3.13083C14.5709 3.09652 14.5362 3.0617 14.502 3.07634Z" fill="#F8F7FC"/>
<path d="M15.677 4.381C15.758 4.42742 15.8204 4.41783 15.8642 4.35123C15.9714 4.18725 16.0741 4.06161 16.1728 3.9723C16.5246 3.65594 16.8428 3.40265 17.1277 3.21294C17.1679 3.18569 17.2107 3.16803 17.2555 3.15895C17.2716 3.15491 17.2792 3.14432 17.2777 3.12615C17.2761 3.1095 17.2575 3.09487 17.2419 3.09437C17.1151 3.09033 17.0275 3.0984 16.9772 3.11758C16.4471 3.32243 16.0137 3.64787 15.679 4.0934C15.6558 4.12468 15.6463 4.20591 15.6503 4.3371C15.6513 4.35527 15.6609 4.37192 15.677 4.381Z" fill="#F8F7FC"/>
<path d="M1.72446 8.74859C2.00433 8.36967 2.32144 8.01193 2.67681 7.6764C3.07899 7.29596 3.38 7.03006 3.58033 6.87919C3.80181 6.71168 4.53721 6.20964 5.78503 5.37207C6.13838 5.13492 6.44492 4.85691 6.70516 4.53752C6.72328 4.51532 6.70163 4.48303 6.67395 4.49211C6.60499 4.51431 6.55063 4.54105 6.50986 4.57234C6.32915 4.71109 6.1414 4.83774 5.9466 4.95278C5.36674 5.29436 4.77077 5.66572 4.15919 6.06735C3.41724 6.55476 2.75634 7.06538 2.29577 7.79144C2.27865 7.81869 2.25751 7.84341 2.23386 7.86511C2.05567 8.02253 1.91271 8.2072 1.80449 8.41911C1.80198 8.42416 1.80349 8.42971 1.80852 8.43274C1.81305 8.43576 1.81859 8.43526 1.82261 8.43122L1.9248 8.31669C1.93235 8.30811 1.94543 8.3066 1.955 8.31265C1.96456 8.31921 1.96808 8.33233 1.96255 8.34242C1.92178 8.42466 1.85181 8.5064 1.75315 8.58713C1.70835 8.62447 1.68419 8.67291 1.68067 8.73295C1.68017 8.75717 1.71087 8.76777 1.72446 8.74859ZM2.06875 8.12041C2.11255 8.0523 2.16389 8.00588 2.18251 8.01799C2.20114 8.0301 2.181 8.09569 2.13721 8.16431C2.09342 8.23243 2.04208 8.27885 2.02345 8.26674C2.00483 8.25412 2.02446 8.18853 2.06875 8.12041Z" fill="#F8F7FC"/>
<path d="M3.37432 9.9398L3.40754 9.93021C3.41559 9.9282 3.42264 9.92416 3.42868 9.91962C3.90687 9.51496 4.42885 9.16732 4.99412 8.8782C5.45469 8.64257 5.90519 8.41754 6.34512 8.20361C6.68942 8.0366 7.0176 7.84234 7.33119 7.62235C7.34176 7.61478 7.35586 7.6163 7.36492 7.62538C7.37347 7.63446 7.37448 7.64909 7.36643 7.65918C7.30452 7.73739 7.19932 7.85748 7.04982 8.01793C6.94713 8.12742 6.82482 8.31259 6.68186 8.57143C6.57515 8.76619 6.49864 9.09769 6.67935 9.243C6.88472 9.40799 7.22196 9.29447 7.44797 9.20213C7.87582 9.02755 8.26945 8.7778 8.62884 8.45286C9.15032 7.98109 9.628 7.56836 10.0624 7.21517C10.1968 7.10618 10.4449 6.92151 10.684 6.78074C10.8673 6.67277 11.0404 6.53401 11.203 6.36498C11.208 6.35994 11.2156 6.35893 11.2206 6.36297L11.2312 6.37104C11.2433 6.37911 11.2463 6.39526 11.2382 6.40737C11.0792 6.6435 10.8335 6.97399 10.5028 7.39833C10.2411 7.73335 10.0599 7.98008 9.9582 8.13751C9.8681 8.27828 9.79662 8.41653 9.74327 8.55226C9.73673 8.5684 9.75082 8.58505 9.76794 8.58203C9.87716 8.55983 10.1319 8.27929 10.2184 8.16829C10.7495 7.48259 11.1235 6.99215 11.3399 6.69749C11.5035 6.47447 11.7164 6.17274 11.801 5.89675C11.8231 5.82308 11.7783 5.74084 11.7134 5.72318C11.6933 5.71713 11.6716 5.72268 11.657 5.73731C11.4723 5.91189 11.3716 6.0133 11.1869 6.13692C10.6594 6.4881 10.2955 6.74139 10.0951 6.89578C9.29529 7.51337 8.66559 8.00834 8.20552 8.3802C7.90753 8.62088 7.61408 8.7344 7.28539 8.87568C7.18774 8.91806 7.08455 8.94178 6.97633 8.94632C6.92146 8.94834 6.88119 8.91857 6.84143 8.89031C6.82935 8.88174 6.83186 8.86307 6.84596 8.85802C6.84747 8.85752 6.85099 8.856 6.85452 8.85449C6.87364 8.84743 6.88824 8.83279 6.89629 8.81412C7.0025 8.53561 7.14042 8.29039 7.31056 8.07696C7.49227 7.84839 7.7525 7.55524 8.09025 7.19801C8.13102 7.15462 8.14612 7.10972 8.13555 7.06279C8.11542 6.97803 8.0228 6.93514 7.95384 6.97954C7.90904 7.0083 7.79025 7.08651 7.59847 7.21416C7.44394 7.31709 7.29193 7.37764 7.14948 7.473C7.04227 7.54465 6.93002 7.60873 6.81274 7.66524C6.12767 7.99623 5.48791 8.32066 4.89244 8.64056C4.43086 8.8883 4.08002 9.10021 3.84043 9.2763C3.58221 9.46652 3.37281 9.61688 3.2812 9.83435C3.25452 9.89389 3.3109 9.95746 3.37432 9.9398Z" fill="#F8F7FC"/>
<path d="M15.496 7.10565C15.6062 7.21665 15.9686 7.0345 16.3054 6.69796C16.6421 6.36192 16.8248 5.99965 16.7146 5.88865C16.6044 5.77764 16.2419 5.95979 15.9052 6.29633C15.5685 6.63237 15.3857 6.99465 15.496 7.10565ZM16.0688 6.50875C16.2163 6.37252 16.3507 6.27867 16.3693 6.29885C16.3874 6.31853 16.2827 6.44518 16.1352 6.58141C15.9877 6.71764 15.8534 6.81149 15.8347 6.79131C15.8166 6.77112 15.9213 6.64498 16.0688 6.50875Z" fill="#F8F7FC"/>
<path d="M11.7743 7.39892C11.5563 7.69459 11.3424 7.97261 11.132 8.23195C10.9115 8.50441 10.6211 9.00746 10.2934 9.45955C10.1097 9.71234 9.95415 9.95301 9.76892 10.1104C9.75483 10.1225 9.73419 10.1079 9.74073 10.0903C9.80315 9.92223 9.9607 9.73201 10.0679 9.58771C10.1303 9.50395 10.2058 9.38185 10.2949 9.22039C10.4213 8.99182 10.6105 8.78899 10.7072 8.54529C10.7198 8.5135 10.6795 8.48726 10.6558 8.51198C10.3412 8.83137 10.0548 9.19264 9.79761 9.59477C9.53788 10.0009 9.26506 10.4434 9.11103 10.9213C9.01137 11.2301 8.93889 11.4046 9.04661 11.6705C9.0602 11.7033 9.10701 11.7008 9.11657 11.667C9.25198 11.1877 9.43368 10.7321 9.6617 10.3007C9.68687 10.2527 9.75634 10.1866 9.86808 10.1024C9.9451 10.0443 10.0135 9.97874 10.0734 9.90356C10.1062 9.86219 10.4187 9.50395 11.0107 8.82935C11.3344 8.46001 11.5951 7.97765 11.8125 7.60579C11.8478 7.54575 11.8659 7.48772 11.8669 7.43222C11.8689 7.37975 11.8045 7.35805 11.7743 7.39892Z" fill="#F8F7FC"/>
<path d="M8.1316 12.6303C8.10543 12.5818 8.08479 12.5299 8.07019 12.4759C7.8915 11.8008 7.79687 10.9556 7.05392 10.6958C6.8853 10.6367 6.73177 10.6332 6.5858 10.612C6.56365 10.6095 6.5415 10.6039 6.52036 10.5964C6.44184 10.5686 6.37942 10.5409 6.33462 10.5131C6.04922 10.339 5.78697 10.1872 5.54838 10.058C5.47137 10.0166 5.37322 9.99241 5.25392 9.98686C4.95845 9.97223 4.71533 9.96819 4.43094 10.0459C4.17473 10.1155 3.86215 10.2174 3.49268 10.3512C2.95963 10.5434 2.45678 10.9178 2.13161 11.2901C1.90258 11.5525 1.71534 11.8775 1.56936 12.2675C1.43446 12.6262 1.43447 12.8982 1.41332 13.3341C1.40577 13.4865 1.43346 13.6853 1.49537 13.9315C1.58295 14.2782 1.6353 14.4734 1.65242 14.5178C1.77121 14.8226 1.85527 15.0491 1.9051 15.197C2.12859 15.8579 2.51114 16.193 3.14486 16.4801C3.6155 16.6935 4.05644 16.8383 4.46617 16.915C4.74302 16.967 5.09839 16.9776 5.35761 16.9276C6.51483 16.7026 7.63328 15.9649 8.05006 14.7762C8.16684 14.4416 8.24234 14.2116 8.27607 14.0854C8.3712 13.7272 8.36868 13.3417 8.26902 12.9285C8.25694 12.8755 8.21113 12.7761 8.1316 12.6303ZM6.98949 10.94L6.99503 10.9339C7.01214 10.9158 7.10224 10.9708 7.19586 11.0575L7.21147 11.0722C7.30459 11.159 7.36701 11.2452 7.34939 11.2634L7.34385 11.2695C7.34184 11.2715 7.33781 11.2715 7.3358 11.2695L6.98999 10.9475C6.98798 10.9455 6.98697 10.942 6.98949 10.94ZM5.59469 10.5056C5.6254 10.5061 5.65963 10.5222 5.69637 10.553C5.76281 10.608 5.86349 10.6832 5.99939 10.779C6.01902 10.7926 6.03966 10.8037 6.06181 10.8123C6.29587 10.9026 6.47506 10.9597 6.59889 10.9834C6.75795 11.0136 6.88026 11.0591 6.96633 11.1191C7.1858 11.272 7.3358 11.4799 7.41633 11.7417C7.42086 11.7564 7.40526 11.769 7.39217 11.7614C7.36348 11.7458 7.34284 11.7306 7.33127 11.717C7.0061 11.3335 6.57875 11.0469 6.04872 10.8567C5.8962 10.8022 5.74117 10.6927 5.58463 10.5293C5.57607 10.5197 5.58211 10.5056 5.59469 10.5056ZM2.07373 11.9748C2.09084 11.9405 2.11752 11.9183 2.13211 11.9254C2.14721 11.933 2.1447 11.9673 2.12758 12.0016C2.11047 12.0359 2.08379 12.0581 2.06919 12.051C2.05409 12.0435 2.05611 12.0096 2.07373 11.9748ZM2.03094 14.9835C2.0098 14.9856 1.98463 14.8932 1.97456 14.7782L1.97305 14.762C1.96248 14.647 1.97104 14.5516 1.99168 14.5496L2.00174 14.5491L2.04101 14.9825L2.03094 14.9835ZM4.87741 16.6804C4.57942 16.6819 4.33731 16.6657 4.33731 16.6451C4.33731 16.6239 4.57892 16.6057 4.87691 16.6037C5.1749 16.6022 5.41701 16.6183 5.41701 16.639C5.41751 16.6602 5.1759 16.6784 4.87741 16.6804ZM6.82036 15.9826C6.73177 16.0845 6.65325 16.1445 6.58429 16.1627C6.49822 16.1849 6.42825 16.2041 6.3759 16.2207C6.37288 16.2217 6.36885 16.2202 6.36785 16.2167V16.2162C6.36634 16.2116 6.36885 16.2071 6.37338 16.2056C6.5264 16.1541 6.6608 16.0658 6.77657 15.9407C6.78412 15.9331 6.7962 15.9341 6.80124 15.9432L6.82087 15.977C6.82238 15.9785 6.82238 15.9805 6.82036 15.9826ZM7.03026 15.2399C7.0217 15.2474 7.00862 15.2474 7.00057 15.2393C6.99201 15.2318 6.991 15.2187 6.99805 15.2096L7.13748 15.0264C7.1415 15.0209 7.15006 15.0254 7.14805 15.032C7.12741 15.1198 7.08815 15.1894 7.03026 15.2399ZM6.841 15.1374C6.81533 15.1833 6.81432 15.2393 6.83999 15.2858C6.90442 15.4008 6.89335 15.5305 6.80878 15.6748C6.79872 15.6929 6.7816 15.7066 6.76197 15.7141C6.7368 15.7232 6.66332 15.7717 6.54301 15.8579C6.28127 16.0461 5.87406 16.1627 5.57808 16.2056C5.14117 16.2687 4.83614 16.31 4.66298 16.3287C4.43748 16.3529 4.15862 16.3277 3.8259 16.2515C3.32909 16.138 2.94805 15.8519 2.68178 15.3932C2.44721 14.9886 2.35762 14.5274 2.35158 14.0042C2.34453 13.3745 2.34201 12.9708 2.34352 12.7927C2.34403 12.7211 2.36668 12.6424 2.37473 12.5692C2.37574 12.5586 2.36869 12.5485 2.35862 12.5455C2.34856 12.543 2.33698 12.548 2.33295 12.5581L2.23077 12.7831C2.22272 12.8013 2.19503 12.7942 2.19604 12.7746C2.20309 12.6454 2.24335 12.5273 2.31634 12.4209C2.33245 12.3977 2.33446 12.3669 2.32238 12.3417L2.32188 12.3406C2.31232 12.32 2.28413 12.3174 2.27054 12.3351C2.16433 12.4749 2.10443 12.6055 2.09185 12.7261C2.04554 13.1787 2.03396 13.6147 2.05812 14.035C2.05863 14.0476 2.05057 14.0582 2.03799 14.0607C2.02591 14.0632 2.01382 14.0572 2.00929 14.0456C1.86836 13.6878 1.82607 13.2786 1.9348 12.8795C2.06869 12.3916 2.20913 12.043 2.53127 11.6736C3.06735 11.0586 3.64772 10.7644 4.37255 10.5116C4.61818 10.4258 4.86986 10.4273 5.12808 10.5177C5.13966 10.5212 5.15023 10.5267 5.1598 10.5333L5.77288 10.9602C5.83932 11.0061 5.91382 11.0389 5.99234 11.0575C6.16751 11.0974 6.32053 11.1418 6.47758 11.2387C6.75442 11.4087 7.05392 11.5636 7.32019 11.7594C7.39318 11.8129 7.43143 11.8553 7.43496 11.886C7.43999 11.9269 7.4707 12.1131 7.52606 12.4431C7.5457 12.5576 7.58546 12.6772 7.64989 12.7811C7.73899 12.9234 7.81147 13.2721 7.79838 13.3836C7.79586 13.4078 7.79083 13.4315 7.78379 13.4547C7.73748 13.6116 7.69016 13.7711 7.6056 13.9179C7.4415 14.204 7.31818 14.429 7.23513 14.594C7.22254 14.6187 7.20593 14.6414 7.1863 14.6611C7.07204 14.7741 6.95627 14.9336 6.841 15.1374ZM7.62976 14.258C7.61969 14.2822 7.60207 14.2983 7.5905 14.2938C7.57942 14.2888 7.57741 14.265 7.58798 14.2408C7.59805 14.2166 7.61617 14.2005 7.62724 14.205C7.63882 14.21 7.64033 14.2338 7.62976 14.258ZM7.60711 14.7701L7.59956 14.7857C7.43597 15.1122 7.26835 15.3594 7.22456 15.3377L7.21902 15.3352C7.21852 15.3352 7.21852 15.3347 7.21902 15.3342L7.81701 14.1369C7.81701 14.1364 7.81751 14.1364 7.81751 14.1364L7.82305 14.1389C7.86684 14.1606 7.77019 14.4437 7.60711 14.7701ZM7.8316 13.932C7.82657 13.988 7.81499 14.0324 7.80543 14.0319C7.79587 14.0314 7.79234 13.9855 7.79737 13.929C7.8019 13.873 7.81399 13.8286 7.82355 13.8291C7.83261 13.8301 7.83664 13.876 7.8316 13.932ZM8.21768 13.7822C8.21617 13.8124 8.21113 13.8367 8.2061 13.8367C8.20106 13.8362 8.19804 13.8114 8.19955 13.7812C8.20106 13.7509 8.2061 13.7267 8.21113 13.7267C8.21617 13.7272 8.21969 13.7524 8.21768 13.7822Z" fill="#F8F7FC"/>
<path d="M9.27234 11.6721C9.26982 11.6766 9.26982 11.6822 9.27284 11.6867C9.28844 11.7089 9.31512 11.7054 9.35136 11.6766C9.73341 11.3713 10.1089 11.0318 10.4789 10.6594C10.5715 10.5666 10.641 10.4525 10.7215 10.3617C10.7351 10.3466 10.719 10.3229 10.6999 10.3304C10.4683 10.4202 10.3389 10.5368 10.1079 10.727C9.8819 10.9122 9.66546 11.116 9.45908 11.3385C9.3866 11.4162 9.35791 11.4723 9.371 11.5061C9.37251 11.5106 9.372 11.5146 9.36999 11.5182L9.27234 11.6721ZM9.43995 11.4163C9.45858 11.3981 9.48224 11.392 9.49281 11.4031C9.50338 11.4142 9.49683 11.4374 9.47821 11.4556C9.45959 11.4738 9.43593 11.4798 9.42536 11.4687C9.41479 11.4576 9.42133 11.4344 9.43995 11.4163Z" fill="#F8F7FC"/>
<path d="M11.2334 10.3793L10.8816 10.5508C10.869 10.5574 10.8574 10.5655 10.8469 10.575C10.1492 11.2522 9.59601 12.0691 9.1888 13.0262C9.06246 13.3229 8.85658 13.7215 8.57118 14.2225C8.55206 14.2558 8.57018 14.2982 8.60743 14.3078L8.60994 14.3083C8.65575 14.3194 8.70407 14.3032 8.73377 14.2669C8.90189 14.056 9.04132 13.8683 9.15054 13.7038C9.21699 13.6039 9.31615 13.4077 9.44803 13.114C9.48729 13.0262 9.57638 12.8415 9.7143 12.559C9.8487 12.284 9.94232 12.1013 9.99568 12.011C10.2287 11.616 10.4809 11.2602 10.8257 10.8859C11.0915 10.5972 11.2339 10.4368 11.2536 10.4035C11.2631 10.3884 11.248 10.3722 11.2334 10.3793Z" fill="#F8F7FC"/>
<path d="M10.8176 10.4874C10.8287 10.4808 10.8394 10.462 10.8496 10.4305C10.8546 10.4143 10.8409 10.3985 10.8242 10.4005C10.8089 10.4021 10.7993 10.4071 10.7942 10.4148C10.7708 10.4529 10.7876 10.5036 10.8176 10.4874Z" fill="#F8F7FC"/>
<path d="M11.7522 13.2913L11.8161 13.2454C11.8312 13.2348 11.8524 13.2368 11.8645 13.2509C11.8891 13.2781 11.9128 13.2898 11.9354 13.2867C11.9445 13.2852 11.9525 13.2802 11.9581 13.2731C12.3522 12.7484 12.7267 12.0844 13.1601 11.6015C13.4485 11.2801 13.7692 10.9622 14.121 10.6474C14.1648 10.608 14.2222 10.5389 14.2942 10.44C14.3012 10.4304 14.2916 10.4173 14.2801 10.4218C14.2005 10.4526 14.124 10.4904 14.049 10.5348C13.0423 11.1307 12.2677 12.1409 11.796 13.2095C11.794 13.2146 11.7744 13.2378 11.7376 13.2781C11.7346 13.2822 11.7346 13.2877 11.7376 13.2913L11.7381 13.2918C11.7432 13.2933 11.7482 13.2938 11.7522 13.2913ZM12.7413 11.8285C12.7962 11.7554 12.849 11.7034 12.8601 11.711C12.8707 11.7191 12.8354 11.7846 12.7801 11.8578C12.7252 11.931 12.6723 11.9829 12.6613 11.9754C12.6507 11.9668 12.6864 11.9017 12.7413 11.8285Z" fill="#F8F7FC"/>
<path d="M4.81499 11.4624C4.82254 11.4149 4.80593 11.3382 4.76415 11.2328C4.75559 11.2106 4.73697 11.1939 4.71382 11.1874L4.35392 11.0854C4.34284 11.0824 4.33227 11.0764 4.32372 11.0678L4.217 10.9608C4.18982 10.9331 4.15207 10.9194 4.11331 10.9225C3.98244 10.9326 3.86314 10.9628 3.75593 11.0138C3.23345 11.2595 2.74318 11.586 2.67573 12.1965C2.64855 12.4437 2.73613 12.6208 2.93747 12.7293C3.08546 12.8085 3.23043 12.7742 3.33965 12.6405C3.46046 12.4932 3.68093 12.2005 3.85358 12.1637C3.99452 12.1339 4.16566 12.0769 4.367 11.9916C4.62623 11.8827 4.77522 11.7066 4.81499 11.4624ZM4.14754 11.8019C4.10073 11.8186 4.03378 11.8372 3.9467 11.8579C3.617 11.9387 3.35173 12.1208 3.1514 12.4039C3.13328 12.4296 3.092 12.4195 3.08848 12.3882C3.01499 11.8362 3.391 11.4507 3.87019 11.207C3.89586 11.1939 3.92455 11.1859 3.95324 11.1838C4.16314 11.1682 4.3514 11.2146 4.51801 11.3246C4.53764 11.3377 4.54972 11.3584 4.55224 11.3811C4.57942 11.6576 4.39469 11.7151 4.14754 11.8019Z" fill="#F8F7FC"/>
<path d="M5.67289 11.4259C5.77278 11.4915 5.87419 11.5162 5.9761 11.5016C5.99376 11.4991 6.00385 11.4789 5.99375 11.4637L5.90193 11.3179C5.89134 11.3013 5.87419 11.2892 5.85501 11.2851C5.78842 11.2705 5.72586 11.2882 5.66734 11.3386C5.64009 11.3618 5.64262 11.4057 5.67289 11.4259Z" fill="#F8F7FC"/>
<path d="M5.80365 12.0101L5.84249 12.0111C5.95097 12.0131 6.04026 11.9743 6.04127 11.9243V11.9233C6.04127 11.9208 6.03875 11.9178 6.03572 11.9178L5.61395 11.9092C5.61092 11.9092 5.6084 11.9112 5.6084 11.9148V11.9158C5.6079 11.9652 5.69467 12.0081 5.80365 12.0101Z" fill="#F8F7FC"/>
<path d="M7.09267 12.1176C7.02018 12.0444 6.95072 11.9995 6.88377 11.9824C6.86666 11.9778 6.85206 11.9809 6.83948 11.9899C6.81834 12.0061 6.81582 12.0288 6.83042 12.0576C6.99401 12.38 7.09166 12.5505 7.12387 12.5707L7.1279 12.5667C7.12941 12.5656 7.13092 12.5656 7.13293 12.5667C7.13394 12.5682 7.13394 12.5702 7.13293 12.5717C7.13092 12.5737 7.1279 12.5732 7.12387 12.5707L7.09569 12.5964C7.08058 12.6106 7.05743 12.609 7.04434 12.5934C6.88277 12.3946 6.73528 12.2659 6.49518 12.1797C6.47555 12.1726 6.45592 12.1887 6.45844 12.2094L6.47857 12.3658C6.48059 12.3825 6.48964 12.3981 6.50324 12.4087C6.62605 12.5041 6.99501 12.7786 7.03226 12.9385C7.09518 13.2105 7.08813 13.4673 7.01162 13.7075C7.00156 13.7398 6.98646 13.77 6.96632 13.7983C6.83042 13.986 6.6482 14.1843 6.41968 14.3942C6.41263 14.4002 6.41213 14.4103 6.41867 14.4174L6.43176 14.4315C6.43478 14.4355 6.44032 14.4355 6.44434 14.432L6.63965 14.2519C6.65424 14.2388 6.67488 14.2352 6.6925 14.2423C6.81129 14.2897 6.92706 14.1257 7.03075 14.0465C7.61615 13.599 7.58595 12.6131 7.09267 12.1176ZM7.1284 12.3774C7.07454 12.2836 7.03881 12.2029 7.04736 12.1978C7.05592 12.1928 7.10676 12.2649 7.16011 12.3593C7.21397 12.4531 7.24971 12.5339 7.24115 12.5389C7.2331 12.5439 7.18226 12.4718 7.1284 12.3774Z" fill="#F8F7FC"/>
<path d="M7.13274 12.572C7.13382 12.5709 7.13382 12.5687 7.13274 12.5666C7.13113 12.5655 7.12951 12.5655 7.12735 12.5666L7.12305 12.5709C7.12682 12.5736 7.13059 12.5741 7.13274 12.572Z" fill="#F8F7FC"/>
<path d="M5.56296 13.0641C5.64872 13.016 5.66033 12.8724 5.58818 12.7434C5.51654 12.615 5.3884 12.5498 5.30213 12.5978C5.21636 12.6458 5.20475 12.7895 5.2769 12.9184C5.34854 13.0474 5.47669 13.1121 5.56296 13.0641Z" fill="#F8F7FC"/>
<path d="M6.6897 13.7417C6.72343 13.7487 6.74708 13.7346 6.75916 13.7008C6.85279 13.4384 6.81453 13.1932 6.6449 12.9656C6.63131 12.948 6.60665 12.9434 6.58853 12.9555C6.49792 13.0141 6.45665 13.0968 6.51302 13.2169C6.57242 13.3441 6.60916 13.4944 6.62376 13.6675C6.62729 13.7089 6.64943 13.7336 6.6897 13.7417Z" fill="#F8F7FC"/>
<path d="M4.20097 13.6081C3.82396 13.2842 3.44644 13.4916 3.20383 13.8675C3.19477 13.8811 3.18973 13.8973 3.19024 13.9134L3.19477 14.1147C3.19577 14.1788 3.28235 14.199 3.31205 14.1425C3.34426 14.0744 3.46658 13.8064 3.5753 13.7676C3.83503 13.6742 4.07564 13.8579 4.1295 14.1031C4.18839 14.3705 4.05148 14.5941 3.81792 14.7268C3.71373 14.7858 3.51339 14.7469 3.2154 14.6097C3.1394 14.5744 3.05735 14.645 3.08 14.7257L3.10366 14.8115C3.13487 14.925 3.21037 15.0209 3.31356 15.0774C3.68 15.2798 4.00014 15.2152 4.27346 14.8847C4.48034 14.6339 4.51557 14.2878 4.44107 13.981C4.40684 13.8402 4.32681 13.7166 4.20097 13.6081Z" fill="#F8F7FC"/>
<path d="M5.64448 13.6869C5.61017 13.8024 5.63439 13.9119 5.69897 13.9305C5.76304 13.9497 5.84326 13.8715 5.87757 13.7555C5.91187 13.6399 5.88766 13.5305 5.82308 13.5118C5.7585 13.4926 5.67879 13.5713 5.64448 13.6869ZM5.77011 13.7131C5.75144 13.7368 5.71965 13.7434 5.69897 13.7277C5.67828 13.7116 5.67677 13.6793 5.69493 13.6551C5.7136 13.6314 5.74539 13.6248 5.76607 13.6404C5.78726 13.6566 5.78877 13.6889 5.77011 13.7131Z" fill="#F8F7FC"/>
<path d="M9.34651 16.5399C9.3596 16.5384 9.37168 16.5329 9.38275 16.5248C9.75373 16.2417 9.97621 16.0646 10.0487 15.994C10.3628 15.6892 10.6844 15.2836 10.9608 14.8456C11.2955 14.3143 11.4646 14.0449 11.4682 14.0393C11.5583 13.8874 11.6151 13.7492 11.6388 13.6251C11.6453 13.5928 11.6131 13.566 11.5819 13.5792C11.5275 13.6019 11.4732 13.6447 11.4198 13.7073C11.1767 13.9914 11.0393 14.2184 10.7911 14.5535C10.3019 15.2134 9.8846 15.8991 9.2554 16.4012C9.19802 16.4466 9.09634 16.4663 9.04903 16.5147C9.02588 16.5389 9.04601 16.5788 9.07923 16.5747L9.34651 16.5399Z" fill="#F8F7FC"/>
<path d="M2.76972 14.421C2.75009 14.2085 2.74002 13.9966 2.73952 13.7852C2.73902 13.7681 2.73298 13.7479 2.7209 13.7252C2.71133 13.7075 2.68516 13.707 2.67509 13.7247C2.53969 13.9553 2.48986 14.201 2.5261 14.4603C2.5714 14.7792 2.63683 14.9513 2.81049 15.1687C2.82358 15.1849 2.84019 15.1975 2.86032 15.205L3.18146 15.3241C3.1875 15.3266 3.19405 15.3277 3.19959 15.3272C3.21267 15.3266 3.22022 15.3261 3.22173 15.3256C3.25093 15.3186 3.2615 15.2828 3.24136 15.2616C3.02693 15.0345 2.79841 14.7323 2.76972 14.421Z" fill="#F8F7FC"/>
<path d="M6.59767 14.6793C6.58257 14.6712 6.56394 14.6803 6.56042 14.6969C6.54834 14.761 6.42753 14.7898 6.38424 14.87C6.2881 15.0471 6.17586 15.2827 6.01327 15.4109C5.89398 15.5048 5.76461 15.6011 5.62569 15.6995C5.48324 15.7994 5.23861 15.8045 5.08962 15.811C5.08156 15.8115 5.07451 15.8045 5.07502 15.7964V15.7782C5.07502 15.7702 5.08206 15.7631 5.09012 15.7631L5.24968 15.7641C5.26277 15.7641 5.27535 15.7611 5.28693 15.755C5.57837 15.5976 5.76411 15.477 5.84465 15.3932C6.00421 15.2277 6.05706 15.0168 6.00371 14.761C6.00069 14.7454 5.9871 14.7333 5.97099 14.7328C5.85824 14.7267 5.72888 14.7383 5.5824 14.7676C5.43592 14.7963 5.26126 14.9235 5.12787 14.9856C4.91948 15.0824 4.77452 15.2378 4.69297 15.4528C4.65371 15.5547 4.67435 15.6586 4.6225 15.7459C4.61143 15.7646 4.62955 15.7868 4.65019 15.7797C4.66982 15.7727 4.68341 15.7702 4.69297 15.7707C4.70757 15.7722 4.72166 15.7964 4.73626 15.8438C4.75891 15.917 4.78961 15.9594 4.82888 15.972C5.05488 16.0451 5.28743 16.0572 5.52602 16.0088C5.7319 15.9674 5.93525 15.8559 6.13659 15.6748C6.37216 15.4619 6.5272 15.2005 6.59968 14.8922C6.60371 14.8751 6.61327 14.8599 6.62737 14.8493L6.68575 14.8044C6.70186 14.7918 6.70589 14.7691 6.69481 14.7519C6.67971 14.7292 6.648 14.7055 6.59767 14.6793ZM5.17368 15.4568C5.25824 15.3514 5.35287 15.2449 5.45757 15.1384C5.54666 15.0481 5.672 15.0098 5.83509 15.0244C5.8527 15.0259 5.86579 15.0421 5.86377 15.0602C5.85572 15.1334 5.8376 15.1798 5.80941 15.2C5.61361 15.3418 5.40774 15.4366 5.1918 15.4851C5.17569 15.4891 5.16361 15.4699 5.17368 15.4568ZM4.90891 15.2933C4.88022 15.3216 4.85002 15.3367 4.84096 15.3277C4.8324 15.3186 4.848 15.2883 4.87619 15.2605C4.90488 15.2323 4.93509 15.2172 4.94415 15.2262C4.95321 15.2348 4.9376 15.2651 4.90891 15.2933Z" fill="#F8F7FC"/>
<path d="M4.20906 15.8854L3.61057 15.7425C3.60755 15.742 3.60402 15.7435 3.60302 15.747V15.7475C3.58741 15.8145 3.69916 15.898 3.85218 15.9348L3.90704 15.9479C4.06006 15.9846 4.19798 15.9599 4.21359 15.8935L4.21409 15.893C4.21459 15.889 4.21258 15.886 4.20906 15.8854Z" fill="#F8F7FC"/>
</svg>
