<svg width="19" height="19" viewBox="0 0 19 19" fill="none" xmlns="http://www.w3.org/2000/svg">
<path d="M18.379 3.98678C18.2191 3.90254 18.0272 3.83194 17.8038 3.77594C16.6027 3.47286 15.9181 3.29543 15.7517 3.24319C15.5484 3.17919 15.5019 3.10388 15.4429 2.92552C15.3435 2.62432 15.1966 2.11039 15.0022 1.38375C14.9163 1.06231 14.8753 0.724868 14.7649 0.443905C14.7189 0.32766 14.7304 0.200593 14.7019 0.0904668C14.681 0.0128135 14.635 -0.0149539 14.5625 0.00763617C14.5036 0.0264612 14.4616 0.0744644 14.4351 0.154C14.3876 0.298482 14.3397 0.494733 14.2927 0.742283C14.1873 1.29433 14.0564 1.68918 13.86 2.381C13.792 2.62102 13.7106 2.8248 13.6347 3.05494C13.6192 3.10153 13.5832 3.13918 13.5357 3.15848C13.3873 3.21778 13.2664 3.26013 13.172 3.28554C12.5124 3.46156 12.0442 3.5811 11.7674 3.64416C11.6775 3.6644 11.5411 3.70393 11.3572 3.76323C11.0824 3.85218 10.861 3.87759 10.7501 4.05925C10.7341 4.08655 10.7376 4.12044 10.7601 4.14303C10.8141 4.19856 10.886 4.23998 10.9765 4.26727C11.1054 4.30586 11.4836 4.40752 12.1112 4.5713C12.7582 4.74072 13.2349 4.87014 13.5407 4.9605C13.5567 4.96568 13.5702 4.97556 13.5777 4.98968C13.6177 5.06075 13.6576 5.16334 13.6961 5.29606C13.8895 5.96106 14.0454 6.56816 14.1643 7.11691C14.2313 7.42611 14.3247 7.68919 14.4391 7.95039C14.4506 7.97722 14.4751 7.99604 14.5046 8.00263C14.6305 8.02946 14.7134 7.98663 14.7524 7.87509C14.8044 7.72684 14.8368 7.62284 14.8498 7.56401C14.9313 7.19363 15.0457 6.75218 15.1941 6.24061C15.3155 5.8194 15.3715 5.38548 15.5718 4.99439C15.5863 4.96615 15.6128 4.9445 15.6448 4.93509C16.4702 4.68848 17.0084 4.53271 17.2592 4.46682C17.6065 4.37552 18.0012 4.21785 18.3765 4.16797C18.4199 4.16232 18.4509 4.1242 18.4469 4.0809C18.4449 4.04043 18.4214 4.00984 18.379 3.98678ZM15.5708 3.46156C15.5753 3.45168 15.5973 3.45074 15.6193 3.45968C15.6418 3.46862 15.6563 3.48368 15.6513 3.49403C15.6468 3.50392 15.6248 3.50486 15.6028 3.49592C15.5803 3.48697 15.5658 3.47192 15.5708 3.46156ZM14.9583 2.60126C14.9762 2.59561 15.0492 2.75374 15.1222 2.95423C15.1946 3.15471 15.2391 3.32225 15.2211 3.3279C15.2031 3.33355 15.1301 3.17542 15.0572 2.97493C14.9847 2.77445 14.9403 2.6069 14.9583 2.60126ZM14.9003 2.14522C14.9118 2.1424 14.9278 2.16499 14.9368 2.19605C14.9458 2.22711 14.9433 2.25487 14.9318 2.25723C14.9203 2.26005 14.9043 2.23746 14.8953 2.2064C14.8868 2.17534 14.8888 2.14757 14.9003 2.14522ZM14.5455 0.80064C14.5535 0.799699 14.563 0.818996 14.5665 0.843469C14.57 0.867941 14.5655 0.888648 14.5575 0.889589C14.5495 0.89053 14.54 0.871233 14.5365 0.84676C14.5336 0.822288 14.5375 0.801581 14.5455 0.80064ZM13.6861 3.3905C13.7496 3.32979 13.812 3.29119 13.825 3.30296C13.838 3.31519 13.797 3.37402 13.7331 3.43426C13.6696 3.49498 13.6072 3.53357 13.5942 3.5218C13.5812 3.51003 13.6222 3.45121 13.6861 3.3905ZM12.7033 3.69499C12.7987 3.67711 12.8782 3.67005 12.8802 3.67899C12.8822 3.68793 12.8057 3.70958 12.7103 3.72746C12.6148 3.74535 12.5354 3.75241 12.5334 3.74347C12.5319 3.73452 12.6079 3.71287 12.7033 3.69499ZM13.2654 4.62495C13.2574 4.62354 13.2519 4.62118 13.2494 4.61883C13.2459 4.61506 13.2484 4.60894 13.2539 4.60894C13.2639 4.60847 13.2694 4.60847 13.2704 4.60894C13.2749 4.61036 13.2769 4.61506 13.2759 4.61883C13.2744 4.62259 13.2699 4.62542 13.2654 4.62495ZM14.0894 5.53137L13.8 4.81837C13.799 4.81555 13.8001 4.81226 13.803 4.81132L13.8085 4.80943C13.843 4.79673 13.935 4.94545 14.0139 5.14075L14.0204 5.15675C14.0998 5.35206 14.1358 5.52008 14.1018 5.53278L14.0963 5.53467C14.0938 5.53561 14.0909 5.5342 14.0894 5.53137ZM14.1173 5.82599C14.1078 5.82693 14.0974 5.78928 14.0944 5.74268C14.0909 5.69609 14.0959 5.65797 14.1053 5.65703C14.1148 5.65656 14.1253 5.69374 14.1283 5.74033C14.1313 5.78692 14.1263 5.82505 14.1173 5.82599ZM14.5101 7.29293C14.4926 7.29481 14.4761 7.27457 14.4736 7.24869C14.4711 7.2228 14.4831 7.20021 14.5011 7.1988C14.5186 7.19692 14.5351 7.21716 14.5375 7.24304C14.5395 7.26893 14.5281 7.29199 14.5101 7.29293ZM15.5119 4.64942C15.4244 4.71107 15.342 4.7459 15.3275 4.72754C15.3125 4.70919 15.372 4.64424 15.4594 4.58306C15.5469 4.52141 15.6293 4.48658 15.6438 4.50494C15.6588 4.52282 15.5993 4.58777 15.5119 4.64942ZM16.0265 4.51247C16.0026 4.52612 15.9771 4.528 15.9701 4.5167C15.9631 4.50588 15.9766 4.48564 16.0006 4.47199C16.0245 4.45835 16.05 4.45646 16.057 4.46776C16.0645 4.47858 16.0505 4.49882 16.0265 4.51247ZM17.2147 4.06773C17.2142 4.08231 17.2017 4.09408 17.1863 4.09361C17.0998 4.0922 17.0364 4.09408 16.9939 4.09879C16.5937 4.14444 16.2099 4.20892 15.8447 4.2908C15.6173 4.3421 15.429 4.42069 15.2801 4.52659C15.1446 4.62353 15.0827 4.71013 15.0302 4.88521C14.8838 5.37324 14.7484 5.92482 14.624 6.53945C14.6205 6.55875 14.594 6.56534 14.5805 6.54981C14.572 6.5404 14.5665 6.52722 14.5645 6.5098C14.4906 5.93517 14.3632 5.38266 14.1828 4.85273C14.1508 4.75814 14.1193 4.69225 14.0884 4.65648C13.9679 4.51482 13.7945 4.53176 13.6481 4.49694C13.198 4.39058 12.7802 4.29692 12.3955 4.2155C12.2131 4.17738 12.0302 4.17832 11.8494 4.07338C11.8259 4.05926 11.8349 4.0249 11.8629 4.02349C12.3505 3.99619 12.8612 3.91854 13.3938 3.791C13.6432 3.73123 13.8125 3.6964 13.9769 3.5538C14.0774 3.46674 14.1573 3.21025 14.1858 3.07329C14.2822 2.60032 14.3971 2.11933 14.5311 1.62988C14.5331 1.62094 14.5435 1.61529 14.553 1.61765C14.57 1.62235 14.5815 1.63694 14.587 1.66047C14.7049 2.18428 14.8283 2.73585 14.9573 3.31567C15.0147 3.5731 15.5149 3.69028 15.8212 3.77076C16.2469 3.88324 16.7031 3.97172 17.1883 4.03572C17.2037 4.03761 17.2152 4.05031 17.2142 4.0649V4.06773H17.2147Z" fill="#F8F7FC"/>
<path d="M16.9201 9.41068C15.6305 9.17255 14.2679 8.90147 12.8324 8.5965C12.4566 8.5165 12.0784 8.4459 11.6991 8.38378C11.6762 8.38048 11.6627 8.35648 11.6722 8.33624C11.7471 8.17906 11.8765 8.00916 11.981 7.84021C12.2448 7.41194 12.4991 6.95731 12.7449 6.47586C12.7639 6.43915 12.7799 6.38785 12.7924 6.32149C12.8304 6.12524 12.621 6.12524 12.5016 6.19254C12.4182 6.23961 12.3372 6.2829 12.2598 6.32197C11.955 6.47586 11.4238 6.87542 11.0156 7.11309C10.7828 7.24863 10.6354 7.34087 10.5734 7.39076C10.5574 7.40346 10.5329 7.3964 10.5269 7.37758C10.5124 7.33052 10.4885 7.22604 10.4545 7.06414C10.2067 5.87158 9.95433 4.69454 9.698 3.53256C9.5586 2.90334 9.44067 2.31176 9.34324 1.75877C9.30826 1.56252 9.27378 1.30038 9.06742 1.22932C9.04943 1.2232 9.02894 1.2265 9.01396 1.23779C8.82808 1.37898 8.81009 1.61523 8.76462 1.84396C8.63871 2.47083 8.5053 3.08782 8.3659 3.69493C8.3629 3.70858 8.10457 4.85596 7.59192 7.1385C7.57793 7.20015 7.57044 7.2538 7.56994 7.3004C7.56994 7.3131 7.55545 7.32063 7.54395 7.31499C7.14522 7.1112 6.70453 6.85377 6.22285 6.54175C5.99101 6.39162 5.76216 6.2542 5.53532 6.13089C5.43788 6.07724 5.35743 6.08383 5.29398 6.15113C5.20953 6.24102 5.29448 6.39585 5.34494 6.48433C5.60177 6.93801 5.93954 7.49382 6.35876 8.15082C6.40223 8.21906 6.45719 8.2953 6.52415 8.38095C6.53364 8.39366 6.52565 8.41107 6.50966 8.41343C6.34727 8.43413 6.17088 8.46237 5.98001 8.4972C3.56914 8.94147 2.25303 9.18572 2.02968 9.2309C1.12979 9.41162 0.665111 9.4954 0.22291 9.61823C0.145962 9.63941 -0.0269155 9.72365 0.00356391 9.82248C0.0720176 10.046 0.226414 10.0507 0.467251 10.0945C2.1696 10.4061 4.47703 10.8875 6.36425 11.2405C6.38124 11.2433 6.39074 11.2612 6.38224 11.2758C6.11342 11.7695 5.83011 12.258 5.53282 12.7408C5.45137 12.8735 5.35744 13.0783 5.25001 13.355C5.24352 13.3715 5.24651 13.3898 5.2565 13.4044C5.30847 13.4774 5.37392 13.5136 5.45287 13.5145C5.47635 13.5145 5.49884 13.5084 5.51882 13.4971L7.55144 12.2872C7.56494 12.2792 7.58293 12.2867 7.58593 12.3013C7.82627 13.5461 8.20251 15.3895 8.71516 17.8307C8.76612 18.074 8.8086 18.2265 8.84358 18.2876C8.90204 18.3921 9.04844 18.5046 9.18035 18.4232C9.2483 18.3808 9.28627 18.3436 9.29327 18.3107C9.43967 17.6175 9.53011 17.136 9.67052 16.5778C9.70549 16.439 9.81941 15.9684 10.0113 15.1641C10.1137 14.7349 10.2077 14.2802 10.2941 13.7997C10.4185 13.1046 10.4955 12.6472 10.5259 12.4279C10.5289 12.4043 10.5549 12.3897 10.5789 12.3977C10.7403 12.4538 10.8877 12.514 11.0411 12.6034C11.9275 13.1202 12.4261 13.411 12.5356 13.4759C12.691 13.5673 12.8194 13.4783 12.8244 13.3197C12.8259 13.2698 12.7989 13.202 12.7424 13.1169C12.3997 12.5963 12.0139 11.9012 11.6577 11.2861C11.6487 11.2697 11.6577 11.2494 11.6772 11.2442C11.7771 11.2184 11.8575 11.1995 11.918 11.1864C12.4406 11.0748 14.2834 10.7214 17.4452 10.127C17.6506 10.0879 17.8345 10.0253 17.9959 9.93731C18.0483 9.90908 18.0683 9.84742 18.0409 9.79848C17.9464 9.63047 17.1634 9.45634 16.9201 9.41068ZM7.85124 7.00579C7.86623 7.00626 7.87772 7.02602 7.87622 7.04861C7.87523 7.07167 7.86174 7.08956 7.84675 7.08909C7.83176 7.08861 7.82027 7.06885 7.82177 7.04626C7.82277 7.02367 7.83625 7.00532 7.85124 7.00579ZM7.54896 9.41445C7.56145 9.40174 7.64489 9.45727 7.73533 9.53869C7.82577 9.61964 7.88872 9.69541 7.87622 9.70812C7.86373 9.72083 7.78029 9.66529 7.68985 9.58387C7.59891 9.50246 7.53646 9.42669 7.54896 9.41445ZM7.83326 9.37444L7.83526 9.37256C7.83676 9.37068 7.84025 9.37068 7.84275 9.37209L8.20551 9.66106C8.20751 9.66294 8.208 9.66623 8.20601 9.66812L8.20451 9.67C8.18052 9.6973 8.08059 9.65588 7.98266 9.57728L7.96717 9.56505C7.86873 9.48692 7.80878 9.40174 7.83326 9.37444ZM7.30061 9.0436C7.31311 9.02995 7.34409 9.03607 7.36957 9.05724C7.39556 9.07795 7.40605 9.10619 7.39356 9.11937C7.38106 9.13301 7.35009 9.1269 7.32461 9.10572C7.29863 9.08501 7.28812 9.05677 7.30061 9.0436ZM6.18738 7.25145C6.17189 7.22792 6.16388 7.20298 6.16388 7.17756C6.16388 7.16391 6.18087 7.15733 6.19137 7.16674L7.28463 8.19647C7.30012 8.21106 7.29313 8.23647 7.27164 8.24165L6.91438 8.33577C6.89239 8.34142 6.86941 8.33342 6.85592 8.31601C6.81295 8.26 6.78696 8.22424 6.77747 8.20776C6.57311 7.86232 6.37625 7.54371 6.18738 7.25145ZM7.14272 8.90664C7.09726 8.87558 7.06877 8.83934 7.07927 8.82617C7.08976 8.81299 7.13473 8.82711 7.1807 8.8577C7.22617 8.88876 7.25465 8.925 7.24416 8.93818C7.23366 8.95182 7.18869 8.9377 7.14272 8.90664ZM7.17421 9.37539C7.15872 9.39092 7.0263 9.29867 6.8794 9.16878C6.732 9.03889 6.62557 8.92123 6.64106 8.9057C6.65655 8.89017 6.78897 8.98241 6.93587 9.11231C7.08277 9.24173 7.1897 9.35986 7.17421 9.37539ZM6.34977 9.17867L6.35576 9.17914C6.37225 9.18102 6.38724 9.18808 6.39973 9.1989L6.89239 9.63941C6.90638 9.65211 6.89939 9.67377 6.8804 9.67659C6.79646 9.68977 6.70252 9.65588 6.64256 9.5787C6.56312 9.47657 6.46119 9.35609 6.33528 9.21679C6.32278 9.20361 6.33078 9.18243 6.34977 9.17867ZM5.87059 9.13207L5.92005 9.08736C5.92605 9.08219 5.93504 9.08219 5.94054 9.08784L6.53064 9.66529C6.53613 9.67047 6.53613 9.67941 6.53014 9.68459L6.48067 9.7293C6.47468 9.73448 6.46569 9.73448 6.46019 9.72883L5.87009 9.15137C5.86459 9.14619 5.86459 9.13678 5.87059 9.13207ZM5.76916 9.3975L5.78215 9.38856C5.78964 9.38339 5.79963 9.38433 5.80613 9.39045L6.08993 9.65776C6.09793 9.66529 6.09594 9.67847 6.08544 9.68365C6.05946 9.69635 6.03048 9.702 5.99951 9.70012C5.99101 9.69965 5.98351 9.69541 5.97801 9.68882L5.76665 9.41257C5.76266 9.40786 5.76466 9.40127 5.76916 9.3975ZM5.02116 9.48175C5.03965 9.46292 5.10911 9.4954 5.17656 9.55375C5.24402 9.61211 5.28398 9.67471 5.26549 9.69353C5.247 9.71236 5.17756 9.67988 5.1106 9.62152C5.04265 9.56317 5.00318 9.50057 5.02116 9.48175ZM4.90175 9.69965C4.8213 9.67141 4.75884 9.65965 4.71338 9.66435C4.70038 9.66576 4.69338 9.65023 4.70387 9.6427C4.73135 9.62294 4.75035 9.58387 4.76284 9.52458C4.76684 9.50575 4.78982 9.49728 4.80631 9.5081C4.88076 9.55517 4.92672 9.60693 4.94421 9.66294C4.95171 9.68647 4.92673 9.70812 4.90175 9.69965ZM4.69388 9.20784C4.71187 9.18714 4.78083 9.21161 4.84778 9.26338C4.91474 9.31515 4.95521 9.37351 4.93722 9.39421C4.91924 9.41492 4.85028 9.39045 4.78332 9.33868C4.71637 9.28691 4.67589 9.22808 4.69388 9.20784ZM3.36678 9.40786C3.44023 9.42151 3.49819 9.44222 3.49569 9.45445C3.4932 9.46669 3.43124 9.46528 3.35779 9.45163C3.28434 9.43798 3.22637 9.41727 3.22887 9.40504C3.23137 9.3928 3.29333 9.39421 3.36678 9.40786ZM7.50548 11.9074C7.09276 12.1347 6.68853 12.3883 6.2933 12.6684C6.28231 12.6764 6.26582 12.6754 6.25633 12.6665L6.25533 12.6655C6.24483 12.6552 6.24533 12.6382 6.25633 12.6288C6.41822 12.4923 6.54163 12.3785 6.62807 12.2867C6.91737 11.9803 7.17271 11.7158 7.39356 11.4937C7.39605 11.4913 7.40055 11.4923 7.40155 11.4956L7.51597 11.8824C7.51947 11.8914 7.51497 11.9017 7.50548 11.9074ZM7.51947 11.0005C7.50498 11.0089 7.48799 11.0118 7.47151 11.0085C6.42921 10.799 5.65873 10.6475 5.15957 10.5543C4.19822 10.3736 3.22938 10.1232 2.26203 9.99144C2.20557 9.98391 2.14261 9.96979 2.07366 9.94955C2.06816 9.94814 2.06517 9.94296 2.06617 9.93779C2.06717 9.93261 2.07216 9.92884 2.07716 9.92884L8.60624 9.9712C8.61623 9.9712 8.62172 9.98249 8.61473 9.98955C8.44734 10.1576 8.14355 10.4498 7.70284 10.8659C7.65038 10.9153 7.58942 10.96 7.51947 11.0005ZM8.2245 9.3015C8.23399 9.29915 8.24248 9.29867 8.25097 9.30056C8.26346 9.30385 8.26446 9.32032 8.25197 9.32503C8.24548 9.32738 8.23599 9.32597 8.223 9.3208C8.21301 9.31703 8.21401 9.30385 8.2245 9.3015ZM8.8016 10.6193C8.82259 10.6324 8.82409 10.6649 8.8051 10.6908C8.78611 10.7171 8.75414 10.7275 8.73315 10.7143C8.71217 10.7011 8.71066 10.6687 8.72965 10.6428C8.74864 10.6164 8.78061 10.6056 8.8016 10.6193ZM8.75613 10.3468C8.77362 10.3129 8.8051 10.2931 8.82558 10.3025C8.84657 10.3119 8.84857 10.3472 8.83108 10.3816C8.81359 10.4155 8.78212 10.4352 8.76164 10.4258C8.74065 10.4159 8.73815 10.3806 8.75613 10.3468ZM8.72266 11.5647C8.73515 11.5765 8.72015 11.6099 8.68867 11.6391C8.6572 11.6687 8.62223 11.6829 8.60974 11.6706C8.59725 11.6589 8.61223 11.6255 8.64371 11.5963C8.67469 11.5671 8.71017 11.553 8.72266 11.5647ZM8.01563 11.313C7.96567 11.3567 7.9177 11.3831 7.90771 11.3732C7.89722 11.3633 7.92969 11.3191 7.97916 11.2762C8.02912 11.2325 8.0771 11.2061 8.08709 11.216C8.09759 11.2259 8.0656 11.2697 8.01563 11.313ZM7.93669 11.7012C7.91271 11.7304 7.87823 11.7436 7.86024 11.7304C7.84226 11.7172 7.84725 11.6829 7.87124 11.6537C7.89522 11.6245 7.9297 11.6113 7.94768 11.6245C7.96567 11.6377 7.96118 11.672 7.93669 11.7012ZM7.99665 11.9845C7.98616 11.9935 7.97116 11.9798 7.97766 11.9676C7.98016 11.9619 7.98566 11.9601 7.99365 11.961C7.99365 11.961 7.99815 11.9624 7.99865 11.9652C8.00115 11.9751 8.00065 11.9817 7.99665 11.9845ZM8.01363 12.5276C7.99714 12.5135 8.03162 12.4533 8.08958 12.3935C8.14804 12.3333 8.2085 12.2966 8.22499 12.3107C8.24148 12.3248 8.20701 12.385 8.14905 12.4448C8.09059 12.5051 8.03012 12.5418 8.01363 12.5276ZM8.24198 12.6919C8.24748 12.6952 8.24298 12.7098 8.23249 12.7244C8.222 12.739 8.21 12.7484 8.20451 12.7451C8.19901 12.7418 8.2035 12.7272 8.214 12.7126C8.22449 12.6975 8.23648 12.6881 8.24198 12.6919ZM8.41536 13.2566L8.19652 13.5014C8.18852 13.5098 8.17452 13.5112 8.16553 13.5037L8.16403 13.5023C8.15504 13.4948 8.15355 13.4821 8.16154 13.4731L8.38039 13.2284C8.38838 13.2199 8.40238 13.2185 8.41137 13.226L8.41286 13.2275C8.42185 13.235 8.42336 13.2482 8.41536 13.2566ZM8.49431 11.8189L8.11306 12.2161C8.10557 12.2241 8.09209 12.225 8.08359 12.2175L8.08209 12.2161C8.0731 12.2086 8.0726 12.1963 8.08059 12.1883L8.46184 11.7911C8.46933 11.7831 8.48282 11.7822 8.49131 11.7897L8.49281 11.7911C8.50181 11.7986 8.50231 11.8109 8.49431 11.8189ZM8.76913 14.4473L8.54728 14.6186C8.54128 14.6233 8.53228 14.6224 8.52678 14.6168L8.51229 14.6003C8.5073 14.5942 8.5083 14.5857 8.51429 14.581L8.73615 14.4097C8.74215 14.405 8.75114 14.4059 8.75663 14.4116L8.77113 14.428C8.77612 14.4341 8.77512 14.4426 8.76913 14.4473ZM8.79861 12.9983C8.76363 13.0369 8.72715 13.0623 8.71716 13.0543C8.70667 13.0463 8.72666 13.0077 8.76164 12.9691C8.79661 12.9305 8.83308 12.9051 8.84307 12.9131C8.85357 12.9211 8.83359 12.9597 8.79861 12.9983ZM8.87306 9.32315C8.87256 9.34103 8.85006 9.3495 8.83707 9.3368L7.81577 8.35978C7.79428 8.33907 7.79029 8.30801 7.80528 8.28259C7.80528 8.28259 7.81427 8.25624 7.83276 8.20494C7.84625 8.1687 7.85425 8.14093 7.85724 8.12211C7.97217 7.50182 8.14405 6.87872 8.27046 6.23961C8.44185 5.37271 8.59074 4.6503 8.71766 4.07237C8.75563 3.89777 8.78411 3.73776 8.8021 3.59139C8.82608 3.39467 8.86156 3.23513 8.90853 3.1123C8.91203 3.10241 8.92352 3.09629 8.93402 3.09818C8.94501 3.10006 8.9535 3.10947 8.9535 3.11983L8.87306 9.32315ZM13.2231 8.93771C13.32 8.95888 13.398 8.98241 13.396 8.989C13.3945 8.99606 13.314 8.98382 13.2166 8.96218C13.1197 8.941 13.0417 8.91747 13.0437 8.91088C13.0457 8.90382 13.1262 8.91606 13.2231 8.93771ZM12.7359 8.84311C12.8628 8.86617 12.9653 8.89017 12.9638 8.89723C12.9628 8.90429 12.8584 8.89158 12.7309 8.86852C12.604 8.84546 12.5016 8.82146 12.5031 8.8144C12.5041 8.80781 12.6085 8.82052 12.7359 8.84311ZM12.3602 8.78475C12.3887 8.78805 12.4112 8.79463 12.4107 8.79887C12.4102 8.80311 12.3867 8.80405 12.3582 8.80075C12.3297 8.79746 12.3072 8.79087 12.3077 8.78663C12.3082 8.78193 12.3317 8.78099 12.3602 8.78475ZM12.1339 8.75228C12.1418 8.75416 12.1463 8.76169 12.1443 8.76875L12.1423 8.77675C12.1403 8.78381 12.1328 8.78852 12.1248 8.78663L11.0116 8.52732C11.0036 8.52544 10.9991 8.51791 11.0011 8.51085L11.0031 8.50285C11.0051 8.49579 11.0126 8.49108 11.0206 8.49296L12.1339 8.75228ZM10.6234 7.76914L11.8535 6.93331C11.862 6.92719 11.874 6.9286 11.881 6.93613C11.888 6.94366 11.888 6.95543 11.8805 6.96249C11.7181 7.12203 11.5427 7.26604 11.3978 7.42794C11.2045 7.64301 10.9776 7.8835 10.7173 8.14894C10.7143 8.1527 10.7083 8.15082 10.7073 8.14658L10.6144 7.79361C10.6114 7.7842 10.6154 7.77479 10.6234 7.76914ZM10.2601 8.16023C10.2167 8.34942 10.1082 8.49532 9.93434 8.59791C9.92834 8.60121 9.92134 8.59509 9.92534 8.58944L10.2246 8.14611C10.2361 8.1287 10.2651 8.14046 10.2601 8.16023ZM10.0328 7.85762C10.0388 7.84444 10.0518 7.83738 10.0608 7.84115C10.0702 7.84491 10.0727 7.85856 10.0667 7.87174C10.0608 7.88491 10.0478 7.89197 10.0388 7.88821C10.0298 7.88397 10.0268 7.87033 10.0328 7.85762ZM10.0453 7.22415L10.0483 7.22463C10.0578 7.22651 10.0638 7.23639 10.0608 7.24533C10.0438 7.29522 10.0453 7.33852 10.0652 7.37428C10.0872 7.41288 10.0812 7.45006 10.0483 7.48347C9.8409 7.69572 9.66452 7.88539 9.51912 8.05199C9.51462 8.05716 9.50712 8.0581 9.50213 8.05434L9.48763 8.04587C9.48514 8.04446 9.48365 8.04069 9.48565 8.03881C9.57359 7.90044 9.72348 7.69666 9.86538 7.57101C9.96281 7.48488 10.0158 7.37428 10.0243 7.23921C10.0243 7.2298 10.0343 7.22227 10.0453 7.22415ZM9.30376 8.85535C9.34024 8.79464 9.38371 8.75416 9.40169 8.7631C9.41968 8.77251 9.40469 8.82899 9.36822 8.8897C9.33174 8.95041 9.28828 8.99089 9.27029 8.98194C9.2523 8.97206 9.26729 8.91559 9.30376 8.85535ZM9.30326 7.95315C9.32175 7.92868 9.34423 7.91315 9.35373 7.91927C9.36272 7.92539 9.35522 7.95033 9.33673 7.97527C9.31825 7.99975 9.29577 8.01528 9.28628 8.00916C9.27679 8.00304 9.28427 7.9781 9.30326 7.95315ZM9.38621 7.67031C9.30177 7.78608 9.22531 7.87503 9.21482 7.86844C9.20483 7.86185 9.26528 7.76302 9.34973 7.64678C9.43417 7.531 9.51063 7.44206 9.52112 7.44864C9.53111 7.4557 9.47066 7.55454 9.38621 7.67031ZM9.70099 6.1836C9.70649 6.17842 9.71599 6.17748 9.72148 6.18313L9.72697 6.18784C9.73297 6.19301 9.73297 6.20148 9.72747 6.20713L9.27129 6.66787C9.26579 6.67305 9.25629 6.67399 9.25079 6.66834L9.24531 6.66364C9.23931 6.65846 9.23931 6.64999 9.24481 6.64434L9.70099 6.1836ZM9.24731 5.34824C9.2543 5.29412 9.26479 5.26117 9.27928 5.24894C9.28577 5.24329 9.29527 5.24941 9.29277 5.25694L9.2608 5.35059C9.2598 5.35342 9.25629 5.35577 9.25279 5.3553C9.2498 5.35483 9.24681 5.35153 9.24731 5.34824ZM9.67851 6.5761C9.66152 6.59211 9.64353 6.60105 9.63753 6.59634C9.63204 6.59116 9.64154 6.57422 9.65853 6.55775C9.67552 6.54175 9.69349 6.53281 9.69949 6.53751C9.70499 6.54269 9.6955 6.55963 9.67851 6.5761ZM9.58907 7.06038C9.60106 7.06838 9.57109 7.12627 9.52212 7.19027C9.47315 7.25381 9.42368 7.29852 9.41168 7.29051C9.39969 7.28251 9.42968 7.22416 9.47864 7.16062C9.52761 7.09709 9.57658 7.05238 9.58907 7.06038ZM9.95032 7.3677C9.95332 7.37899 9.93683 7.39217 9.91485 7.39688C9.89236 7.40205 9.87188 7.39687 9.86888 7.38605C9.86588 7.37476 9.88237 7.36158 9.90436 7.35687C9.92684 7.35169 9.94782 7.35687 9.95032 7.3677ZM9.78993 6.41327C9.81092 6.37468 9.83641 6.34738 9.8469 6.35256C9.85739 6.35773 9.84889 6.3935 9.82791 6.43162C9.80692 6.47021 9.78144 6.49751 9.77095 6.49233C9.76046 6.48763 9.76895 6.45186 9.78993 6.41327ZM9.78244 6.70882C9.81992 6.65329 9.86988 6.61987 9.89286 6.63352C9.91585 6.64717 9.90386 6.70364 9.86638 6.75918C9.82891 6.81471 9.77894 6.84813 9.75596 6.83448C9.73297 6.82083 9.74497 6.76436 9.78244 6.70882ZM9.72447 5.97276C9.72847 5.97323 9.73148 5.97559 9.73298 5.97935C9.73697 5.98876 9.73447 5.9977 9.72597 6.00429C9.70948 6.01747 9.685 6.00853 9.687 5.99065C9.689 5.97559 9.70149 5.96947 9.72447 5.97276ZM9.52461 5.09316C9.5386 5.07716 9.55659 5.06539 9.57907 5.0588C9.60706 5.05033 9.62704 5.08422 9.60456 5.1021C9.58907 5.11481 9.56909 5.12281 9.5451 5.12657C9.52512 5.13034 9.51212 5.10822 9.52461 5.09316ZM9.26979 3.97072C9.28428 3.96507 9.32324 4.01213 9.3872 4.11097C9.41019 4.1472 9.40719 4.18062 9.36222 4.19662C9.31675 4.21309 9.29027 4.1905 9.28178 4.14861C9.25879 4.03519 9.2548 3.97636 9.26979 3.97072ZM9.28178 4.34769L9.28478 4.34345C9.32126 4.30298 9.38571 4.29874 9.42918 4.33357L9.43068 4.33451C9.43368 4.33687 9.43368 4.34157 9.43118 4.34439L9.30576 4.4837C9.30326 4.48652 9.29827 4.48652 9.29527 4.48417L9.29377 4.48323C9.2508 4.44887 9.2453 4.38816 9.28178 4.34769ZM9.21182 3.21866C9.21482 3.20548 9.22532 3.19654 9.23631 3.19842C9.24681 3.2003 9.25329 3.21254 9.25079 3.22572C9.2478 3.2389 9.2373 3.24784 9.22631 3.24595C9.21582 3.2436 9.20932 3.23183 9.21182 3.21866ZM9.20083 7.00579L9.52811 6.64858C9.5366 6.63964 9.5501 6.6387 9.56009 6.64623L9.56158 6.64764C9.57058 6.65517 9.57208 6.66882 9.56408 6.67729L9.2368 7.03449C9.22831 7.04344 9.21482 7.04438 9.20533 7.03685L9.20383 7.03543C9.19384 7.0279 9.19283 7.01426 9.20083 7.00579ZM9.75246 15.4418C9.74996 15.4549 9.73697 15.4639 9.72298 15.462L9.71648 15.4611C9.70249 15.4592 9.693 15.4465 9.695 15.4333L9.91435 14.1593C9.91684 14.1461 9.92984 14.1372 9.94383 14.1391L9.95032 14.14C9.96431 14.1419 9.97381 14.1546 9.97182 14.1678L9.75246 15.4418ZM9.89086 13.2905C9.62604 14.4238 9.52012 15.1363 9.29677 16.3868C9.28028 16.48 9.26379 16.5496 9.24731 16.5948C9.23731 16.6226 9.19433 16.6202 9.18884 16.591C9.16585 16.472 9.15736 16.3637 9.16185 16.2663C9.18434 15.8131 9.19733 15.3801 9.20033 14.9678C9.21282 13.2279 9.21382 11.6612 9.20333 10.2668C9.20333 10.2456 9.23082 10.2343 9.24681 10.2498L10.3061 11.2475C10.3106 11.2522 10.3126 11.2579 10.3116 11.264C10.1932 11.9219 10.0533 12.5973 9.89086 13.2905ZM9.73897 9.9792C9.74796 9.97214 9.80342 10.0239 9.86388 10.0936C9.92384 10.1632 9.96532 10.2258 9.95632 10.2329C9.94733 10.2399 9.89187 10.1882 9.83141 10.1185C9.77145 10.0484 9.72997 9.98579 9.73897 9.9792ZM10.2206 10.4715C10.2201 10.4606 10.2261 10.4512 10.2336 10.4508C10.2416 10.4503 10.2491 10.4588 10.2496 10.4696C10.2501 10.4804 10.2441 10.4898 10.2366 10.4903C10.2286 10.4908 10.2211 10.4823 10.2206 10.4715ZM10.7313 10.2795L10.7288 10.2813C10.7148 10.2926 10.6938 10.2912 10.6818 10.2785L10.4395 10.0187C10.4275 10.0056 10.429 9.98579 10.4425 9.97449L10.445 9.97261C10.459 9.96132 10.48 9.96273 10.492 9.97544L10.7343 10.2352C10.7463 10.2489 10.7448 10.2682 10.7313 10.2795ZM11.9854 12.5413C11.9929 12.5531 11.9909 12.5676 11.98 12.5756L11.979 12.5766C11.967 12.586 11.9495 12.5841 11.9405 12.5723C11.8106 12.4109 11.7001 12.2862 11.6107 12.1982C11.3119 11.9041 11.0546 11.6447 10.8387 11.4207C10.8362 11.4179 10.8377 11.4137 10.8412 11.4132L11.2574 11.3374C11.2679 11.3355 11.2789 11.3403 11.2839 11.3497C11.4888 11.753 11.7231 12.1502 11.9854 12.5413ZM10.8217 10.4338C10.8307 10.4268 10.8547 10.439 10.8747 10.4616C10.8947 10.4842 10.9037 10.5082 10.8952 10.5152C10.8862 10.5223 10.8622 10.5101 10.8422 10.4875C10.8217 10.4649 10.8127 10.4409 10.8217 10.4338ZM11.0946 10.4484L11.0971 10.4465C11.106 10.4404 11.119 10.4418 11.1255 10.4498L11.4393 10.8306C11.4463 10.839 11.4443 10.8508 11.4358 10.8574L11.4333 10.8593C11.4243 10.8654 11.4113 10.864 11.4048 10.856L11.0911 10.4752C11.0841 10.4668 11.0861 10.455 11.0946 10.4484ZM11.6622 10.4489L11.6492 10.4592C11.6432 10.4639 11.6347 10.463 11.6297 10.4578L11.2395 10.0291C11.2345 10.0234 11.2355 10.0154 11.241 10.0107L11.2539 10.0004C11.2599 9.99567 11.2684 9.99661 11.2734 10.0018L11.6637 10.4305C11.6687 10.4362 11.6677 10.4442 11.6622 10.4489ZM12.5646 10.6305C12.5481 10.6437 12.4731 10.5887 12.3967 10.5077L12.3842 10.4941C12.3077 10.4131 12.2588 10.3359 12.2747 10.3228L12.2823 10.3162L12.572 10.6244L12.5646 10.6305ZM12.3112 9.9905C12.3252 9.98014 12.3772 10.0206 12.4276 10.0809C12.4781 10.1411 12.5071 10.1985 12.4936 10.2084C12.4796 10.2187 12.4276 10.1783 12.3772 10.118C12.3267 10.0583 12.2972 10.0004 12.3112 9.9905ZM12.8689 10.5632C12.8549 10.5741 12.8074 10.5411 12.7639 10.4898C12.7204 10.4385 12.6965 10.3882 12.711 10.3773C12.7249 10.3665 12.7724 10.3995 12.8159 10.4508C12.8594 10.5021 12.8828 10.5529 12.8689 10.5632ZM13.1806 10.1726C13.1711 10.1802 13.1372 10.1566 13.1062 10.1199C13.0742 10.0832 13.0567 10.0479 13.0662 10.0404C13.0757 10.0329 13.1097 10.0564 13.1407 10.0931C13.1726 10.1298 13.1901 10.1651 13.1806 10.1726ZM14.5267 10.1844C14.5187 10.1933 14.4897 10.182 14.4623 10.1599C14.4348 10.1373 14.4193 10.1119 14.4273 10.1034C14.4353 10.0945 14.4643 10.1058 14.4918 10.1279C14.5192 10.1505 14.5347 10.1755 14.5267 10.1844ZM14.6991 10.3463C14.6187 10.3557 14.5697 10.3312 14.5507 10.271C14.5477 10.2597 14.5582 10.2498 14.5702 10.2531L14.7046 10.294C14.7331 10.303 14.7291 10.343 14.6991 10.3463ZM14.9329 10.0418C14.917 10.0399 14.9055 10.0324 14.906 10.0258C14.907 10.0187 14.9205 10.015 14.9364 10.0169C14.9524 10.0187 14.9639 10.0263 14.9634 10.0329C14.9629 10.0399 14.9489 10.0441 14.9329 10.0418ZM16.1291 9.7453L9.55709 9.66953C9.53411 9.66953 9.52112 9.64364 9.53561 9.62717C9.63255 9.5161 9.694 9.44928 9.72148 9.42527C10.0528 9.13631 10.3251 8.8817 10.5374 8.66239C10.5524 8.64686 10.5749 8.6398 10.5969 8.64404C11.2889 8.78946 12.0379 8.90711 12.8474 9.07089C13.8232 9.26808 14.8955 9.46434 16.0632 9.65823C16.0962 9.66388 16.1246 9.678 16.1486 9.70059C16.1661 9.71847 16.1536 9.7453 16.1291 9.7453Z" fill="#F8F7FC"/>
<path d="M7.55487 3.64106C7.62382 3.59305 7.66079 3.56764 7.66579 3.56435C7.70976 3.53187 7.71026 3.46975 7.66729 3.43446C7.63831 3.41092 7.59983 3.40481 7.55137 3.41704C7.39447 3.45516 7.25007 3.47116 7.11666 3.46457C7.08518 3.46316 7.05371 3.46646 7.02373 3.4754C6.39866 3.65612 5.91748 3.80813 5.45979 4.06368C5.07055 4.28111 4.7033 4.52442 4.35703 4.79315C4.16416 4.94281 3.99278 5.1353 3.83039 5.29484C3.69398 5.42897 3.57406 5.56404 3.47063 5.69958C3.00345 6.31516 2.64869 6.98956 2.40685 7.72421C2.37387 7.82492 2.35239 7.91481 2.34239 7.99341C2.3259 8.13318 2.20599 8.34544 2.31741 8.51392C2.36738 8.58969 2.48829 8.57557 2.51777 8.49086L2.64969 8.10777C2.65269 8.09789 2.66368 8.09177 2.67468 8.09318C2.68517 8.09506 2.69366 8.10354 2.69366 8.11436L2.69117 8.44144C2.69067 8.50733 2.76911 8.54734 2.82757 8.51063C2.98197 8.41321 3.0804 7.93364 3.11388 7.77362C3.11788 7.75715 3.12637 7.74256 3.13886 7.7308C3.15635 7.71527 3.16984 7.69691 3.17834 7.67668C3.75395 6.32692 4.60437 5.30613 5.92048 4.62373C6.31171 4.42089 6.65597 4.27029 6.95227 4.17098C7.32052 4.04768 7.54688 3.9672 7.63182 3.93049C7.67729 3.91026 7.68778 3.85331 7.6523 3.8199L7.54938 3.72248C7.5239 3.69895 7.52689 3.65988 7.55487 3.64106ZM4.26809 5.31743C4.01576 5.58615 3.86138 5.76123 3.80292 5.84312C3.62554 6.09208 3.45015 6.36881 3.27627 6.67377C3.27177 6.6813 3.26227 6.68413 3.25428 6.68083L3.24128 6.67519C3.23529 6.67283 3.2333 6.66624 3.23529 6.6606C3.46664 6.13208 3.8064 5.67934 4.2546 5.30284C4.2586 5.30001 4.26359 5.30001 4.26709 5.30284L4.26759 5.30331C4.27109 5.30707 4.27159 5.31319 4.26809 5.31743ZM5.35336 4.43971L4.89117 4.76821C4.88867 4.77009 4.88518 4.76962 4.88368 4.76727L4.87868 4.76115C4.86319 4.74232 4.95263 4.65479 5.07854 4.56537L5.09453 4.5536C5.21995 4.46371 5.33388 4.40677 5.34937 4.42606L5.35436 4.43218C5.35585 4.435 5.35535 4.43783 5.35336 4.43971ZM5.83003 4.42089C5.71361 4.48348 5.61619 4.52772 5.61219 4.52066C5.60769 4.5136 5.69912 4.4576 5.81504 4.39547C5.93146 4.33288 6.0289 4.28864 6.0329 4.2957C6.0369 4.30276 5.94596 4.35876 5.83003 4.42089Z" fill="#F8F7FC"/>
<path d="M15.7526 11.1596L15.6996 11.1432C15.6491 11.1281 15.5957 11.1545 15.5797 11.201L15.4683 11.5244C15.4583 11.554 15.4123 11.5498 15.4083 11.5182C15.4018 11.4613 15.4098 11.3681 15.4328 11.2378C15.4438 11.1747 15.3783 11.1239 15.3144 11.146C15.1875 11.1902 15.1185 11.3328 15.0875 11.4557C14.9306 12.0839 14.6888 12.6402 14.2945 13.1819C14.0012 13.5848 13.8284 13.8126 13.7764 13.8657C13.4516 14.1938 13.1508 14.4573 12.874 14.654C12.3734 15.0098 11.7633 15.3209 11.0428 15.5877C10.8724 15.6508 10.636 15.6955 10.4611 15.7906C10.4042 15.8212 10.4032 15.8984 10.4591 15.9332C10.4951 15.9553 10.5166 15.9854 10.5241 16.0236C10.5276 16.0443 10.5156 16.0645 10.4946 16.0716C10.4352 16.0913 10.4037 16.1158 10.3992 16.1469C10.3942 16.1831 10.4142 16.2118 10.4577 16.2325C10.4951 16.2499 10.5131 16.2772 10.5126 16.3144C10.5121 16.3384 10.5356 16.3568 10.5606 16.3521C11.8252 16.1271 13.0499 15.5656 13.9328 14.6818C14.1726 14.4413 14.43 14.1528 14.7053 13.8163C14.9491 13.5179 15.2299 13.0323 15.3853 12.7348C15.6142 12.2985 15.7686 11.8232 15.8505 11.3084C15.861 11.2429 15.8195 11.1799 15.7526 11.1596ZM13.3037 14.8197C13.1189 14.9882 12.9275 15.1247 12.7296 15.2296C12.7251 15.232 12.7201 15.2305 12.7166 15.2273C12.7141 15.2235 12.7141 15.2183 12.7176 15.215C12.86 15.0818 13.0714 14.8705 13.2388 14.7274C13.5695 14.4441 13.8753 14.1307 14.1552 13.7871C14.1582 13.7829 14.1646 13.7815 14.1696 13.7848L14.1831 13.7928C14.1836 13.7933 14.1836 13.7933 14.1836 13.7937C13.9068 14.1966 13.6135 14.5383 13.3037 14.8197Z" fill="#F8F7FC"/>
<path d="M7.67545 15.958L7.51155 15.9203C7.49407 15.9161 7.49407 15.8925 7.51155 15.8883C7.57651 15.8732 7.63197 15.8252 7.67943 15.7448C7.68443 15.7358 7.68744 15.7264 7.68744 15.7175C7.68844 15.6902 7.66895 15.6638 7.63747 15.6572C6.72559 15.4652 5.89414 15.0849 5.14215 14.5174C4.84085 14.2901 4.61101 14.0938 4.45361 13.9286C3.94146 13.3907 3.53674 12.7723 3.24344 12.0913C3.16899 11.919 3.06706 11.6809 2.93765 11.3774C2.90417 11.2978 2.83972 11.2136 2.75278 11.1703C2.7208 11.1543 2.68183 11.1745 2.67883 11.2084L2.66732 11.3477C2.66582 11.3646 2.64384 11.3731 2.63035 11.3614C2.58338 11.3204 2.55091 11.2752 2.53392 11.2249C2.51793 11.1783 2.46047 11.158 2.4155 11.182L2.36004 11.2126C2.30507 11.2428 2.27759 11.3035 2.29358 11.3614C2.40101 11.7444 2.48895 12.0358 2.5579 12.2353C3.02808 13.5954 4.12984 14.7974 5.42397 15.5099C6.03106 15.8441 6.69061 16.1222 7.38114 16.2596C7.48657 16.2803 7.59899 16.2864 7.71891 16.2766C7.7369 16.2752 7.74989 16.2601 7.74789 16.2427L7.71541 16.0022C7.71441 15.9805 7.69743 15.9627 7.67545 15.958ZM4.15033 14.1112C4.14733 14.1136 4.14284 14.114 4.14034 14.1117C4.12085 14.0962 4.08937 14.0674 4.04539 14.0246C3.73411 13.7197 3.4483 13.3027 3.18698 12.7746C3.05607 12.5106 2.96013 12.2908 2.89917 12.1148C2.89468 12.1026 2.90218 12.0889 2.91517 12.0852L2.91617 12.0847C2.92816 12.0809 2.94064 12.0866 2.94514 12.0974C3.24544 12.8354 3.64767 13.5041 4.15083 14.1023C4.15283 14.1051 4.15283 14.1089 4.15033 14.1112ZM4.53807 14.4774C4.53107 14.4717 4.52758 14.4647 4.52808 14.4562C4.53007 14.4294 4.57353 14.4397 4.57953 14.4548C4.58753 14.4764 4.55855 14.4929 4.53807 14.4774ZM5.05272 14.7875V14.788C5.04822 14.7927 5.04072 14.7936 5.03623 14.7899C4.95978 14.7348 4.89333 14.6746 4.82637 14.6087C4.90282 14.6623 4.97827 14.7146 5.05122 14.772C5.05622 14.7767 5.05722 14.7833 5.05272 14.7875Z" fill="#F8F7FC"/>
<path d="M7.68628 15.7168C7.68581 15.7262 7.68344 15.7352 7.67871 15.7442C7.68344 15.7357 7.68628 15.7262 7.68628 15.7168Z" fill="#F8F7FC"/>
</svg>
