<svg width="11" height="11" viewBox="0 0 11 11" fill="none" xmlns="http://www.w3.org/2000/svg">
<path d="M0.220563 1.35646C-0.0848976 1.03467 -0.0716571 0.526177 0.250137 0.220716C0.571931 -0.084745 1.08042 -0.0715045 1.38588 0.250289L0.803223 0.803375L0.220563 1.35646ZM10.3539 10.0396C10.3423 10.4831 9.97343 10.8333 9.52989 10.8218L2.30205 10.6336C1.85852 10.622 1.50832 10.2531 1.51987 9.80957C1.53142 9.36604 1.90034 9.01584 2.34388 9.02739L8.76862 9.19468L8.93592 2.76994C8.94746 2.3264 9.31638 1.97621 9.75992 1.98776C10.2035 1.99931 10.5537 2.36823 10.5421 2.81176L10.3539 10.0396ZM0.803223 0.803375L1.38588 0.250289L10.1335 9.4656L9.5508 10.0187L8.96815 10.5718L0.220563 1.35646L0.803223 0.803375Z" fill="#D66B7E"/>
</svg>
