<svg width="19" height="19" viewBox="0 0 19 19" fill="none" xmlns="http://www.w3.org/2000/svg">
<path d="M12.8445 0.073262C12.8588 0.101915 12.8859 0.120649 12.915 0.122302C13.6364 0.167485 14.3279 0.310748 14.9903 0.550988C15.0237 0.562559 15.0587 0.543825 15.0705 0.508009L15.0725 0.501398C15.0843 0.465582 15.0691 0.425357 15.0375 0.409378C14.3835 0.0765676 13.6606 -0.0534705 12.8682 0.0198139C12.8455 0.0214669 12.8327 0.0495686 12.844 0.071609L12.8445 0.073262Z" fill="#F8F7FC"/>
<path d="M12.4478 0.204915C12.5995 0.187834 12.7196 0.142651 12.7162 0.105733C12.7127 0.0682641 12.5867 0.0522851 12.4355 0.0699174C12.2838 0.0869988 12.1636 0.132182 12.1671 0.1691C12.17 0.206568 12.2961 0.222547 12.4478 0.204915Z" fill="#F8F7FC"/>
<path d="M16.2117 1.08767C16.2806 1.05461 16.3053 0.945511 16.2668 0.843023C16.2279 0.740535 16.1403 0.684332 16.0713 0.717393C16.0024 0.750453 15.9778 0.859554 16.0162 0.962042C16.0551 1.06398 16.1427 1.12073 16.2117 1.08767ZM16.1334 0.851288C16.1477 0.847431 16.1649 0.866166 16.1713 0.893716C16.1782 0.921267 16.1718 0.947164 16.157 0.951572C16.1427 0.955429 16.1255 0.936695 16.1191 0.909144C16.1127 0.881594 16.1191 0.855696 16.1334 0.851288Z" fill="#F8F7FC"/>
<path d="M4.58542 5.39863C4.12938 5.78544 3.76692 6.12762 3.49754 6.42516C3.2444 6.70507 3.0607 6.92768 2.94694 7.09299C2.82284 7.27372 2.62092 7.60102 2.3407 8.07654C2.29146 8.16085 2.28259 8.21815 2.25747 8.2975C2.24319 8.34213 2.22497 8.38511 2.20084 8.42478C2.11859 8.56639 1.98267 8.74106 1.88762 8.91683C1.56455 9.51027 1.3198 10.1434 1.15235 10.8156C1.077 11.1187 1.04794 11.3881 0.98343 11.6917C0.815987 12.4835 0.974071 13.4164 1.17944 14.1614C1.29861 14.595 1.50299 15.1212 1.80242 15.4425C1.87088 15.5163 2.03044 15.6623 2.28062 15.88C2.51257 16.0822 2.68051 16.2056 2.78393 16.2508C3.02771 16.3566 3.26952 16.518 3.56254 16.6189C3.82651 16.7098 4.11707 16.7423 4.34017 16.7913C4.5081 16.8282 4.64353 16.8508 4.74745 16.8597C5.72699 16.9423 6.68535 16.8398 7.58511 16.5875C8.13078 16.4348 8.70501 16.2216 9.30681 15.9488C9.48558 15.8678 9.70622 15.745 9.96723 15.5808C10.0825 15.508 10.1834 15.4177 10.2706 15.3086C10.2819 15.2948 10.2785 15.2733 10.2642 15.2639C10.2149 15.2314 10.1632 15.2116 10.0977 15.2358C10.0022 15.2716 9.884 15.308 9.74315 15.3444C9.68356 15.3598 9.62545 15.3824 9.57029 15.4121C9.32257 15.5455 9.1049 15.6788 8.82123 15.7626C8.49176 15.8596 8.15835 15.9632 7.8215 16.0739C7.75156 16.0971 7.66686 16.1141 7.56935 16.1263C7.55211 16.1285 7.53488 16.1174 7.52798 16.0993L7.47725 15.9681C7.46937 15.9466 7.44968 15.9345 7.42949 15.9367C7.17931 15.967 6.96902 16.015 6.74199 16.0948C6.60311 16.1439 6.43763 16.1758 6.24606 16.1896C5.70138 16.2304 5.21973 16.2139 4.80113 16.1389C4.69081 16.1191 4.60315 16.0971 4.53814 16.0728C4.3249 15.9935 4.09836 15.9637 3.88758 15.8789C3.54924 15.7433 3.21534 15.5262 2.88686 15.2292C2.49583 14.8755 2.21167 14.482 2.03487 14.0478C1.7773 13.4169 1.71181 12.6207 1.78321 11.9595C1.8428 11.4046 2.02502 10.6487 2.30968 10.0855C2.47417 9.76043 2.62782 9.37913 2.79969 9.08544C3.009 8.72839 3.25523 8.38676 3.53644 8.06111C4.12544 7.38061 4.75631 6.78387 5.42953 6.27033C5.58417 6.15241 5.86439 5.94964 6.27117 5.66367C6.5051 5.49891 6.71637 5.37328 6.90499 5.28788C7.1079 5.19476 7.2256 5.14076 7.25712 5.12588C7.76782 4.88619 8.07463 4.74789 8.17756 4.71097C8.56317 4.57211 9.12361 4.43767 9.85888 4.30597C10.2996 4.22773 10.7705 4.21451 11.2723 4.26795C11.7293 4.31699 12.1346 4.46081 12.4877 4.7005C12.7699 4.89225 13.0152 5.20412 13.223 5.63501C13.2535 5.69948 13.2481 5.8714 13.2806 5.96562C13.3072 6.04386 13.3235 6.1739 13.3304 6.35463C13.3471 6.82795 13.2757 7.23956 13.1147 7.58835C12.9753 7.8914 12.8197 8.23193 12.6276 8.49145C12.4277 8.762 12.1849 9.07057 11.8982 9.41715C11.4516 9.9599 10.9827 10.3181 10.3834 10.6735C10.1071 10.8377 9.77959 10.9826 9.40235 11.1088C9.03299 11.2322 8.63556 11.3402 8.26374 11.3754C7.96037 11.4041 7.46593 11.3727 7.21427 11.1242C7.01679 10.9291 6.87643 10.6448 6.89958 10.3384C6.95129 9.65629 7.30538 9.12016 7.79491 8.73004C7.8151 8.71406 7.84021 8.73996 7.82741 8.76365C7.69345 9.01381 7.53389 9.32403 7.54029 9.60615C7.54916 10.0073 7.73531 10.269 8.10024 10.3908C8.26867 10.447 8.42823 10.4657 8.58041 10.447C9.00936 10.3935 9.41072 10.2508 9.78452 10.0194C10.6513 9.48162 11.3915 8.80388 11.7136 7.79663C11.8298 7.43461 11.8515 7.05276 11.7781 6.65108C11.5579 5.44106 10.3666 5.16114 9.42993 5.31543C8.90988 5.40083 8.39671 5.56999 7.89192 5.82236C6.97838 6.27914 6.16775 6.89187 5.45908 7.65998C4.77108 8.4066 4.26974 9.25681 3.95554 10.2112C3.75017 10.8355 3.66498 11.3776 3.69896 11.8361C3.74082 12.3926 3.92254 12.9039 4.24512 13.3701C4.43521 13.6445 4.63171 13.8478 4.83609 13.9801C5.12321 14.1652 5.59697 14.3757 5.96042 14.4622C6.26576 14.536 6.45782 14.5939 6.53613 14.6363C6.5445 14.6413 6.55337 14.644 6.56272 14.6451L7.92196 14.8248C7.98549 14.8336 8.04952 14.8347 8.11305 14.8297C8.91332 14.7603 9.68208 14.573 10.4193 14.2688C11.5663 13.7949 12.6246 13.1635 13.5589 12.2653C14.2168 11.6333 14.8305 10.9258 15.3998 10.145C15.8366 9.54554 16.1631 8.99177 16.3798 8.48374C16.7526 7.60873 16.9993 6.73869 17.119 5.87415C17.2579 4.86911 17.0712 3.94782 16.5586 3.11138C16.2055 2.53503 15.7504 2.09587 15.1914 1.79336C14.9078 1.63963 14.6507 1.57076 14.3715 1.45064C13.7938 1.20158 13.2604 1.12168 12.5641 1.09744C11.977 1.07705 11.454 1.12168 10.995 1.23299C10.3691 1.38452 9.91158 1.50794 9.62249 1.60437C9.01527 1.80604 8.33269 2.10303 7.78703 2.48378C7.74763 2.51133 7.74172 2.57415 7.77521 2.60996C7.88897 2.73119 8.21991 2.6017 8.378 2.54164C8.74145 2.40223 9.11228 2.2744 9.491 2.15814C9.50873 2.15207 9.52843 2.15593 9.54468 2.16695C9.59393 2.20166 9.63087 2.21764 9.69735 2.20111C10.6562 1.95977 11.6141 1.80273 12.5798 1.84351C13.0142 1.86169 13.4116 1.93277 13.7706 2.0562C14.7384 2.38791 15.6056 3.07116 15.9489 4.15004C16.2439 5.07849 16.2197 6.03174 15.876 7.00978C15.6642 7.61259 15.484 8.05891 15.3338 8.34984C15.2515 8.50964 15.1417 8.70029 15.0053 8.92289C14.8526 9.1703 14.7315 9.35268 14.6418 9.46895C14.1316 10.1313 13.5835 10.7137 12.996 11.2162C12.3361 11.781 11.7072 12.2444 10.9315 12.6312C10.4523 12.8703 9.9362 13.0847 9.38266 13.2753C8.52328 13.5712 7.67031 13.6864 6.82472 13.6214C6.708 13.6125 6.63906 13.6054 6.61739 13.5999C6.44305 13.5574 6.26428 13.5486 6.1057 13.4858C5.6541 13.3095 5.235 13.0092 4.99369 12.5502C4.87992 12.3325 4.80704 12.1788 4.77601 12.0912C4.61448 11.6306 4.68441 11.041 4.81787 10.5704C4.96216 10.0618 5.2089 9.53176 5.55856 8.98075C5.57924 8.94879 5.56102 8.90416 5.52655 8.8992L5.51079 8.897C5.464 8.89038 5.41721 8.91353 5.38964 8.95596C5.16654 9.29648 4.98383 9.61937 4.84249 9.92463C4.78093 10.0574 4.7371 10.1775 4.71198 10.2828C4.68884 10.3814 4.65043 10.5037 4.59675 10.6503C4.43275 11.0999 4.42783 11.5777 4.53273 12.0367C4.55341 12.1276 4.61005 12.3094 4.70362 12.5822C4.70706 12.5926 4.71198 12.6025 4.71789 12.6125L4.79866 12.7436C4.80014 12.7458 4.80014 12.7497 4.79915 12.7524L4.79275 12.7667C4.7898 12.7739 4.78094 12.7745 4.777 12.7684C4.3835 12.2042 4.32441 11.6256 4.36627 10.9054C4.40715 10.2034 4.71937 9.59678 5.13749 9.01161C5.63588 8.31458 6.17169 7.76798 6.74494 7.3718C7.02614 7.17784 7.3236 6.9938 7.6378 6.82134C8.15146 6.53867 8.68087 6.35078 9.22703 6.2571C9.55946 6.20035 9.86972 6.22074 10.1573 6.31716C10.1682 6.32102 10.179 6.32598 10.1888 6.33204L10.5035 6.51663C10.5257 6.5304 10.5469 6.54638 10.5651 6.56567C10.8596 6.87038 10.9064 7.24011 10.8 7.66934C10.671 8.18895 10.378 8.58402 9.92241 8.85622C9.90321 8.86724 9.8835 8.84245 9.89582 8.82261C9.95738 8.72508 9.99382 8.61212 10.0047 8.48153C10.0441 8.00491 9.90862 7.69524 9.59787 7.55198C9.22703 7.38061 8.69762 7.47208 8.31102 7.64785C8.03622 7.77293 7.83381 7.88644 7.70527 7.98838C7.43736 8.20162 7.18325 8.43249 6.9439 8.681C6.53613 9.10528 6.2564 9.65188 6.10472 10.3219C6.05448 10.5445 6.04365 10.7412 6.0727 10.9126C6.29235 12.2268 7.31917 12.5364 8.35486 12.3695C8.87294 12.2863 9.42402 12.1055 10.0071 11.8284C10.2159 11.7286 10.5902 11.538 10.8621 11.3661C11.4333 11.0052 11.9524 10.5737 12.4183 10.0729C12.6823 9.78908 12.8699 9.57529 12.9812 9.43313C13.3816 8.92014 13.7002 8.35701 13.9361 7.74318C14.173 7.12715 14.3099 6.29512 14.1198 5.66201C13.683 4.20514 12.5463 3.43483 11.228 3.32628C10.7818 3.28991 10.4558 3.24252 10.1243 3.25905C9.24821 3.30313 8.41592 3.46899 7.62648 3.75607C7.57723 3.7737 7.33345 3.86737 6.89515 4.03708C6.60803 4.14838 6.36918 4.25473 6.17859 4.35722C5.52802 4.70105 4.99713 5.04874 4.58542 5.39863ZM10.1179 15.3019C10.1608 15.281 10.2007 15.276 10.2066 15.2915C10.2125 15.3069 10.1824 15.3361 10.1396 15.357C10.0968 15.378 10.0569 15.3829 10.0509 15.3675C10.045 15.3521 10.0751 15.3229 10.1179 15.3019ZM7.29159 16.2651C7.29701 16.2469 7.3172 16.2387 7.33739 16.2458C7.35758 16.253 7.36891 16.2734 7.36399 16.2916C7.35857 16.3097 7.33838 16.318 7.31818 16.3108C7.29849 16.3037 7.28666 16.2833 7.29159 16.2651ZM6.92617 16.2243C6.94636 16.2205 6.96557 16.2321 6.96853 16.2508C6.97197 16.2695 6.95769 16.2877 6.93701 16.2921C6.91681 16.296 6.89761 16.2844 6.89465 16.2657C6.8917 16.2464 6.90598 16.2282 6.92617 16.2243ZM6.577 16.275C6.59473 16.275 6.60951 16.2855 6.60951 16.2993C6.60951 16.313 6.59474 16.3235 6.57651 16.3235C6.55879 16.3235 6.54401 16.313 6.54401 16.2993C6.5445 16.2855 6.55927 16.275 6.577 16.275ZM3.99247 16.2888C3.99297 16.2833 3.99789 16.2794 4.00233 16.2805L5.41672 16.4778C5.42214 16.4784 5.4251 16.4833 5.42461 16.4888L5.42362 16.4987C5.41919 16.5384 5.09711 16.5252 4.70411 16.4712L4.69475 16.4695C4.30224 16.415 3.98706 16.3389 3.99149 16.2993L3.99247 16.2888ZM2.78443 15.7494C2.93907 15.8833 3.07794 15.9946 3.20106 16.0827C3.32418 16.1714 3.47242 16.2668 3.64479 16.3682C3.65759 16.3753 3.65168 16.3963 3.63789 16.3951C3.4542 16.3759 3.28577 16.3114 3.1331 16.2012C2.97945 16.091 2.85731 15.9461 2.76522 15.7681C2.75833 15.7543 2.7731 15.74 2.78443 15.7494ZM1.26316 12.8202H1.2602C1.24395 12.8213 1.23016 12.8075 1.22918 12.7893L1.2085 12.3981C1.20751 12.3799 1.21982 12.3645 1.23607 12.3634H1.23903C1.25528 12.3623 1.26907 12.3761 1.27006 12.3943L1.29074 12.7855C1.29172 12.8037 1.27941 12.8185 1.26316 12.8202ZM1.33014 11.646C1.30502 11.8185 1.273 11.9557 1.25823 11.9535C1.24395 11.9507 1.25281 11.8091 1.27793 11.6366C1.30305 11.4642 1.33506 11.327 1.34984 11.3292C1.36412 11.3319 1.35525 11.4735 1.33014 11.646ZM1.49167 12.8075C1.5094 12.8064 1.53107 12.964 1.53993 13.1602C1.5488 13.3558 1.54239 13.515 1.52466 13.5161C1.50693 13.5172 1.48527 13.3596 1.4764 13.1635C1.46754 12.9684 1.47394 12.8086 1.49167 12.8075ZM1.78174 15.2121C1.77484 15.2187 1.7512 15.2033 1.72904 15.1752C1.70737 15.1477 1.69506 15.1196 1.70245 15.1124C1.70934 15.1058 1.73298 15.1212 1.75515 15.1493C1.77682 15.1769 1.78912 15.205 1.78174 15.2121ZM2.44609 15.3212C2.50272 15.4072 2.54459 15.4805 2.53917 15.4849C2.53375 15.4898 2.48352 15.4232 2.42689 15.3372C2.37025 15.2513 2.32839 15.178 2.33381 15.1736C2.33972 15.1686 2.38945 15.2353 2.44609 15.3212ZM2.24172 15.0237C2.24516 15.0209 2.25747 15.0336 2.26781 15.0518C2.27815 15.0705 2.28358 15.0876 2.27964 15.0904C2.27619 15.0931 2.26388 15.0804 2.25353 15.0623C2.24319 15.0435 2.23827 15.0264 2.24172 15.0237ZM1.9413 14.7807C1.94869 14.7735 1.96642 14.7829 1.98218 14.8022C1.99794 14.8209 2.00384 14.843 1.99695 14.8501C1.98956 14.8573 1.97183 14.8479 1.95608 14.8286C1.94081 14.8093 1.9344 14.7873 1.9413 14.7807ZM1.8822 14.8121C1.89008 14.827 1.8955 14.8424 1.89895 14.8584C1.94179 15.0551 2.03143 15.2524 2.16883 15.4491C2.17375 15.4557 2.17326 15.4645 2.16784 15.4711C2.16292 15.4772 2.15504 15.4783 2.14864 15.4733C1.79208 15.2088 1.56948 14.5867 1.49314 14.1553C1.49068 14.1393 1.50939 14.131 1.51678 14.1448L1.8822 14.8121ZM2.30524 8.70745L1.80094 9.62433C1.797 9.63205 1.78863 9.6337 1.78223 9.62929L1.76696 9.61882C1.76056 9.61386 1.75859 9.60449 1.76253 9.59788L2.26683 8.681C2.27077 8.67329 2.27914 8.67163 2.28555 8.67604L2.30081 8.68651C2.30721 8.69092 2.30918 8.70029 2.30524 8.70745ZM4.03926 12.2885L4.02695 12.2912L3.93338 11.7667L3.9452 11.7645C3.95849 11.7617 3.98903 11.8725 4.01365 12.0124L4.0166 12.0306C4.04221 12.1706 4.05157 12.2863 4.03926 12.2885ZM4.08506 12.478C4.0762 12.4808 4.06635 12.4758 4.0629 12.4659C4.05601 12.4472 4.05157 12.4235 4.0501 12.3959C4.0496 12.3816 4.06635 12.3755 4.07324 12.3877C4.09048 12.4191 4.09984 12.4411 4.10033 12.456C4.10082 12.4664 4.09442 12.4758 4.08506 12.478ZM13.3648 1.62365C13.3624 1.63688 13.3511 1.64569 13.3397 1.64459C12.4744 1.56745 11.6037 1.59776 10.7281 1.73771C10.6562 1.74873 10.4183 1.7873 10.0145 1.85177C10.0027 1.85342 9.99431 1.83855 10.0012 1.82808C10.0175 1.80218 10.0441 1.784 10.0805 1.77298C10.476 1.65947 10.9665 1.59941 11.4186 1.50408C11.5343 1.47984 11.6742 1.46276 11.8382 1.45339C12.3705 1.42143 12.896 1.3757 13.351 1.5928C13.3624 1.59776 13.3678 1.61043 13.3648 1.62365ZM16.6507 6.47365C16.7408 6.14855 16.7915 5.7105 16.8018 5.15894C16.8082 4.84541 16.7807 4.61564 16.7201 4.47128C16.6763 4.36714 16.6644 4.16106 16.6817 4.08392C16.6881 4.05416 16.7255 4.05582 16.7309 4.08502C16.7472 4.182 16.7812 4.34785 16.8319 4.58313C16.9373 5.07408 16.9506 5.5733 16.8304 6.03339C16.824 6.05654 16.8211 6.08078 16.8206 6.10447C16.8186 6.23396 16.79 6.36896 16.7349 6.50947C16.7255 6.53261 16.7024 6.54363 16.6807 6.53536L16.6787 6.53481C16.6556 6.52655 16.6438 6.499 16.6507 6.47365ZM16.5709 5.01017C16.5714 4.97049 16.5783 4.93413 16.5925 4.90162C16.598 4.88839 16.6147 4.89225 16.6162 4.90658C16.6383 5.14131 16.6329 5.39808 16.6009 5.67634C16.5689 5.9546 16.5152 6.20421 16.4404 6.42461C16.4354 6.43839 16.4187 6.43673 16.4162 6.42296C16.4103 6.38714 16.4113 6.34967 16.4207 6.31165C16.4694 6.09731 16.5064 5.88242 16.531 5.66642C16.5561 5.44987 16.5694 5.23112 16.5709 5.01017ZM16.4054 4.93688C16.4034 4.83605 16.4118 4.75395 16.4236 4.75339C16.4359 4.75339 16.4473 4.83494 16.4497 4.93578C16.4517 5.03661 16.4433 5.11872 16.4315 5.11927C16.4187 5.11927 16.4074 5.03772 16.4054 4.93688ZM15.5199 2.70419C15.3953 2.63586 15.3234 2.49039 15.1939 2.38625C14.9546 2.1934 14.7073 2.03912 14.4537 1.92506C14.4365 1.91734 14.4271 1.90467 14.4261 1.88538C14.4247 1.86279 14.4409 1.84406 14.4621 1.84351C14.8245 1.8413 15.3466 2.29919 15.5948 2.58902C15.645 2.64743 15.5844 2.74 15.5199 2.70419ZM15.7455 2.94388C15.711 2.89263 15.6893 2.83918 15.6795 2.78574C15.6706 2.73394 15.7233 2.69647 15.7608 2.72843C15.8592 2.81163 15.939 2.90861 15.9991 3.01771C16.1582 3.30589 16.3369 3.64366 16.3714 3.9638C16.3759 4.00402 16.3931 4.04094 16.4207 4.06849C16.494 4.14012 16.5182 4.25363 16.494 4.40901C16.4891 4.43932 16.4517 4.44097 16.4443 4.41177L16.366 4.0988C16.365 4.09439 16.3635 4.09053 16.3611 4.08612C16.3133 3.9952 16.2586 3.86957 16.1976 3.70813C16.0912 3.42546 15.9243 3.21332 15.7455 2.94388ZM16.5738 7.48861L16.5827 7.49357C16.6039 7.50404 16.499 7.80379 16.3488 8.1625L16.3399 8.18399C16.1897 8.54215 16.0513 8.82371 16.0301 8.81324L16.0213 8.80828L16.5738 7.48861ZM15.6504 8.38676L16.0493 7.40155C16.0548 7.38778 16.0686 7.38061 16.0814 7.38447L16.0823 7.38502C16.0981 7.38998 16.1065 7.40817 16.1015 7.42525L15.9691 7.85283C15.9651 7.86385 15.9607 7.87432 15.9548 7.88369C15.9223 7.93273 15.8563 8.05836 15.7573 8.25948C15.7184 8.33772 15.6879 8.38566 15.6647 8.40164C15.6568 8.4077 15.6465 8.39778 15.6504 8.38676ZM14.7004 10.2448L15.643 8.86449C15.644 8.86283 15.646 8.86283 15.6475 8.86394C15.649 8.86504 15.6494 8.86669 15.6485 8.86889C15.4037 9.32678 15.2417 9.62047 15.1619 9.74886C15.057 9.91967 14.9102 10.0938 14.7231 10.2718C14.7206 10.274 14.7172 10.274 14.7147 10.2718L14.7029 10.2624C14.6975 10.258 14.6965 10.2497 14.7004 10.2448ZM13.2974 11.6526C13.319 11.6025 13.3442 11.5777 13.3737 11.5782C13.4092 11.5799 13.4185 11.6008 13.4013 11.6399C13.3964 11.6526 13.3698 11.6664 13.321 11.6829C13.3048 11.6884 13.29 11.6697 13.2974 11.6526ZM8.9936 13.7365C9.00246 13.7338 9.30927 13.6296 9.91355 13.4252C10.146 13.347 10.3164 13.2665 10.4233 13.1844C10.4277 13.1811 10.4326 13.1822 10.4361 13.1861L10.4444 13.1982C10.4459 13.2009 10.4459 13.2053 10.4435 13.2076C10.2942 13.3414 10.1199 13.4698 9.95492 13.4572C9.92931 13.4555 9.90321 13.4594 9.87907 13.4698C9.70129 13.5426 9.52892 13.6054 9.36148 13.6594C9.1768 13.7183 9.05466 13.7486 8.99655 13.7497C8.9936 13.7497 8.99064 13.7475 8.99015 13.7437C8.98916 13.7409 8.99064 13.7376 8.9936 13.7365ZM9.14774 13.9531C9.25018 13.936 9.33538 13.9294 9.33636 13.9393C9.33735 13.9492 9.2551 13.9707 9.15267 13.9883C9.05023 14.0054 8.96504 14.012 8.96405 14.0021C8.96257 13.9922 9.04482 13.9707 9.14774 13.9531ZM8.27803 13.9426C8.3061 13.9398 8.33023 13.9558 8.3317 13.9779C8.33367 13.9999 8.31201 14.0203 8.28344 14.0225C8.25537 14.0253 8.23124 14.0093 8.22976 13.9872C8.22829 13.9652 8.24995 13.9448 8.27803 13.9426ZM6.87397 13.8958C6.8912 13.8914 6.90746 13.9013 6.91041 13.9173C6.91337 13.9332 6.90204 13.9498 6.88529 13.9536C6.86806 13.958 6.85181 13.9481 6.84885 13.9321C6.8459 13.9162 6.85673 13.8996 6.87397 13.8958ZM6.82866 14.422C7.06949 14.4209 7.32163 14.4622 7.52897 14.4688C8.23321 14.4909 8.90495 14.3944 9.54419 14.1812C9.89582 14.0633 10.3848 13.8528 10.6853 13.6798C10.9709 13.5167 11.2329 13.3894 11.5057 13.2197C12.3843 12.6725 13.2146 12.0554 13.9962 11.3677C14.0789 11.295 14.1725 11.2234 14.2774 11.1528C14.3793 11.0845 14.4665 10.9936 14.5374 10.8795C14.5507 10.8586 14.5758 10.8415 14.6133 10.8277C14.6241 10.8233 14.633 10.8382 14.6251 10.8476C14.3262 11.2002 13.978 11.5716 13.583 11.9623C13.2885 12.2527 13.0043 12.494 12.7305 12.6857C12.3375 12.9613 12.0312 13.1673 11.813 13.3045C10.9394 13.8511 10.0194 14.1751 8.96651 14.4721C8.26227 14.671 7.54817 14.6705 6.82373 14.4705C6.8129 14.4677 6.80601 14.4556 6.80699 14.4435C6.80798 14.4313 6.81783 14.422 6.82866 14.422ZM5.35714 13.7327C5.34532 13.7503 5.30789 13.7415 5.27341 13.7128C5.23894 13.6842 5.22121 13.6467 5.23303 13.6285C5.24485 13.6109 5.28228 13.6197 5.31675 13.6484C5.35073 13.677 5.36896 13.715 5.35714 13.7327ZM5.60436 13.8346C5.59697 13.8528 5.56643 13.855 5.53639 13.8396C5.50586 13.8241 5.48764 13.7966 5.49503 13.779C5.50241 13.7608 5.53295 13.7586 5.56299 13.774C5.59352 13.7894 5.61174 13.8164 5.60436 13.8346ZM6.52529 14.3432C6.54105 14.3421 6.55435 14.3509 6.55484 14.363C6.55534 14.3751 6.54351 14.3856 6.52775 14.3867C6.51199 14.3878 6.4987 14.379 6.49821 14.3669C6.49722 14.3548 6.50954 14.3443 6.52529 14.3432ZM6.30072 14.152C6.30762 14.131 6.32337 14.1184 6.33667 14.1239C6.34997 14.1294 6.3549 14.1503 6.3485 14.1713C6.3416 14.1922 6.32584 14.2049 6.31254 14.1994C6.29924 14.1944 6.29383 14.1729 6.30072 14.152ZM4.94542 12.867C4.95034 12.8637 4.95626 12.8643 4.96069 12.8687C5.28671 13.2522 5.67232 13.5233 6.11752 13.6809C6.15889 13.6958 6.19238 13.7189 6.21848 13.7497C6.24261 13.7784 6.21553 13.8241 6.18204 13.8104C5.94072 13.7106 5.6807 13.5751 5.40048 13.4021C5.20201 13.2797 5.04441 13.0808 4.94247 12.8836C4.93902 12.8786 4.94099 12.8714 4.94542 12.867ZM4.45639 12.7188L4.45836 12.7177C4.47067 12.7094 4.48594 12.7138 4.49333 12.7271L4.65141 13.0202C4.65831 13.0334 4.65486 13.0511 4.64304 13.0593L4.64107 13.0604C4.62876 13.0687 4.61349 13.0643 4.60611 13.0511L4.44802 12.7579C4.44063 12.7447 4.44408 12.7265 4.45639 12.7188ZM4.37612 12.3695C4.38597 12.3998 4.38695 12.4279 4.3776 12.4317C4.36824 12.4356 4.35248 12.4141 4.34263 12.3832C4.33278 12.3529 4.33229 12.3248 4.34115 12.321C4.35051 12.3171 4.36627 12.3381 4.37612 12.3695ZM9.06008 5.75844C9.02413 5.78875 8.98719 5.80968 8.94878 5.82346C8.73258 5.8995 8.51836 5.97829 8.3061 6.06039C8.13373 6.12651 7.92935 6.23121 7.69345 6.37392C7.18817 6.67973 6.93258 6.83401 6.92716 6.83677C6.70801 6.96185 6.54647 7.06764 6.44157 7.15305C6.4396 7.1547 6.43616 7.15525 6.43419 7.1547C6.43173 7.15415 6.43172 7.1525 6.4332 7.15029C6.43468 7.14864 6.43566 7.14699 6.43566 7.14478C6.43517 7.14203 6.43615 7.13927 6.43763 7.13817C6.92863 6.72546 7.45066 6.37888 8.00421 6.09952C8.36175 5.91878 8.6661 5.84605 9.04531 5.72703C9.06303 5.72207 9.07436 5.74687 9.06008 5.75844ZM10.6247 6.32323C10.5951 6.29457 10.5612 6.27088 10.5242 6.25435L10.1169 6.06921C10.0608 6.04331 10.0007 6.02954 9.94063 6.02788L9.41565 6.01245C9.40974 6.0119 9.40531 6.00639 9.4058 6.00033V5.9805C9.4063 5.97003 9.41319 5.96121 9.42205 5.95956C9.91453 5.8747 10.4036 5.89123 10.8493 6.14525C10.9069 6.17776 10.9734 6.26096 11.0492 6.3943C11.2644 6.77285 11.3585 7.34425 11.1315 7.74924C11.1196 7.77018 11.1053 7.78451 11.0891 7.79222C11.0738 7.79938 11.0581 7.78451 11.061 7.76632C11.092 7.59882 11.1118 7.46547 11.1186 7.36684C11.127 7.24617 11.1053 7.11668 11.0536 6.97672C10.9615 6.72656 10.8182 6.50947 10.6247 6.32323ZM11.0896 8.24129C11.0896 8.24074 11.0901 8.24074 11.0906 8.24129L11.092 8.2424C11.1167 8.26444 11.0502 8.40329 10.9438 8.55261L10.935 8.56529C10.8286 8.71461 10.7217 8.8182 10.6971 8.79561L10.6961 8.79506C10.6956 8.79451 10.6956 8.79396 10.6956 8.79341L11.0896 8.24129ZM8.42085 9.73398C8.39524 9.75878 8.3647 9.76484 8.35239 9.74941C8.33959 9.73343 8.35042 9.70037 8.37603 9.67612C8.40164 9.65133 8.43217 9.64527 8.44448 9.6607C8.45729 9.67668 8.44645 9.70974 8.42085 9.73398ZM8.87245 9.72572C8.83995 9.78082 8.80104 9.81718 8.78675 9.80616C8.77247 9.7957 8.78725 9.7417 8.81975 9.68604C8.85226 9.63094 8.89116 9.59457 8.90544 9.6056C8.91972 9.61662 8.90495 9.67006 8.87245 9.72572ZM9.19748 9.55766C9.19158 9.56207 9.18025 9.55545 9.17237 9.54278C9.164 9.52956 9.16252 9.51523 9.16892 9.51082C9.17483 9.50641 9.18616 9.51303 9.19403 9.5257C9.20191 9.53948 9.20389 9.55325 9.19748 9.55766ZM9.77368 9.43754L10.2356 9.15818C10.2371 9.15707 10.2401 9.15762 10.241 9.15983L10.246 9.16975C10.2578 9.19289 10.1652 9.27279 10.0406 9.34883L10.0239 9.35874C9.89878 9.43423 9.78846 9.47666 9.77763 9.45297L9.7727 9.4436C9.77122 9.44195 9.77171 9.43864 9.77368 9.43754ZM9.53533 7.92556C9.53976 7.9195 9.55847 7.92722 9.57768 7.94265C9.59688 7.95807 9.6092 7.97626 9.60526 7.98287C9.60083 7.98893 9.58211 7.98122 9.5629 7.96579C9.54369 7.95036 9.53139 7.93163 9.53533 7.92556ZM9.45604 8.11952C9.48706 8.11346 9.51464 8.12668 9.51809 8.14817C9.52154 8.16966 9.49888 8.1917 9.46786 8.19776C9.43683 8.20382 9.40925 8.1906 9.4058 8.16911C9.40236 8.14707 9.42501 8.12558 9.45604 8.11952ZM9.38512 9.38574C9.39989 9.3626 9.42205 9.35213 9.43486 9.3626C9.44766 9.37307 9.44569 9.39952 9.43092 9.42266C9.41615 9.4458 9.39398 9.45627 9.38118 9.4458C9.36837 9.43533 9.37034 9.40889 9.38512 9.38574ZM9.32799 9.54499C9.33686 9.56041 9.32405 9.58741 9.29893 9.60449C9.27431 9.62213 9.24722 9.62378 9.23836 9.60835C9.22949 9.59292 9.2423 9.56592 9.26692 9.54884C9.29253 9.53121 9.31913 9.52901 9.32799 9.54499ZM9.26889 8.77467L9.28466 8.80663C9.2886 8.81379 9.28563 8.82316 9.27923 8.82757L8.57203 9.26066C8.56563 9.26507 8.55726 9.26177 8.55332 9.2546L8.53756 9.22264C8.53362 9.21548 8.53658 9.20611 8.54298 9.2017L9.25018 8.76861C9.25658 8.7642 9.26495 8.76696 9.26889 8.77467ZM9.23639 8.17793C9.24821 8.19225 9.22063 8.24074 9.17483 8.28703C9.12903 8.33276 9.08323 8.35866 9.0719 8.34433C9.06008 8.33001 9.08766 8.28152 9.13346 8.23523C9.17877 8.1895 9.22506 8.16305 9.23639 8.17793ZM9.03251 7.9184L9.05023 7.90297C9.05959 7.89526 9.07289 7.89691 9.07978 7.90793L9.13051 7.98342C9.1374 7.99389 9.13543 8.00877 9.12607 8.01648L9.10736 8.03191C8.95518 8.15864 8.81827 8.24074 8.80153 8.2154L8.78823 8.19556C8.771 8.16911 8.88033 8.04513 9.03251 7.9184ZM8.607 7.95697C8.67595 7.90077 8.74342 7.87267 8.75819 7.89526C8.77297 7.9173 8.72914 7.98177 8.66019 8.03797C8.59124 8.09417 8.52378 8.12228 8.509 8.09968C8.49423 8.07764 8.53806 8.01318 8.607 7.95697ZM8.86457 8.56474C8.87984 8.55261 8.90101 8.55813 8.90939 8.57741C8.91431 8.58788 8.91037 8.60827 8.89953 8.63747C8.89362 8.654 8.88033 8.66557 8.86506 8.66998C8.78233 8.69202 8.72372 8.72233 8.68826 8.7631C8.54544 8.92785 8.45729 9.02428 8.42478 9.05183C8.41641 9.05899 8.4041 9.05844 8.39671 9.05018C8.38883 9.04191 8.38785 9.02814 8.39425 9.01877C8.51934 8.82757 8.65871 8.73114 8.86457 8.56474ZM8.36963 8.26554C8.4105 8.25397 8.44892 8.2705 8.4568 8.30356C8.46418 8.33662 8.43759 8.37188 8.39671 8.38345C8.35584 8.39503 8.31742 8.37849 8.30954 8.34543C8.30216 8.31237 8.32875 8.27711 8.36963 8.26554ZM8.03179 9.46288C8.05542 9.43864 8.08744 9.43478 8.1032 9.45407C8.11896 9.47335 8.11255 9.50807 8.08842 9.53286C8.06478 9.55711 8.03277 9.56097 8.01701 9.54168C8.00175 9.52184 8.00815 9.48713 8.03179 9.46288ZM7.90078 11.5661C7.93378 11.5639 7.96136 11.5705 7.96185 11.5821C7.96234 11.5936 7.93625 11.6047 7.90325 11.6074C7.87025 11.6096 7.84267 11.603 7.84169 11.5914C7.8412 11.5804 7.86779 11.5694 7.90078 11.5661ZM6.81832 11.2201C6.90943 11.3352 6.9705 11.4013 7.00103 11.4173C7.07638 11.4575 7.16601 11.5082 7.26894 11.5688C7.27534 11.5727 7.27731 11.5826 7.27337 11.5887L7.26106 11.608C7.26056 11.6085 7.26008 11.6091 7.25958 11.6085C7.1601 11.554 7.03255 11.4713 6.87693 11.3606C6.83112 11.3275 6.80453 11.284 6.79764 11.23C6.79616 11.2179 6.81044 11.2101 6.81832 11.2201ZM6.48344 10.3825C6.46226 10.3814 6.44798 10.2894 6.45142 10.1764C6.45487 10.0635 6.47506 9.97257 6.49673 9.97312C6.5179 9.97422 6.53219 10.0662 6.52874 10.1792C6.5248 10.2922 6.50461 10.3831 6.48344 10.3825ZM8.16623 12.1369C7.5398 12.2091 6.82078 12.0102 6.50559 11.3396C6.49624 11.3198 6.50264 11.295 6.52037 11.2829L6.52184 11.2818C6.53859 11.2713 6.56026 11.2768 6.57011 11.2961C6.66024 11.4708 6.75331 11.5914 6.84934 11.657C7.1537 11.8653 7.49055 11.9942 7.85843 12.0438C8.00765 12.0637 8.11058 12.0802 8.1682 12.0934C8.17756 12.0956 8.18495 12.105 8.18445 12.1166C8.18396 12.127 8.17657 12.1358 8.16623 12.1369ZM8.67742 11.949L8.51589 11.9683C8.49471 11.9705 8.47649 11.954 8.47403 11.9309L8.47354 11.9276C8.47157 11.9039 8.48634 11.8835 8.50703 11.8807L8.66856 11.8614C8.68974 11.8592 8.70796 11.8758 8.71042 11.8995L8.71092 11.9028C8.71289 11.9259 8.69811 11.9463 8.67742 11.949ZM10.373 10.9561L10.3395 11.0707C10.3371 11.079 10.3326 11.0867 10.3267 11.0922C10.2494 11.1611 10.1096 11.2333 9.90764 11.3082C9.76629 11.3606 9.53434 11.4316 9.21324 11.522C9.19945 11.5253 9.18517 11.5171 9.18074 11.5022L9.18025 11.5005C9.17582 11.4856 9.18222 11.4702 9.19502 11.4647C9.55453 11.2955 9.81308 11.1887 9.97067 11.1435C10.08 11.1121 10.2041 11.0421 10.3415 10.9313C10.3578 10.9176 10.3789 10.9352 10.373 10.9561ZM12.7025 4.60628C12.6808 4.60021 12.666 4.58479 12.669 4.57156C12.6719 4.55834 12.6916 4.55338 12.7133 4.55944C12.735 4.5655 12.7497 4.58093 12.7468 4.59415C12.7438 4.60683 12.7241 4.61234 12.7025 4.60628ZM13.292 5.25647C13.1442 5.0278 13.0452 4.87462 12.9945 4.79582C12.9861 4.78205 12.9935 4.76386 13.0078 4.76221C13.0304 4.76001 13.0501 4.76993 13.0669 4.79252C13.1398 4.88894 13.2373 5.04047 13.3599 5.2471C13.456 5.4091 13.4939 5.63446 13.4737 5.92374C13.4727 5.93917 13.454 5.94303 13.4486 5.9298C13.4431 5.91713 13.4466 5.89785 13.4584 5.87029C13.4633 5.85927 13.4648 5.8466 13.4628 5.83503C13.4111 5.54575 13.3545 5.35345 13.292 5.25647ZM13.5411 7.55584C13.452 7.96689 13.3131 8.33662 13.125 8.66557C12.8748 9.10197 12.5813 9.46674 12.2445 9.76098C12.0578 9.92463 11.8332 10.1076 11.5712 10.3109C11.5629 10.3175 11.5515 10.3158 11.5461 10.307L11.5456 10.3065C11.5402 10.2988 11.5412 10.2877 11.5481 10.2817C12.1366 9.73784 12.5739 9.25736 12.8591 8.84024C13.0895 8.50302 13.29 8.06497 13.4594 7.52773C13.4668 7.50404 13.4894 7.49192 13.5111 7.49853L13.5126 7.49908C13.5338 7.50625 13.5466 7.53104 13.5411 7.55584ZM13.7992 6.22129C13.8002 6.20861 13.8095 6.19925 13.8209 6.19925L13.8401 6.20035C13.8514 6.2009 13.8598 6.21137 13.8598 6.22459L13.8425 6.65273C13.8416 6.6654 13.8322 6.67477 13.8209 6.67477L13.8017 6.67367C13.7903 6.67312 13.782 6.66265 13.782 6.64942L13.7992 6.22129ZM12.4789 4.01394C12.5577 4.02 12.6936 4.09383 12.8862 4.23489C13.1156 4.4035 13.3417 4.63327 13.4909 4.91539C13.5377 5.00466 13.5929 5.09061 13.6544 5.17382C13.6549 5.17437 13.6549 5.17492 13.6544 5.17547L13.6337 5.22616C13.6288 5.23884 13.613 5.23939 13.6071 5.22726L13.4894 4.98647C13.4801 4.96664 13.4688 4.94735 13.4555 4.93027C13.1989 4.58258 12.9379 4.32691 12.6724 4.16326C12.5621 4.09549 12.4956 4.05251 12.472 4.03543C12.4636 4.02937 12.468 4.01339 12.4789 4.01394ZM12.373 3.96049C12.3759 3.95443 12.3823 3.95223 12.3883 3.95498C12.3897 3.95553 12.3956 3.96104 12.4045 3.97041C12.4114 3.97757 12.4045 3.98969 12.3961 3.98639C12.3828 3.98088 12.3759 3.97812 12.3755 3.97812C12.3705 3.97427 12.3695 3.96655 12.373 3.96049ZM12.1307 3.7726C12.1386 3.76819 12.1509 3.76764 12.1676 3.77204C12.1799 3.7748 12.1844 3.78582 12.1814 3.80345C12.1794 3.81668 12.1671 3.81998 12.1455 3.81447C12.1243 3.80951 12.1144 3.78141 12.1307 3.7726ZM10.0839 3.55605C10.0839 3.55385 10.0854 3.55164 10.0884 3.55109C10.4444 3.49103 10.8005 3.47009 11.1566 3.48827C11.392 3.49985 11.6136 3.60674 11.7663 3.76047C11.7973 3.79188 11.7682 3.84808 11.7288 3.83376C11.3738 3.70647 10.995 3.62933 10.5922 3.60289C10.4518 3.59352 10.2864 3.59462 10.0958 3.60619C10.0889 3.60674 10.0835 3.60013 10.0835 3.59242L10.0839 3.55605ZM5.85996 5.69562L5.24584 6.14855C5.23549 6.15627 5.22121 6.15296 5.21432 6.14139L5.21333 6.13919C5.20644 6.12762 5.20939 6.11164 5.21973 6.10392L5.83385 5.65099C5.84419 5.64328 5.85848 5.64658 5.86537 5.65816L5.86636 5.66036C5.87325 5.67248 5.86981 5.68846 5.85996 5.69562ZM9.47327 3.85084C9.47721 3.87453 9.34572 3.92192 9.17976 3.95663C9.01379 3.99135 8.8754 4.00072 8.87196 3.97647C8.86802 3.95278 8.99951 3.90539 9.16547 3.87068C9.33144 3.83596 9.46982 3.82715 9.47327 3.85084ZM7.11726 4.16987C7.25761 4.11367 7.41323 4.05912 7.58363 4.00402C8.14604 3.82384 8.67644 3.64421 9.26545 3.57258C9.29992 3.56872 9.34474 3.56707 9.39891 3.56927C9.40728 3.56927 9.40925 3.5825 9.40137 3.5858C9.36936 3.59958 9.27481 3.61721 9.11869 3.6387C9.06747 3.64586 8.97587 3.67286 8.84339 3.7208C8.22779 3.94231 7.79244 4.10706 7.53734 4.21506C6.36031 4.71317 5.28474 5.41847 4.31209 6.33204C3.92648 6.69461 3.65513 6.95689 3.49852 7.11999C3.22027 7.40982 2.93857 7.67375 2.65343 7.91289C2.64111 7.92281 2.62535 7.90628 2.63373 7.89195C2.7662 7.65943 2.91296 7.38943 3.12128 7.17399C3.34881 6.93981 3.53004 6.68028 3.77037 6.43673C4.2328 5.96727 4.72184 5.56173 5.23795 5.22065C5.83336 4.82723 6.44354 4.43877 7.11726 4.16987Z" fill="#F8F7FC"/>
<path d="M6.19839 2.38631C6.45546 2.39347 6.66969 2.14717 6.67658 1.8364C6.68397 1.52508 6.48156 1.26665 6.22449 1.25949C5.96742 1.25233 5.75318 1.49863 5.74629 1.8094C5.7389 2.12017 5.94131 2.37859 6.19839 2.38631ZM6.12649 1.65016L6.14027 1.64575C6.21119 1.62536 6.29146 1.70636 6.31954 1.82758L6.32495 1.84907C6.33332 1.88709 6.31314 1.92511 6.27965 1.93448L6.13092 1.97801C6.09694 1.98793 6.06295 1.96589 6.05458 1.92787L6.04917 1.90583C6.02109 1.78516 6.05606 1.6711 6.12649 1.65016Z" fill="#F8F7FC"/>
<path d="M17.7267 2.23819C17.9044 2.05966 17.9104 1.74448 17.7409 1.53345C17.571 1.32296 17.2903 1.29761 17.113 1.47559C16.9353 1.65412 16.9293 1.9693 17.0988 2.18033C17.2682 2.39082 17.5489 2.41672 17.7267 2.23819ZM17.4331 1.68608L17.4479 1.68442C17.5055 1.67781 17.5587 1.74944 17.5671 1.84422L17.5765 1.95167C17.5774 1.95993 17.572 1.96709 17.5646 1.96764L17.3681 1.98968C17.3608 1.99079 17.3544 1.98472 17.3534 1.97646L17.344 1.86901C17.3361 1.77424 17.3755 1.69214 17.4331 1.68608Z" fill="#F8F7FC"/>
<path d="M12.6814 3.14403C12.7843 3.08948 12.8266 2.94677 12.7754 2.82609C12.7242 2.70542 12.5991 2.65197 12.4957 2.70652C12.3928 2.76107 12.3504 2.90379 12.4016 3.02446C12.4529 3.14568 12.5779 3.19858 12.6814 3.14403Z" fill="#F8F7FC"/>
<path d="M4.57406 3.88563C4.69865 3.83934 4.79272 3.733 4.96705 3.733C4.98774 3.733 5.00744 3.72363 5.02172 3.7071L5.16207 3.55062C5.17783 3.53243 5.1798 3.50378 5.167 3.48339C5.13646 3.43545 5.09214 3.41617 5.03354 3.42498C5.01384 3.42774 4.99907 3.44647 4.99907 3.46796C4.99956 3.49772 5.01384 3.53298 5.0424 3.57486C5.05619 3.59415 5.04733 3.62335 5.02566 3.62941C5.00694 3.63437 4.98182 3.62114 4.9508 3.59029C4.9311 3.571 4.90156 3.56935 4.88136 3.58753L4.56273 3.86138C4.5578 3.86579 4.55633 3.87296 4.55879 3.87902C4.56174 3.88508 4.56815 3.88783 4.57406 3.88563Z" fill="#F8F7FC"/>
<path d="M14.6941 3.99202C14.6188 4.01185 14.5754 4.11434 14.5976 4.21903C14.6202 4.32428 14.699 4.39315 14.7754 4.37332C14.8507 4.35348 14.8941 4.25099 14.8719 4.1463C14.8492 4.04106 14.77 3.97163 14.6941 3.99202Z" fill="#F8F7FC"/>
<path d="M1.48018 6.62584C1.87416 6.12608 2.27751 5.70455 2.77836 5.23895C3.27921 4.77389 3.72342 4.40747 4.23511 4.06585C4.25875 4.04932 4.24594 4.00799 4.21836 4.0113C4.11297 4.02507 4.01005 4.05979 3.90958 4.11599C3.4501 4.37331 3.11176 4.67912 2.66853 5.09128C2.2253 5.50343 1.89436 5.81916 1.5841 6.27705C1.51663 6.37734 1.46689 6.48423 1.43586 6.59829C1.42749 6.62805 1.46196 6.64954 1.48018 6.62584Z" fill="#F8F7FC"/>
<path d="M1.50234 5.07679C1.50283 5.09276 1.492 5.10928 1.46985 5.12525C1.45607 5.13516 1.46198 5.15939 1.47871 5.16049C1.555 5.1649 1.61259 5.13847 1.65048 5.08285C1.68149 5.03769 1.65196 4.98593 1.5614 4.93031C1.51316 4.90057 1.45804 4.91159 1.45607 4.95068C1.45558 4.96115 1.46789 4.99088 1.4925 5.03879C1.49889 5.05036 1.50184 5.06302 1.50234 5.07679Z" fill="#F8F7FC"/>
<path d="M7.69061 5.46747C7.72311 5.36278 7.67879 5.24927 7.59113 5.21511C7.50298 5.18095 7.40546 5.23825 7.37296 5.34294C7.34046 5.44764 7.38478 5.56114 7.47244 5.59531C7.5601 5.62947 7.6581 5.57272 7.69061 5.46747Z" fill="#F8F7FC"/>
<path d="M0.0267964 10.1087C0.158288 10.0977 0.22822 10.0388 0.2361 9.93241C0.270081 9.47177 0.405513 9.04143 0.642395 8.64139C0.744338 8.46948 1.07331 8.00057 1.6303 7.23356C1.76032 7.05448 1.89181 6.89194 2.02577 6.74426C2.24837 6.49796 2.3902 6.34533 2.45127 6.28582C2.99546 5.75134 3.30178 5.43286 3.36974 5.32817C3.37713 5.31715 3.37024 5.30172 3.35792 5.30172C3.32345 5.30117 3.29094 5.31109 3.26041 5.33037C2.62363 5.74473 2.07797 6.29354 1.61159 6.89855C1.58155 6.93767 1.54806 6.97349 1.51162 7.00489C1.2378 7.24238 1.11862 7.46774 0.89553 7.80772C0.809346 7.93941 0.722668 8.10251 0.635006 8.29701C0.632052 8.30362 0.548327 8.48601 0.385316 8.84417C0.282388 9.07063 0.162226 9.40399 0.0243316 9.8437C0.0198993 9.85748 0.0120201 9.93517 0.000200616 10.0784C-0.0017693 10.0961 0.0110371 10.1104 0.0267964 10.1087Z" fill="#F8F7FC"/>
<path d="M0.694874 6.39436C0.806667 6.44395 0.937176 6.37232 0.986424 6.23402C1.03567 6.09572 0.984944 5.94309 0.873151 5.89349C0.761359 5.8439 0.630855 5.91554 0.581608 6.05384C0.531867 6.19214 0.582589 6.34477 0.694874 6.39436Z" fill="#F8F7FC"/>
<path d="M12.6593 6.15859C12.6593 6.01257 12.5534 5.8941 12.4229 5.8941C12.2924 5.8941 12.1865 6.01257 12.1865 6.15859C12.1865 6.30461 12.2924 6.42307 12.4229 6.42307C12.5534 6.42307 12.6593 6.30461 12.6593 6.15859Z" fill="#F8F7FC"/>
<path d="M14.692 6.86535C14.763 7.07363 14.9629 7.18163 15.1382 7.10724C15.314 7.0323 15.3992 6.80364 15.3283 6.59535C15.2574 6.38707 15.0575 6.27907 14.8821 6.35346C14.7058 6.42785 14.6211 6.65707 14.692 6.86535ZM14.9787 6.69068C15.0013 6.65321 15.0368 6.63613 15.0575 6.65211C15.0782 6.66809 15.0772 6.71107 15.0545 6.74853C15.0319 6.786 14.9964 6.80308 14.9757 6.7871C14.955 6.77057 14.956 6.7276 14.9787 6.69068Z" fill="#F8F7FC"/>
<path d="M17.121 9.63994C16.9639 9.87412 16.8536 10.0521 16.7896 10.1722C16.6788 10.3805 16.5611 10.5618 16.4365 10.7172C16.4138 10.7453 16.3611 10.7849 16.2784 10.8351C16.2493 10.8527 16.2247 10.877 16.2045 10.9062C15.8642 11.4059 15.4924 11.8815 15.0886 12.3316C15.0324 12.3933 15.0058 12.481 15.0157 12.5686L15.0216 12.6198C15.0295 12.6881 15.1033 12.7179 15.1482 12.67C15.4747 12.3223 15.7554 12.0192 15.9893 11.7619C16.0883 11.6528 16.1563 11.5723 16.1912 11.5222C16.3449 11.3062 16.5064 11.1376 16.6694 10.8957C16.8536 10.6229 17.0358 10.3568 17.2161 10.0973C17.2875 9.99479 17.3515 9.87027 17.4086 9.7237C17.6775 9.03163 17.9863 8.42166 18.171 7.70259C18.3192 7.12513 18.4098 6.75375 18.4438 6.589C18.4616 6.50249 18.4468 6.427 18.3995 6.36363C18.3788 6.33608 18.3389 6.34655 18.3315 6.38127C18.2587 6.71297 18.2419 7.04579 18.1346 7.34994C17.9346 7.91859 17.714 8.46794 17.4727 8.99857C17.3623 9.24156 17.2451 9.4548 17.121 9.63994ZM16.3208 11.1078C16.2671 11.1767 16.2139 11.2224 16.2021 11.2114C16.1902 11.1999 16.2242 11.1348 16.2779 11.066C16.3316 10.9971 16.3848 10.9514 16.3966 10.9624C16.4084 10.9745 16.3739 11.0395 16.3208 11.1078Z" fill="#F8F7FC"/>
<path d="M3.54211 9.57863C3.68788 9.57312 3.80115 9.41829 3.79524 9.23315C3.78982 9.04801 3.66671 8.90309 3.52093 8.9086C3.37516 8.91411 3.26189 9.06894 3.2678 9.25408C3.27371 9.43867 3.39683 9.58414 3.54211 9.57863Z" fill="#F8F7FC"/>
<path d="M18.023 9.61405C17.9191 9.60854 17.83 9.70937 17.8236 9.83996C17.8176 9.97055 17.8974 10.0808 18.0013 10.0868C18.1052 10.0923 18.1944 9.99149 18.2008 9.8609C18.2067 9.73086 18.1274 9.62011 18.023 9.61405Z" fill="#F8F7FC"/>
<path d="M15.5015 11.4587C15.5927 11.4003 15.6877 11.3447 15.7872 11.2918C15.862 11.2521 15.9123 11.1898 15.9374 11.1039C15.9507 11.0603 15.9157 11.0179 15.8758 11.0278C15.8266 11.0405 15.7818 11.1033 15.7394 11.1474C15.6183 11.2719 15.5306 11.3634 15.4769 11.4218C15.4695 11.4301 15.4685 11.4433 15.4749 11.4527C15.4809 11.462 15.4927 11.4648 15.5015 11.4587Z" fill="#F8F7FC"/>
<path d="M11.4164 11.4324C11.3287 11.5646 11.3331 11.7343 11.4272 11.8126C11.5208 11.8902 11.668 11.8473 11.7557 11.7156C11.8433 11.5833 11.8389 11.4136 11.7449 11.3354C11.6513 11.2577 11.504 11.3007 11.4164 11.4324Z" fill="#F8F7FC"/>
<path d="M5.38959 11.5426C5.27041 11.5966 5.22017 11.768 5.27779 11.9244C5.33492 12.0809 5.47774 12.1641 5.59692 12.1096C5.7161 12.0556 5.76633 11.8842 5.70871 11.7277C5.65159 11.5712 5.50828 11.488 5.38959 11.5426Z" fill="#F8F7FC"/>
<path d="M12.5027 15.8547L12.6721 15.8305C12.6775 15.8299 12.6825 15.8272 12.6869 15.8228C12.8455 15.6745 13.1331 15.5577 13.3 15.4437C13.4143 15.3654 13.6463 15.2238 13.9959 15.0199C14.021 15.0051 14.0452 14.988 14.0673 14.9676C14.1387 14.9015 14.2747 14.7984 14.4746 14.6585C14.975 14.3075 15.3714 13.8623 15.8146 13.4633C16.1791 13.1349 16.5504 12.7062 16.8385 12.3013C16.8966 12.2197 16.9193 12.1293 16.906 12.0296C16.9035 12.0076 16.8794 11.9982 16.8656 12.0136C16.5268 12.3696 16.1766 12.8925 15.7678 13.2787C15.4556 13.5741 15.2759 13.7405 15.2301 13.778C14.9469 14.0088 14.7263 14.1912 14.5672 14.3262C14.1373 14.6921 13.824 14.8949 13.336 15.2282C13.07 15.4101 12.7238 15.5572 12.4815 15.8051C12.4638 15.8233 12.4781 15.858 12.5027 15.8547Z" fill="#F8F7FC"/>
<path d="M13.0578 14.6844C13.0607 14.7285 13.1026 14.7577 13.1445 14.7439C13.2538 14.7087 13.3572 14.6547 13.4557 14.5836C13.9428 14.2304 14.3895 13.8739 14.7962 13.5135C14.8657 13.4518 14.9657 13.3691 15.0947 13.265C15.2749 13.1206 15.4177 12.9735 15.5217 12.8231C15.5315 12.8088 15.53 12.7884 15.5192 12.7757C15.5074 12.7636 15.4897 12.7619 15.4768 12.7735C15.4409 12.806 15.4173 12.8236 15.4054 12.8264C15.3951 12.8286 15.3882 12.8137 15.3966 12.806C15.5645 12.6451 15.6674 12.4919 15.7054 12.3481C15.7113 12.3266 15.6876 12.3118 15.6738 12.3272C14.9169 13.2165 14.06 13.9753 13.1026 14.6018C13.0706 14.6216 13.0558 14.6491 13.0578 14.6844Z" fill="#F8F7FC"/>
<path d="M2.8263 12.8076C2.58597 12.8379 2.41458 13.0952 2.44364 13.3828C2.4727 13.6704 2.69037 13.8798 2.9307 13.849C3.17103 13.8187 3.34242 13.5613 3.31336 13.2737C3.2843 12.9861 3.06663 12.7767 2.8263 12.8076ZM2.68446 13.3652L2.68003 13.3624C2.65738 13.3492 2.64851 13.3183 2.66033 13.293L2.72041 13.1641C2.73174 13.1393 2.75981 13.1288 2.78247 13.142L2.7869 13.1448C2.80955 13.158 2.81842 13.1889 2.8066 13.2142L2.74652 13.3431C2.7347 13.3685 2.70663 13.3784 2.68446 13.3652ZM3.01147 13.3834L3.00556 13.3988C2.98044 13.4682 2.89623 13.4958 2.8194 13.4599L2.81497 13.4577C2.80315 13.4522 2.79823 13.4385 2.80266 13.4252L2.88391 13.2048C2.88884 13.1916 2.90115 13.1861 2.91297 13.1911L2.91741 13.1927C2.99472 13.2291 3.03708 13.3139 3.01147 13.3834Z" fill="#F8F7FC"/>
<path d="M14.3606 13.4215C14.4014 13.3493 14.3783 13.2513 14.3094 13.2023C14.24 13.1533 14.1509 13.172 14.11 13.2442C14.0692 13.3163 14.0923 13.4143 14.1612 13.4633C14.2306 13.5118 14.3197 13.4936 14.3606 13.4215Z" fill="#F8F7FC"/>
<path d="M4.60067 15.0657C4.54798 15.1748 4.59082 15.3147 4.69621 15.3786C4.80209 15.4431 4.93014 15.4062 4.98283 15.2976C5.03553 15.1885 4.99268 15.0486 4.88729 14.9847C4.7819 14.9202 4.65386 14.9571 4.60067 15.0657Z" fill="#F8F7FC"/>
<path d="M0.445386 15.0768C0.36265 15.0878 0.304537 15.1875 0.315864 15.3005C0.327684 15.4134 0.404515 15.4961 0.487252 15.4851C0.569988 15.474 0.628101 15.3743 0.616774 15.2613C0.605447 15.1489 0.528123 15.0663 0.445386 15.0768Z" fill="#F8F7FC"/>
<path d="M11.3457 15.8294C11.3472 15.9715 11.4437 16.0861 11.5619 16.0845C11.6796 16.0828 11.7737 15.966 11.7722 15.8239C11.7707 15.6817 11.6742 15.5671 11.556 15.5687C11.4383 15.5704 11.3438 15.6872 11.3457 15.8294Z" fill="#F8F7FC"/>
<path d="M1.18932 16.6498C1.33214 16.8349 1.43852 16.96 1.50795 17.025C1.76404 17.2631 2.03196 17.4609 2.31119 17.619C2.4806 17.7149 2.68006 17.6868 2.82632 17.7353C3.13412 17.8367 3.44241 17.889 3.75267 17.8912C3.79798 17.8918 3.82605 17.835 3.80192 17.792L3.78863 17.7683C3.7576 17.7132 3.70638 17.6774 3.64876 17.6697C3.43552 17.6421 3.24345 17.6036 3.07207 17.5545C2.81647 17.4813 2.63228 17.4598 2.38604 17.3815C2.3496 17.3705 2.32596 17.4234 2.356 17.4487C2.3624 17.4543 2.36586 17.4631 2.36684 17.4746C2.36783 17.4895 2.35009 17.4945 2.34418 17.4818C2.34369 17.4813 2.34271 17.4785 2.34123 17.473C2.33778 17.4642 2.33236 17.4565 2.32547 17.4515C2.06839 17.2586 1.85515 17.1049 1.68722 16.9903C1.62714 16.9495 1.58133 16.901 1.54981 16.8459C1.54095 16.8305 1.5572 16.8123 1.57099 16.8222L2.01619 17.1385C2.03096 17.149 2.05066 17.1446 2.06002 17.1286C2.06987 17.1126 2.06692 17.0906 2.05313 17.079L1.19375 16.3445C1.17159 16.3258 1.14057 16.3489 1.14746 16.3787C1.1647 16.4536 1.17061 16.5065 1.16421 16.5368C1.15583 16.577 1.16519 16.6189 1.18932 16.6498ZM1.39813 16.6839C1.40651 16.6773 1.4198 16.6828 1.42719 16.6955C1.43507 16.7082 1.43408 16.7242 1.42522 16.7302C1.41684 16.7368 1.40355 16.7313 1.39616 16.7187C1.38877 16.706 1.38976 16.69 1.39813 16.6839ZM1.19523 16.4591C1.20656 16.447 1.24005 16.4646 1.27108 16.4988C1.30161 16.533 1.31737 16.571 1.30653 16.5837C1.29521 16.5958 1.26172 16.5781 1.23069 16.544C1.20016 16.5093 1.1844 16.4713 1.19523 16.4591Z" fill="#F8F7FC"/>
<path d="M8.09373 17.7414C7.98588 18.0004 8.07059 18.3001 8.28235 18.4103C8.49461 18.5205 8.75365 18.4009 8.86151 18.142C8.96936 17.883 8.88466 17.5832 8.67289 17.473C8.46063 17.3628 8.20159 17.483 8.09373 17.7414ZM8.53549 17.9623C8.49313 18.0549 8.41335 18.1039 8.3582 18.072C8.30255 18.04 8.2922 17.9392 8.33456 17.8466C8.37691 17.7541 8.45669 17.705 8.51185 17.737C8.56701 17.7689 8.57784 17.8698 8.53549 17.9623Z" fill="#F8F7FC"/>
</svg>
