<svg width="19" height="19" viewBox="0 0 19 19" fill="none" xmlns="http://www.w3.org/2000/svg">
<path d="M12.565 0.67814C12.7461 0.601778 12.8349 0.394216 12.7621 0.214842C12.6894 0.0354674 12.4842 -0.0480699 12.3026 0.0282924C12.1215 0.104655 12.0328 0.312216 12.1055 0.491591C12.1777 0.671478 12.3834 0.754503 12.565 0.67814Z" fill="#F8F7FC"/>
<path d="M17.4057 1.34332C17.6982 1.23621 17.8461 0.896934 17.7373 0.585335C17.6279 0.273736 17.3024 0.107687 17.0099 0.214287C16.7175 0.321399 16.5695 0.660673 16.6783 0.972272C16.7882 1.28387 17.1133 1.45043 17.4057 1.34332Z" fill="#F8F7FC"/>
<path d="M13.7615 2.66164C13.7997 2.73595 13.8895 2.76465 13.9617 2.72519L16.5231 1.35169C16.5958 1.31274 16.6239 1.221 16.5853 1.1472L16.5833 1.1431C16.5451 1.06879 16.4553 1.04009 16.3831 1.07955L13.8217 2.45305C13.749 2.492 13.7209 2.58374 13.7595 2.65754L13.7615 2.66164Z" fill="#F8F7FC"/>
<path d="M5.32994 2.16754C5.50903 2.02456 5.54665 1.76779 5.41372 1.59303C5.28078 1.41827 5.02695 1.39213 4.84787 1.53512C4.66878 1.67811 4.63116 1.93487 4.76409 2.10963C4.89703 2.28439 5.15086 2.31002 5.32994 2.16754Z" fill="#F8F7FC"/>
<path d="M17.1027 1.52393L17.0721 1.51829C16.9999 1.50497 16.9312 1.55417 16.9181 1.62797L16.4416 4.36061C16.4285 4.43441 16.4772 4.50462 16.5489 4.51795L16.5795 4.52358C16.6518 4.53691 16.7205 4.48771 16.7335 4.41391L17.2101 1.68127C17.2231 1.60747 17.175 1.53725 17.1027 1.52393Z" fill="#F8F7FC"/>
<path d="M12.962 3.48628C13.2083 3.61133 13.5143 3.49396 13.6453 3.22388C13.7762 2.9543 13.6834 2.6345 13.4366 2.50945C13.1903 2.3844 12.8843 2.50177 12.7534 2.77185C12.6229 3.04143 12.7157 3.36174 12.962 3.48628Z" fill="#F8F7FC"/>
<path d="M10.0883 3.97546L10.1901 3.98418C10.4776 4.00878 10.7304 3.79096 10.7545 3.49679L10.766 3.35893C10.7901 3.06527 10.5764 2.80748 10.2889 2.78237L10.1871 2.77365C9.89967 2.74905 9.64685 2.96687 9.62277 3.26104L9.61123 3.3989C9.58715 3.69256 9.80085 3.95035 10.0883 3.97546Z" fill="#F8F7FC"/>
<path d="M10.9158 3.3298C10.9218 3.36875 10.9584 3.39591 10.9966 3.38925L12.3836 3.15657C12.4097 3.15196 12.4312 3.13351 12.4393 3.10789L12.4824 2.97207C12.4985 2.92134 12.4578 2.87163 12.4067 2.87829L10.9474 3.06894C10.9078 3.07406 10.8802 3.11199 10.8867 3.15196L10.9158 3.3298Z" fill="#F8F7FC"/>
<path d="M15.9203 4.60351L13.9835 3.31355C13.9143 3.26743 13.8215 3.28793 13.7768 3.35814L13.7743 3.36173C13.7292 3.43194 13.7487 3.52726 13.8179 3.57287L15.7548 4.86283C15.824 4.90896 15.9168 4.88846 15.9615 4.81825L15.964 4.81466C16.0091 4.74445 15.9895 4.64964 15.9203 4.60351Z" fill="#F8F7FC"/>
<path d="M7.94333 5.88679C8.00754 5.94778 8.10836 5.94316 8.16756 5.87756L9.7121 4.16735C9.7718 4.10175 9.76729 3.99874 9.70308 3.93827L9.69856 3.93366C9.63435 3.87267 9.53352 3.87728 9.47433 3.94288L7.92978 5.65309C7.87009 5.71869 7.8746 5.8217 7.93881 5.88217L7.94333 5.88679Z" fill="#F8F7FC"/>
<path d="M2.86092 5.45486C3.14585 5.48971 3.4057 5.27036 3.44131 4.96491C3.47743 4.65946 3.27477 4.38374 2.98984 4.3494C2.70491 4.31455 2.44506 4.5339 2.40944 4.83935C2.37332 5.1448 2.57599 5.42052 2.86092 5.45486ZM2.66026 4.93929C2.7044 4.91264 2.73852 4.90085 2.7631 4.90341C2.78367 4.90546 2.7942 4.92853 2.78317 4.94646C2.78116 4.95056 2.74203 4.95415 2.66578 4.95876C2.65475 4.95876 2.65123 4.94441 2.66026 4.93929Z" fill="#F8F7FC"/>
<path d="M16.8744 5.59569C17.0595 5.39121 17.0334 5.05757 16.8152 4.85155C16.5969 4.64501 16.2694 4.64347 16.0843 4.84847C15.8992 5.05296 15.9253 5.3866 16.1435 5.59262C16.3617 5.79864 16.6887 5.80018 16.8744 5.59569Z" fill="#F8F7FC"/>
<path d="M3.52956 5.17784L6.83185 6.26741C6.8474 6.27254 6.86445 6.26382 6.86947 6.24691L6.92816 6.06292C6.94571 6.00655 6.21132 5.71391 5.2868 5.40846L5.27426 5.40436C4.35024 5.09943 3.58675 4.8975 3.56869 4.95439L3.50999 5.13889C3.50548 5.15529 3.51401 5.17271 3.52956 5.17784Z" fill="#F8F7FC"/>
<path d="M1.40882 7.90097L1.41284 7.90302C1.48457 7.94146 1.57336 7.91327 1.61099 7.83998L2.70205 5.7167C2.74017 5.64341 2.71208 5.55321 2.64035 5.51426L2.63633 5.51221C2.5646 5.47378 2.47581 5.50196 2.43819 5.57525L1.34712 7.69853C1.309 7.77131 1.33709 7.86202 1.40882 7.90097Z" fill="#F8F7FC"/>
<path d="M7.29706 6.87032C7.54587 6.98717 7.84585 6.86315 7.96725 6.59357C8.08915 6.324 7.98581 6.01035 7.737 5.8935C7.48819 5.77665 7.18821 5.90068 7.06681 6.17025C6.94491 6.43982 7.04825 6.75347 7.29706 6.87032Z" fill="#F8F7FC"/>
<path d="M11.238 6.8301C11.0805 6.92543 11.0308 7.1376 11.1276 7.3057C11.2244 7.47329 11.4306 7.53274 11.5881 7.43793C11.7456 7.3426 11.7953 7.13043 11.6985 6.96233C11.6022 6.79423 11.3955 6.73529 11.238 6.8301Z" fill="#F8F7FC"/>
<path d="M6.1133 9.75057C6.1128 9.76902 6.12133 9.78747 6.13638 9.79772C6.32198 9.93046 6.47248 9.61937 6.52766 9.4769C6.86124 8.62 7.11508 7.90968 7.28814 7.34644C7.31774 7.24958 7.33328 7.15989 7.33479 7.07584C7.33579 7.01281 7.2766 6.96719 7.21841 6.98564C7.05087 7.03894 7.03933 7.25214 6.99869 7.36336C6.94703 7.50327 6.65557 8.24024 6.12484 9.57325C6.11932 9.58606 6.11581 9.64449 6.1133 9.75057Z" fill="#F8F7FC"/>
<path d="M10.7316 11.2128C10.7416 11.2348 10.7321 11.2605 10.71 11.2702L9.04957 11.999C9.00041 12.02 8.97232 12.0712 8.97884 12.1251L8.99238 12.2311C8.9979 12.2762 8.97332 12.3188 8.93319 12.3372L7.90634 12.7872C7.88878 12.7949 7.86771 12.7877 7.85818 12.7708L7.79347 12.656C7.78243 12.636 7.76136 12.6247 7.73879 12.6258C7.55168 12.6345 7.25923 12.7175 7.37009 12.9876C7.5567 13.4427 7.70468 13.7953 7.81504 14.0449C7.9244 14.2919 8.20581 14.2196 8.32621 14.0515C8.33473 14.0392 8.33975 14.0249 8.33925 14.01L8.33323 13.8055C8.33223 13.7743 8.3548 13.7481 8.3849 13.744C8.48071 13.7312 8.57552 13.703 8.67033 13.6574C8.96228 13.5175 9.1805 13.4078 9.32597 13.3269C9.34453 13.3171 9.36811 13.3202 9.38316 13.3356C9.47796 13.435 9.51609 13.5447 9.69367 13.5098C9.82661 13.4832 9.9465 13.4447 10.0533 13.3945C10.2992 13.2797 10.7105 13.0988 11.2884 12.8508C11.3054 12.8436 11.325 12.8461 11.3395 12.8574L11.5091 12.984C11.5126 12.9866 11.5166 12.9886 11.5211 12.9902C11.6766 13.0358 11.9345 12.8851 12.0178 12.8543C12.0388 12.8467 12.0619 12.8595 12.0674 12.881C12.1111 13.0675 12.2039 13.231 12.3468 13.3725C12.3584 13.3832 12.3599 13.4017 12.3513 13.415L12.2721 13.5355C12.2621 13.5513 12.254 13.5677 12.247 13.5847C11.9405 14.3826 11.5648 15.3282 11.1193 16.4224C11.0035 16.7063 10.8645 17.1563 10.714 17.4791C10.6393 17.6401 10.4787 18.0875 10.7426 18.1433C10.877 18.172 11.0516 17.9337 11.0842 17.8492C11.333 17.2106 11.6736 16.5812 11.9335 15.9775C12.2264 15.2964 12.3835 14.9294 12.405 14.8782C12.4748 14.7132 12.5505 14.5522 12.6323 14.3954C12.6373 14.3862 12.6513 14.3898 12.6503 14.4005C12.6283 14.8705 12.6217 15.3415 12.6298 15.8145C12.6323 15.9391 12.6483 16.7078 12.6784 18.1203C12.6809 18.2376 12.7522 18.5082 12.9343 18.4406C13.0622 18.3924 13.1168 18.3258 13.1234 18.1741C13.1464 17.6334 13.1966 17.1209 13.2036 16.5643C13.2122 15.8899 13.2187 15.3656 13.2232 14.9909C13.2242 14.871 13.2016 14.6957 13.155 14.4646C13.154 14.459 13.1545 14.4538 13.157 14.4492C13.1605 14.4421 13.164 14.4374 13.1665 14.4359C13.1755 14.4298 13.1881 14.4333 13.1921 14.4431C13.7018 15.566 14.2099 16.673 14.7176 17.7646C14.7773 17.8937 14.8219 17.9998 14.9518 18.0583C15.0597 18.1069 15.156 18.0859 15.2403 17.9947C15.2578 17.9747 15.2674 17.9491 15.2654 17.9224C15.2563 17.7615 15.2197 17.6098 15.157 17.4673C14.9383 16.9718 14.7647 16.5351 14.6358 16.1589C14.4301 15.5567 14.1492 14.9894 13.922 14.3872C13.8206 14.1176 13.6952 13.8834 13.5683 13.598C13.5513 13.5601 13.5287 13.5252 13.5011 13.4944L13.4389 13.4253C13.4264 13.4114 13.4249 13.3914 13.4349 13.3756C13.4675 13.3238 13.5131 13.2567 13.5708 13.1731C13.7429 12.9251 13.6631 12.5289 13.5066 12.2947C13.5036 12.2891 13.5051 12.2814 13.5106 12.2788L14.1327 11.9113C14.1457 11.9037 14.1618 11.9072 14.1708 11.9195C14.2806 12.0671 14.4432 12.1015 14.6589 12.0215C15.5332 11.6976 16.4031 11.3209 17.2679 10.8915C17.293 10.8787 17.3241 10.8899 17.3366 10.9156C17.3983 11.0437 17.4951 11.0893 17.6276 11.0519C17.6411 11.0478 17.6532 11.0427 17.6652 11.0355C17.7951 10.9514 17.9521 10.8725 18.1357 10.7987C18.212 10.7685 18.3093 10.6854 18.4282 10.5512C18.4427 10.5348 18.4508 10.5132 18.4508 10.4907C18.4498 10.0438 18.4101 9.71067 18.3309 9.49132C18.2275 9.20535 18.1322 8.92552 17.9958 8.65287C17.92 8.50015 17.8167 8.29413 17.6868 8.0348C17.5844 7.83134 17.5017 7.70629 17.438 7.66068C17.304 7.56587 17.1761 7.5428 17.0542 7.59149C16.9539 7.63198 16.7261 7.72474 16.372 7.86926C16.3424 7.88156 16.3213 7.90924 16.3178 7.94153L16.2997 8.09784C16.2967 8.12398 16.2802 8.14704 16.2561 8.1578L13.4871 9.37191C13.4484 9.38934 13.4213 9.42624 13.4168 9.46929L13.3857 9.7363C13.3817 9.77012 13.3591 9.79882 13.3275 9.8101C13.0722 9.9003 12.8294 9.99562 12.5997 10.0971C12.0569 10.3369 11.3987 10.6029 11.0125 10.7516C10.9648 10.77 10.8946 10.8059 10.8028 10.8592C10.6633 10.9391 10.6819 11.1052 10.7316 11.2128ZM9.18802 12.9184L8.47519 13.2367C8.30313 13.3135 8.16067 13.3694 8.15766 13.3612L8.08241 13.1854C8.0784 13.1772 8.21585 13.1085 8.38791 13.0322L9.10074 12.7139C9.11127 12.7093 9.12331 12.7144 9.12782 12.7247L9.19856 12.8907C9.20307 12.9015 9.19856 12.9143 9.18802 12.9184ZM12.4873 13.763L12.0378 14.8495C12.0313 14.8644 12.0142 14.8715 11.9997 14.8654L11.9987 14.8649C11.9841 14.8582 11.9771 14.8408 11.9831 14.8259L12.4326 13.7394C12.4391 13.7246 12.4562 13.7174 12.4707 13.7235L12.4717 13.7241C12.4868 13.7307 12.4938 13.7481 12.4873 13.763ZM13.0446 12.8815C13.006 12.9861 12.9087 13.0455 12.8279 13.0142C12.7471 12.983 12.7125 12.8723 12.7512 12.7682C12.7898 12.6637 12.8871 12.6042 12.9679 12.6355C13.0486 12.6668 13.0832 12.777 13.0446 12.8815ZM13.4294 13.9547L13.7539 14.6819C13.7574 14.6891 13.7539 14.6973 13.7469 14.7009L13.7283 14.7096C13.7213 14.7127 13.7133 14.7096 13.7098 14.7024L13.3852 13.9752C13.3817 13.968 13.3852 13.9598 13.3922 13.9562L13.4108 13.9475C13.4178 13.9444 13.4264 13.9475 13.4294 13.9547ZM17.9647 10.1591C17.9647 10.1806 17.9481 10.1975 17.9271 10.1975C17.906 10.1975 17.8894 10.1806 17.8894 10.1591C17.8894 10.1376 17.906 10.1207 17.9271 10.1207C17.9476 10.1207 17.9647 10.1376 17.9647 10.1591ZM17.2233 8.15216C17.304 8.12141 17.5182 8.5063 17.7028 9.01214C17.8869 9.51797 17.9707 9.95257 17.8899 9.98332C17.8092 10.0141 17.595 9.62919 17.4104 9.12335C17.2268 8.61751 17.1425 8.18291 17.2233 8.15216ZM13.9049 9.65532L16.3815 8.56934C16.3996 8.56165 16.4201 8.5719 16.4251 8.59138C16.5907 9.232 16.7663 9.8634 17.0637 10.4174C17.0758 10.4389 17.0637 10.4656 17.0402 10.4712C16.9278 10.4994 16.847 10.5225 16.7989 10.5414C16.5782 10.6296 15.9055 10.9084 14.7818 11.3763C14.7617 11.3845 14.7005 11.4152 14.5982 11.4675C14.5656 11.4839 14.5255 11.4685 14.5119 11.4342C14.2791 10.8653 14.0705 10.2877 13.8859 9.70093C13.8793 9.68248 13.8879 9.66301 13.9049 9.65532ZM11.2573 11.1539L13.4168 10.2068C13.4354 10.1986 13.4565 10.2098 13.461 10.2303C13.5478 10.6542 13.7018 11.0539 13.9225 11.4301C13.9355 11.4521 13.925 11.4808 13.9014 11.4885C13.63 11.5798 13.3702 11.7197 13.1184 11.8119C12.6012 12 12.1547 12.1866 11.7785 12.37C11.7544 12.3823 11.7248 12.3716 11.7123 12.347C11.5236 11.9739 11.3656 11.5905 11.2382 11.1974C11.2327 11.18 11.2412 11.161 11.2573 11.1539ZM10.9217 11.8329L11.1549 12.4197C11.159 12.4285 11.1544 12.4377 11.1464 12.4413L9.793 13.003C9.78447 13.006 9.77544 13.0025 9.77143 12.9937L9.53817 12.4069C9.50205 12.3157 9.51409 12.225 9.56425 12.2045L10.7647 11.7063C10.8153 11.6853 10.8856 11.7422 10.9217 11.8329Z" fill="#F8F7FC"/>
<path d="M1.32047 9.03357C1.40675 9.0182 1.48099 8.97463 1.54319 8.9034C1.67612 8.75016 1.72528 8.57745 1.69268 8.38475C1.65857 8.18692 1.57379 8.04804 1.43785 7.9686C1.4248 7.96091 1.41126 7.95425 1.39822 7.9481C1.30391 7.9071 1.17448 7.91069 1.00894 7.95989C0.818322 8.01626 0.698435 8.13004 0.649776 8.30172C0.624694 8.39141 0.584559 8.48059 0.621179 8.56617C0.754615 8.88239 0.95126 9.09968 1.32047 9.03357Z" fill="#F8F7FC"/>
<path d="M5.14421 10.4024C5.19437 10.4131 5.22447 10.3475 5.18334 10.3158L5.08652 10.2404C5.07799 10.2338 5.07598 10.222 5.081 10.2122C5.08652 10.203 5.09806 10.1989 5.10809 10.2035L5.23199 10.2609C5.24704 10.2681 5.2651 10.2594 5.26911 10.2425L5.27413 10.224C5.28065 10.1958 5.26761 10.1671 5.24303 10.1533C4.92499 9.98263 4.62451 9.83657 4.34159 9.7146C3.5801 9.38557 2.91744 9.08884 2.3541 8.82234C2.25828 8.77724 2.09124 8.71471 1.85196 8.63527C1.82035 8.62502 1.78624 8.6404 1.7727 8.67115L1.71551 8.8003C1.70147 8.83156 1.71501 8.86846 1.74561 8.8823C2.45643 9.20568 3.16725 9.54291 3.87807 9.89346C4.05214 9.97956 4.25982 10.0718 4.50061 10.1712C4.81564 10.2999 5.02983 10.3778 5.14421 10.4024Z" fill="#F8F7FC"/>
<path d="M0.621919 12.9586L0.78696 12.9807C0.824583 12.9853 0.858695 12.9581 0.86321 12.9202L1.26652 9.70787C1.30164 9.42958 1.27605 9.19639 1.21084 9.18768L1.14814 9.17948C1.08242 9.17077 1.00066 9.3896 0.966042 9.66892L0.563225 12.8807C0.557707 12.9187 0.584296 12.9535 0.621919 12.9586ZM1.12807 9.27019C1.12958 9.25277 1.14864 9.24354 1.16319 9.25226C1.1963 9.27276 1.21285 9.29326 1.21084 9.31478C1.20884 9.35219 1.16319 9.36757 1.13861 9.33887C1.12858 9.32606 1.12506 9.30351 1.12807 9.27019ZM1.02975 10.3003C1.03376 10.265 1.04279 10.2373 1.04781 10.2378C1.05333 10.2383 1.05433 10.2675 1.04982 10.3029C1.0458 10.3382 1.03678 10.3659 1.03176 10.3654C1.02624 10.3649 1.02524 10.3357 1.02975 10.3003Z" fill="#F8F7FC"/>
<path d="M6.07181 11.1841L6.20223 11.1354C6.47262 11.0349 6.61207 10.7295 6.51375 10.4532L6.45656 10.2933C6.35824 10.0171 6.05927 9.87513 5.78888 9.97558L5.65846 10.0243C5.38808 10.1247 5.24862 10.4302 5.34694 10.7059L5.40413 10.8658C5.50245 11.142 5.80143 11.284 6.07181 11.1841Z" fill="#F8F7FC"/>
<path d="M14.7073 10.806C14.915 10.8188 15.2174 10.6774 15.5244 10.5503C15.8314 10.4227 16.1445 10.3089 16.2844 10.1521C16.319 10.1136 16.2774 10.0547 16.2307 10.0757C16.2057 10.0865 16.1746 10.0998 16.1364 10.1147C15.8977 10.2079 15.6719 10.2992 15.4592 10.3868C15.247 10.475 15.0233 10.5708 14.788 10.6738C14.7509 10.6897 14.7198 10.703 14.6937 10.7128C14.6461 10.7317 14.6566 10.8035 14.7073 10.806Z" fill="#F8F7FC"/>
<path d="M14.6628 11.2134C14.7867 11.2129 14.9101 11.1898 15.032 11.1432C15.2708 11.052 15.5071 10.9566 15.7409 10.8562C15.9746 10.7552 16.2069 10.6497 16.4376 10.5384C16.556 10.4821 16.6579 10.4083 16.7451 10.3176C16.7692 10.293 16.7486 10.2499 16.7145 10.2545C16.6187 10.2673 16.5184 10.296 16.4146 10.3416C16.1602 10.4539 15.9104 10.5625 15.6641 10.6681C15.4173 10.7742 15.1665 10.8813 14.9106 10.9889C14.8058 11.033 14.7155 11.0858 14.6398 11.1473C14.6127 11.1688 14.6282 11.2134 14.6628 11.2134Z" fill="#F8F7FC"/>
<path d="M12.7453 11.8243C13.2821 11.5937 13.6979 11.3595 13.6739 11.301C13.6498 11.2426 13.1953 11.382 12.658 11.6126C12.1213 11.8432 11.7054 12.0775 11.7295 12.1359C11.7536 12.1943 12.2086 12.0549 12.7453 11.8243Z" fill="#F8F7FC"/>
<path d="M5.7542 11.3653L5.74065 11.3612C5.66039 11.3376 5.57662 11.3842 5.55354 11.4662L4.59792 14.8267C4.57434 14.9082 4.621 14.9938 4.70076 15.0179L4.7143 15.022C4.79456 15.0455 4.87834 14.9989 4.90141 14.9169L5.85703 11.5564C5.88011 11.475 5.83396 11.3894 5.7542 11.3653Z" fill="#F8F7FC"/>
<path d="M9.82747 12.7721C9.84453 12.8147 9.89218 12.8346 9.93332 12.8172L10.9095 12.4062C10.9511 12.3888 10.9707 12.3401 10.9536 12.2981L10.9526 12.295C10.9356 12.2524 10.8879 12.2325 10.8468 12.2499L9.87061 12.6609C9.82898 12.6783 9.80941 12.727 9.82647 12.769L9.82747 12.7721Z" fill="#F8F7FC"/>
<path d="M0.592945 14.4069C0.918006 14.4049 1.17936 14.1286 1.17735 13.7904C1.17535 13.4527 0.909482 13.18 0.584421 13.1826C0.25936 13.1846 -0.00199508 13.4609 1.1477e-05 13.7991C0.00251967 14.1368 0.267883 14.409 0.592945 14.4069Z" fill="#F8F7FC"/>
<path d="M3.73525 15.1184C3.37106 14.9169 2.99283 14.7237 2.60155 14.5382C1.93086 14.2199 1.52353 14.0226 1.37856 13.9463C1.31635 13.9135 1.24111 13.9581 1.2381 14.0298L1.23759 14.0416C1.23308 14.1323 1.28174 14.2169 1.361 14.2574L3.88625 15.5473C3.91735 15.5632 3.95547 15.5473 3.96701 15.513L4.01918 15.3479C4.0252 15.33 4.01466 15.3105 3.99711 15.3049C3.86668 15.2634 3.83959 15.1752 3.73525 15.1184ZM1.3304 14.1574C1.30081 14.1574 1.27672 14.1328 1.27672 14.1026C1.27672 14.0723 1.30081 14.0477 1.3304 14.0477C1.36 14.0477 1.38407 14.0723 1.38407 14.1026C1.38407 14.1328 1.36 14.1574 1.3304 14.1574Z" fill="#F8F7FC"/>
<path d="M4.60909 16.1672C4.87245 16.1421 5.06458 15.8936 5.03849 15.6117C5.01291 15.3303 4.77764 15.1228 4.51478 15.1484C4.25142 15.1735 4.05929 15.4221 4.08538 15.7039C4.11146 15.9848 4.34623 16.1923 4.60909 16.1672Z" fill="#F8F7FC"/>
</svg>
