<svg width="19" height="19" viewBox="0 0 19 19" fill="none" xmlns="http://www.w3.org/2000/svg">
<path d="M18.4316 2.87157C18.4297 2.84946 18.4243 2.82865 18.4161 2.80979C18.3249 2.603 18.0303 2.62251 17.8753 2.55749C17.6802 2.47555 17.4832 2.42874 17.2833 2.41703C17.2669 2.41573 17.2538 2.39622 17.2548 2.37411C17.2804 1.91112 17.3625 1.63801 16.9274 1.54892C16.9129 1.54567 16.8047 1.52031 16.6034 1.47284C16.5792 1.46699 16.5609 1.43968 16.5599 1.40587C16.5502 1.08269 16.5256 0.779661 16.486 0.496145C16.4653 0.350486 16.4131 0.243842 16.3296 0.174914C16.3194 0.16646 16.3073 0.16126 16.2948 0.16061L15.9172 0.128748C15.9099 0.128097 15.9027 0.126796 15.8954 0.123544C15.7076 0.0611189 15.5019 0.0240523 15.2778 0.0123476C13.9924 -0.0539795 12.6663 0.141103 11.492 0.738697C10.8357 1.07228 10.1877 1.6159 9.70912 2.07759C9.57874 2.20309 9.49134 2.31169 9.44643 2.40337C9.36627 2.56659 9.30688 2.68559 9.26776 2.76167C9.25328 2.78963 9.22334 2.79158 9.20692 2.76492C8.61296 1.82074 7.78577 1.21989 6.94989 0.810224C6.50707 0.593686 6.08261 0.422668 5.67746 0.299768C4.59965 -0.0286163 3.49287 -0.046824 2.37787 0.112491C2.31123 0.121595 2.24652 0.13915 2.18278 0.16386C2.14367 0.179467 2.11373 0.223685 2.10649 0.278308C2.09152 0.394705 2.10794 0.505251 2.15622 0.611894C2.15864 0.618397 2.15815 0.625549 2.15477 0.631401L2.14222 0.649611C2.1398 0.653512 2.13498 0.652861 2.13305 0.64896L2.10262 0.583282C2.07075 0.515004 1.99397 0.526709 1.97369 0.60344L1.91961 0.809573C1.91719 0.817376 1.91574 0.825831 1.91671 0.834935C1.91671 1.02611 1.90222 1.2355 1.87277 1.46309C1.87084 1.48065 1.86021 1.49365 1.84717 1.4969L1.31213 1.63281C1.26867 1.64387 1.23728 1.69459 1.2368 1.75441C1.23631 2.03793 1.27156 2.32859 1.13297 2.43654C1.03929 2.50937 0.760665 2.55749 0.618695 2.56464C0.456443 2.57374 0.233831 2.62576 0.136287 2.72395C0.056127 2.80459 0.0146019 2.94699 0.0131532 3.14988C-0.00905979 5.76719 -0.00326486 8.20764 0.0315033 10.4725C0.0677201 12.8733 0.0590239 15.2656 0.111659 17.6124C0.117937 17.8992 0.210656 18.2094 0.441961 18.199C0.751977 18.1853 1.15712 18.1547 1.65788 18.1086C2.25715 18.0527 3.30212 17.9909 4.79329 17.9233C5.42105 17.8953 5.9247 17.8173 6.56502 17.8036C6.83061 17.7977 7.17008 17.7802 7.58344 17.7483C7.59889 17.7477 7.62835 17.7347 7.67132 17.71C7.68146 17.7035 7.69354 17.7048 7.7032 17.7126L8.17111 18.0709C8.17594 18.0741 8.17981 18.078 8.18415 18.0819C8.28073 18.186 8.3493 18.2458 8.3889 18.2633C8.85827 18.4617 9.33295 18.5033 9.81391 18.3869C9.98437 18.3459 10.1177 18.2887 10.2152 18.2139C10.4084 18.067 10.5682 17.8608 10.7826 17.721C10.8014 17.7093 10.8227 17.7054 10.8425 17.7126C10.9144 17.7379 11.0211 17.7516 11.1617 17.7535C11.4268 17.7581 11.8903 17.7808 12.5524 17.8199C12.8441 17.8374 13.3076 17.8524 13.9426 17.8673C15.0987 17.8933 15.8027 17.92 16.0558 17.9493C16.8429 18.039 17.5382 18.0936 18.1423 18.1112C18.1747 18.1118 18.2066 18.0936 18.2283 18.0611L18.3703 17.8478C18.3823 17.8296 18.3891 17.8069 18.3896 17.7828C18.3949 17.5025 18.4171 17.167 18.4176 16.9414C18.419 15.8112 18.4552 14.6778 18.4509 13.5756C18.4403 11.0825 18.4335 8.06263 18.4306 4.51608C18.4292 3.95621 18.4746 3.39633 18.4316 2.87157ZM17.9443 16.7612C17.9588 16.7963 17.9555 16.8354 17.9366 16.8497C17.9178 16.8633 17.8917 16.8464 17.8772 16.8113C17.8627 16.7762 17.8661 16.7372 17.885 16.7229C17.9038 16.7092 17.9299 16.7261 17.9443 16.7612ZM17.827 3.079C17.8656 3.0816 17.8956 3.11021 17.8941 3.14207C17.8927 3.17459 17.8608 3.19735 17.8217 3.1941C17.7831 3.1915 17.7531 3.16288 17.7546 3.13102C17.756 3.09916 17.7884 3.0764 17.827 3.079ZM17.8738 4.00953C17.8743 4.03099 17.8627 4.04854 17.8468 4.04919H17.8449C17.8294 4.04984 17.8159 4.03424 17.8154 4.01278L17.8009 3.57125C17.8004 3.54979 17.812 3.53224 17.828 3.53159H17.8299C17.8454 3.53094 17.8589 3.54654 17.8594 3.568L17.8738 4.00953ZM16.4121 14.3C16.4261 14.3006 16.4397 14.2974 16.4517 14.2889C16.5121 14.248 16.5464 14.1725 16.5546 14.0639C16.5985 13.4819 16.5647 12.8928 16.5836 12.2926C16.6328 10.7014 16.641 9.12712 16.6251 7.22509C16.6072 5.0467 16.5826 3.31375 16.5517 2.02687C16.5507 1.98916 16.5763 1.9599 16.6038 1.96705L16.8849 2.03727C16.9148 2.04508 16.9366 2.08019 16.937 2.12181C16.9491 3.67724 16.9467 5.18131 16.9308 6.634C16.9177 7.77847 16.9568 9.18109 16.9293 10.5564C16.8989 12.0657 16.8815 13.1315 16.8772 13.7551C16.8718 14.4677 16.8743 15.0101 16.8834 15.384C16.8839 15.4035 16.8699 15.4171 16.8559 15.4113C16.3339 15.1694 15.7989 14.9984 15.2517 14.8976C14.7172 14.8 14.1353 14.7968 13.5056 14.8878C12.5591 15.025 11.603 15.3092 10.6372 15.7403C10.6295 15.7436 10.6208 15.739 10.6174 15.7286L10.6121 15.7124C10.6102 15.7065 10.6121 15.6993 10.6165 15.6961C11.1612 15.3254 11.5697 15.0868 11.8411 14.9789C12.5794 14.6856 13.3646 14.4716 14.1971 14.337C14.9475 14.2161 15.6921 14.2506 16.4121 14.3ZM16.3117 0.806323C16.3252 0.801771 16.3421 0.828431 16.3484 0.866797C16.3552 0.904512 16.3498 0.938979 16.3358 0.942881C16.3223 0.947433 16.3054 0.920118 16.2991 0.882403C16.2924 0.845338 16.2982 0.810875 16.3117 0.806323ZM16.29 4.33076C16.29 4.33076 16.2929 4.33206 16.2929 4.33401L16.3759 10.1747C16.3764 10.1766 16.374 10.1779 16.374 10.1779C16.3098 10.1799 16.2388 8.87937 16.2161 7.27451L16.2156 7.2394C16.1929 5.63519 16.2262 4.33206 16.29 4.33076ZM16.177 13.8422C16.2098 13.861 16.2296 13.8994 16.2204 13.928C16.2113 13.9573 16.1774 13.9651 16.1446 13.9462C16.1118 13.9274 16.092 13.889 16.1012 13.8604C16.1098 13.8311 16.1441 13.8233 16.177 13.8422ZM15.6482 0.385603C15.682 0.383002 15.7105 0.389501 15.711 0.402507C15.7115 0.414862 15.6849 0.42722 15.6506 0.430471C15.6168 0.433073 15.5883 0.426569 15.5878 0.413564C15.5874 0.400559 15.6144 0.388854 15.6482 0.385603ZM9.36193 12.8349C9.38124 12.8349 9.39766 13.2205 9.39863 13.6965C9.39959 14.1725 9.3851 14.5581 9.36627 14.5581C9.34695 14.5581 9.33053 14.1725 9.32957 13.6965C9.3286 13.2212 9.34309 12.8349 9.36193 12.8349ZM9.23783 11.4082C9.24797 11.4063 9.27597 11.6098 9.3006 11.8621C9.32522 12.1144 9.3373 12.3212 9.32716 12.3225C9.31702 12.3245 9.28901 12.1209 9.26438 11.8686C9.24024 11.6163 9.22768 11.4095 9.23783 11.4082ZM3.18381 0.371295L3.19685 0.338782C3.70389 0.321875 4.20851 0.347886 4.70879 0.416815C5.20906 0.490945 5.70596 0.606692 6.19899 0.766657L6.2072 0.803072C6.20913 0.814127 6.20285 0.825182 6.19416 0.824532C6.13138 0.81933 6.04688 0.805673 5.93919 0.782263C5.43167 0.671068 5.01832 0.592386 4.69913 0.546868C4.37945 0.501349 3.9632 0.461031 3.4494 0.427217C3.34075 0.420064 3.2548 0.409662 3.19347 0.397307C3.18478 0.394056 3.17947 0.381699 3.18381 0.371295ZM2.2726 13.9027C2.2866 13.8819 2.31606 13.8877 2.33828 13.915C2.36097 13.9423 2.36773 13.9813 2.35421 14.0015C2.3402 14.0223 2.31075 14.0165 2.28854 13.9892C2.26584 13.9625 2.25908 13.9235 2.2726 13.9027ZM2.1287 2.31494C2.14318 1.83244 2.16781 1.44228 2.18423 1.44293C2.20065 1.44358 2.2021 1.83569 2.18761 2.31819C2.17313 2.80069 2.1485 3.19085 2.13208 3.1902C2.11566 3.1889 2.11421 2.79678 2.1287 2.31494ZM2.11228 7.57168C2.11228 7.56583 2.11614 7.56128 2.12001 7.56128C2.12435 7.56063 2.12773 7.56453 2.12821 7.57038C2.18857 8.28827 2.22383 9.06729 2.23494 9.90613C2.23976 10.2956 2.21996 10.7001 2.17602 11.1208C2.17554 11.1273 2.17071 11.1319 2.16636 11.1319C2.16105 11.1312 2.15767 11.126 2.15719 11.1195C2.0978 10.016 2.08282 8.83319 2.11228 7.57168ZM1.56468 2.05028L1.78778 2.01191C1.84428 2.00216 1.89401 2.06134 1.89401 2.13742C1.89449 3.35471 1.89691 4.1721 1.90174 4.59217C1.90802 5.17676 1.90174 5.99024 1.88291 7.03456C1.83896 9.54394 1.91333 11.9057 1.93941 14.1894C1.94037 14.2785 1.99011 14.3592 2.06206 14.3891C2.09876 14.4047 2.12049 14.4352 2.12773 14.4814C2.13208 14.5061 2.14801 14.523 2.16636 14.5237C2.21996 14.5243 2.36966 14.5165 2.61497 14.5022C3.54357 14.4456 4.37559 14.4834 5.11152 14.6154C5.77018 14.7331 6.40808 14.9457 7.02521 15.2526C7.11938 15.2994 7.20581 15.3567 7.28404 15.4223C7.42891 15.5459 7.62738 15.6512 7.75825 15.7735C7.76645 15.7813 7.76308 15.7988 7.75293 15.7995C7.74086 15.8001 7.6578 15.754 7.50424 15.6629C7.41877 15.6122 7.33813 15.5706 7.26183 15.5381C6.50756 15.224 5.70016 15.0634 4.84013 15.0562C4.04433 15.0491 3.42574 15.0296 2.73955 15.1525C2.30012 15.2312 1.9085 15.3345 1.5642 15.4614C1.55406 15.4653 1.54343 15.4548 1.54343 15.4405C1.55309 13.7537 1.55647 12.5774 1.55164 11.9096C1.54488 10.9232 1.54344 9.88207 1.54682 8.78508C1.55358 6.65416 1.52074 4.51153 1.47728 2.18814C1.47583 2.11856 1.5135 2.05873 1.56468 2.05028ZM3.50784 14.0834C3.50832 14.0698 3.53777 14.0607 3.57351 14.0633C3.60924 14.0659 3.63773 14.0795 3.63725 14.0932C3.63677 14.1068 3.60731 14.1159 3.57158 14.1133C3.53536 14.1107 3.50687 14.0971 3.50784 14.0834ZM4.00666 14.1251C4.00811 14.1101 4.05978 14.1082 4.12159 14.1205C4.1834 14.1329 4.23265 14.155 4.23072 14.1699C4.22927 14.1849 4.17761 14.1868 4.11579 14.1745C4.05398 14.1621 4.00473 14.14 4.00666 14.1251ZM0.667951 6.29261C0.667468 6.35373 0.658296 6.40316 0.646706 6.40316C0.6356 6.40316 0.626907 6.35308 0.627389 6.29196C0.627872 6.23083 0.637044 6.18142 0.648634 6.18142C0.65974 6.18207 0.668433 6.23213 0.667951 6.29261ZM0.569928 3.08225C0.591175 3.06404 0.620632 3.0764 0.636084 3.10956C0.652019 3.14272 0.647187 3.18369 0.626423 3.2019C0.605175 3.22011 0.575719 3.20775 0.560267 3.17459C0.544331 3.14207 0.549164 3.10046 0.569928 3.08225ZM0.312543 3.68505H0.31061C0.294675 3.68505 0.282121 3.66814 0.282121 3.64668L0.280671 3.14793C0.280671 3.12712 0.29323 3.10956 0.309166 3.10956H0.311093C0.327029 3.10956 0.339588 3.12647 0.339588 3.14793L0.341032 3.64668C0.340549 3.66749 0.327996 3.68505 0.312543 3.68505ZM0.442928 17.1013C0.436167 17.0604 0.450167 17.0213 0.474794 17.0135C0.499422 17.0057 0.524534 17.033 0.531778 17.074C0.538538 17.115 0.524533 17.154 0.499905 17.1618C0.475761 17.1689 0.450171 17.1416 0.442928 17.1013ZM0.657328 17.7113C0.650085 17.7418 0.603242 17.7496 0.552539 17.7282C0.501835 17.7067 0.466584 17.6638 0.473827 17.6332C0.481071 17.6027 0.527913 17.5949 0.578617 17.6163C0.62932 17.6384 0.664572 17.6807 0.657328 17.7113ZM0.652017 7.79798C0.647671 7.79798 0.642845 7.77456 0.642362 7.74465C0.641879 7.71474 0.644771 7.69068 0.649117 7.69068C0.653463 7.69068 0.658296 7.71409 0.658778 7.744C0.659261 7.77326 0.656363 7.79798 0.652017 7.79798ZM0.657812 7.63346C0.657812 7.64451 0.651048 7.65361 0.642839 7.65361C0.63463 7.65361 0.626906 7.64451 0.626906 7.6328L0.638495 6.53646C0.638495 6.5254 0.645258 6.5163 0.653467 6.5163C0.661677 6.5163 0.669401 6.5254 0.669401 6.53646L0.657812 7.63346ZM1.03833 16.4946C1.06296 15.9243 1.06006 15.3098 1.02867 14.6518C0.973625 13.4969 0.967344 12.3882 0.982313 11.4128C1.00211 10.1409 0.977483 8.83189 0.986658 7.77521C0.997281 6.48379 0.930159 5.17741 0.926296 3.75788C0.925813 3.6831 0.941267 3.61027 0.970241 3.54654C1.06489 3.33911 1.13201 3.1915 1.17209 3.10436C1.19431 3.05624 1.21603 3.02373 1.23728 3.00747C1.24694 2.99967 1.25901 3.00877 1.25901 3.02438C1.25177 3.92434 1.24887 4.72612 1.25032 5.43036C1.25129 6.08192 1.30006 6.6379 1.29909 7.21794C1.2962 9.58685 1.30392 11.4642 1.28364 13.5106C1.27688 14.1634 1.28267 14.882 1.30054 15.6675C1.30199 15.7319 1.33579 15.7865 1.38215 15.8014C1.43865 15.8196 1.50722 15.8138 1.58738 15.7852C2.22431 15.5576 2.92547 15.4308 3.69085 15.4048C4.53349 15.3762 5.33123 15.4282 6.08406 15.5628C6.63697 15.6616 7.18312 15.8665 7.72155 16.1773C7.72589 16.1792 7.72782 16.1864 7.72637 16.1916C7.72444 16.2007 7.7172 16.2052 7.71044 16.2026C6.70603 15.7605 5.59103 15.6031 4.36545 15.7306C3.39436 15.8307 2.65456 15.9347 2.03212 16.1838C1.83606 16.2625 1.68202 16.2787 1.5217 16.3503C1.45507 16.3802 1.30344 16.438 1.06634 16.5245C1.05137 16.5291 1.03785 16.5148 1.03833 16.4946ZM4.10566 17.2964C3.4412 17.3367 2.9018 17.3439 2.90084 17.3114C2.89939 17.2788 3.43733 17.2197 4.10179 17.1793C4.76625 17.139 5.30564 17.1319 5.30661 17.1644C5.30757 17.1963 4.77011 17.2561 4.10566 17.2964ZM7.87124 16.6039C7.72927 16.6117 7.50183 16.6052 7.18891 16.585C7.00735 16.5733 6.77798 16.5688 6.50224 16.5727C6.08406 16.5772 5.35103 16.5961 4.30219 16.6286C3.51121 16.6533 2.8173 16.7424 2.00701 16.81C1.67719 16.8373 1.37635 16.8451 1.10352 16.8315C1.08662 16.8308 1.08034 16.8009 1.09435 16.7885C1.1407 16.7469 1.1943 16.7209 1.25466 16.7105C1.3778 16.6903 1.68058 16.6032 2.1625 16.4484C2.46189 16.3516 2.76756 16.2794 3.07855 16.2306C4.15201 16.0628 5.09317 16.0154 5.90153 16.0882C6.42884 16.1363 7.08558 16.3028 7.87172 16.5883C7.87462 16.5896 7.87655 16.5928 7.87655 16.5974C7.87607 16.6 7.87414 16.6039 7.87124 16.6039ZM8.22616 16.5681C8.21119 16.5687 8.19864 16.557 8.19816 16.5427C8.19768 16.5278 8.21023 16.5161 8.2252 16.5154C8.24017 16.5148 8.25273 16.5265 8.25321 16.5408C8.25369 16.5557 8.24113 16.5674 8.22616 16.5681ZM8.77666 17.3536C8.76266 17.3536 8.75155 17.338 8.75155 17.3198C8.75155 17.3009 8.76314 17.286 8.77666 17.286C8.79067 17.286 8.80226 17.3016 8.80226 17.3198C8.80177 17.338 8.79067 17.3536 8.77666 17.3536ZM8.96933 17.7418C8.91622 17.7451 8.88821 17.7438 8.88531 17.7379C8.87662 17.7152 8.89159 17.6892 8.90994 17.695C8.94809 17.7067 8.96933 17.7145 8.97416 17.7184C8.98237 17.7256 8.97899 17.7412 8.96933 17.7418ZM9.1002 15.9796C9.09054 16.0186 9.05481 16.0329 9.0297 16.0089C8.7926 15.7774 8.53087 15.5478 8.24451 15.3183C7.16477 14.456 5.88994 14.049 4.63153 13.8591C3.94051 13.7544 3.23935 13.7538 2.52805 13.8565C2.49907 13.8604 2.47059 13.8448 2.45272 13.8142C2.41602 13.7511 2.39622 13.6608 2.39477 13.5463C2.38511 12.872 2.40684 11.8621 2.45996 10.5161C2.49762 9.56995 2.43678 8.54448 2.43147 7.65947C2.41264 4.45236 2.4054 2.16538 2.40974 0.79852C2.41023 0.616446 2.53384 0.65221 2.65602 0.664565C2.8173 0.680822 3.0119 0.735444 3.17174 0.74975C3.94388 0.817378 4.78073 0.894108 5.56302 1.07813C6.66932 1.33824 7.67277 1.89552 8.57385 2.74997C8.71485 2.88392 8.82109 3.05104 8.93891 3.16874C8.97851 3.2084 8.99976 3.27278 8.99638 3.33846C8.98914 3.46396 9.00217 3.60377 9.03452 3.75918C9.04225 3.79624 9.04611 3.83461 9.04563 3.87362C9.01424 5.94277 9.00797 7.73035 9.02584 9.23571C9.03404 9.90223 9.03549 10.492 9.03018 11.0038C9.01714 12.1873 9.0437 12.9663 9.04515 14.0496C9.04611 14.6563 9.06688 15.2552 9.10792 15.847C9.1113 15.9003 9.10937 15.9451 9.1002 15.9796ZM9.67774 17.2964C9.67822 17.34 9.5715 17.379 9.43967 17.3835H9.42229C9.29046 17.3874 9.18277 17.3549 9.18229 17.3107V17.3074L9.18326 17.3062L9.67677 17.2925L9.67774 17.2938V17.2964ZM9.4445 16.0414C9.43725 16.0537 9.42229 16.0446 9.42374 16.0297C9.44836 15.7325 9.43146 15.4301 9.46816 15.1115C9.51548 14.6966 9.54204 14.2441 9.54784 13.7544C9.56764 12.0371 9.53094 10.5369 9.50534 8.90343C9.49955 8.52042 9.48651 8.19073 9.46768 7.91567C9.44546 7.60355 9.4049 7.02481 9.40008 6.59823C9.38849 5.69827 9.38365 4.9069 9.3851 4.22477C9.38559 3.91784 9.42373 3.67464 9.41504 3.34236C9.41359 3.28188 9.43195 3.22401 9.46623 3.18434C9.56716 3.06795 9.8057 2.81369 10.1819 2.42223C10.4948 2.09645 10.7483 1.87081 10.9424 1.74596C11.4181 1.43968 11.8503 1.19193 12.3863 1.03132C12.9817 0.852493 13.6273 0.745198 14.3227 0.709434C15.0682 0.671068 15.5468 0.663915 15.7573 0.688625C15.7655 0.689275 15.7738 0.688627 15.782 0.686676L16.0007 0.62165C16.0273 0.613846 16.0524 0.638556 16.0558 0.674321C16.0963 1.14056 16.0669 1.59575 16.0833 1.99826C16.0949 2.26812 16.0548 2.6999 16.0606 2.99772C16.0693 3.47696 16.0702 4.15194 16.0287 4.73068C15.9804 5.39525 15.9597 6.18532 15.9655 7.10154C15.9679 7.54307 15.9785 7.90722 15.9964 8.19464C16.0451 8.973 16.0485 9.36121 16.078 10.163C16.0896 10.4608 16.0954 10.7547 16.0958 11.0421C16.0987 12.0084 16.1036 12.8564 16.1103 13.586C16.1108 13.6159 16.0944 13.6413 16.0722 13.6445C15.9104 13.6705 15.7544 13.6601 15.6052 13.6133C15.57 13.6022 15.5342 13.597 15.498 13.5977C14.6293 13.6237 13.8832 13.6978 13.2593 13.8201C12.0907 14.049 11.0105 14.5698 10.0196 15.3814C9.79266 15.568 9.60047 15.7878 9.4445 16.0414ZM10.1688 16.5109C10.136 16.5356 10.1046 16.5427 10.0988 16.5291C10.093 16.5154 10.1148 16.4836 10.1481 16.4595C10.1809 16.4348 10.2123 16.4276 10.2181 16.4413C10.2234 16.4556 10.2022 16.4868 10.1688 16.5109ZM10.6257 17.1943C10.601 17.1884 10.5832 17.1683 10.5856 17.1481C10.588 17.128 10.6097 17.1163 10.6343 17.1215C10.659 17.1273 10.6768 17.1475 10.6744 17.1676C10.672 17.1878 10.6503 17.1995 10.6257 17.1943ZM17.0206 17.5786C17.0027 17.5767 16.9897 17.5624 16.9902 17.5467C16.9911 17.5311 17.0061 17.5201 17.0235 17.5214C17.0413 17.5233 17.0544 17.5376 17.0539 17.5532C17.0529 17.5695 17.038 17.5806 17.0206 17.5786ZM17.3499 17.5552C17.3161 17.5786 17.2813 17.5806 17.2736 17.5598C17.2654 17.5389 17.2866 17.5025 17.3205 17.4785C17.3543 17.4551 17.389 17.4531 17.3968 17.4739C17.405 17.4954 17.3837 17.5318 17.3499 17.5552ZM17.4228 16.7898C16.8298 16.7567 16.4899 16.7378 16.403 16.7333C15.4237 16.6897 13.5723 16.7092 11.8324 16.6507C11.4514 16.6377 11.0694 16.6338 10.686 16.6396C10.6377 16.6403 10.5754 16.6357 10.4972 16.624C10.49 16.6227 10.4837 16.6149 10.4837 16.6045C10.4832 16.5948 10.4885 16.5857 10.4958 16.5837C10.9178 16.4647 11.4186 16.3457 11.9975 16.2248C13.4013 15.9328 14.9108 16.0258 16.2354 16.4159C16.5348 16.5044 16.8144 16.5876 17.0747 16.6656C17.1857 16.6988 17.3045 16.7092 17.4291 16.6962C17.446 16.6943 17.4605 16.7138 17.4595 16.7365C17.4581 16.7729 17.4465 16.7911 17.4228 16.7898ZM17.5339 5.87969C17.503 6.65741 17.5049 7.12755 17.4668 8.3585C17.4513 8.84555 17.4441 9.41323 17.4455 10.0622C17.4504 12.1274 17.4682 14.2915 17.4986 16.5531C17.4991 16.5844 17.4755 16.6065 17.4537 16.5941C17.4315 16.5818 17.4054 16.5538 17.3755 16.5096C17.3572 16.4823 17.333 16.4641 17.306 16.4589L17.0872 16.4094C17.0582 16.4029 17.0312 16.3867 17.008 16.362C16.9979 16.3516 16.9834 16.3197 16.965 16.267C16.9573 16.2456 16.9419 16.2306 16.924 16.228C16.8583 16.2183 16.7473 16.2066 16.6603 16.1773C16.0427 15.966 15.371 15.8235 14.6457 15.7475C13.3704 15.6142 12.1419 15.7364 10.9613 16.1116C10.8309 16.1532 10.6648 16.2261 10.5151 16.2735C10.5069 16.2761 10.4982 16.2703 10.4958 16.2592C10.4943 16.2521 10.4967 16.2443 10.502 16.241C10.7894 16.0863 11.0651 15.9588 11.3302 15.8587C11.9372 15.6285 12.5278 15.4555 13.1029 15.3378C13.9996 15.1538 14.8857 15.1655 15.7617 15.3742C15.9201 15.4119 16.0727 15.4613 16.219 15.5225C16.5097 15.6434 16.6599 15.7058 16.669 15.7078C16.7521 15.7299 16.8366 15.698 16.8955 15.7527C16.9829 15.834 17.0756 15.7936 17.1321 15.6961C17.1432 15.6772 17.1505 15.6558 17.1539 15.6317C17.1587 15.5986 17.1611 15.3033 17.1611 14.748C17.1611 13.0768 17.1732 11.5422 17.1964 10.1448C17.2152 9.04258 17.1964 7.91372 17.1814 7.17177C17.1543 5.80166 17.1901 4.38863 17.2186 3.12192C17.2195 3.08225 17.2572 3.06599 17.2751 3.09916L17.4368 3.40218C17.445 3.41649 17.4499 3.43404 17.4508 3.45225C17.4537 3.51273 17.4735 3.81315 17.5093 4.35222C17.545 4.88154 17.5527 5.39069 17.5339 5.87969ZM17.7531 8.84165L17.7546 8.83905L17.7811 8.82994C17.7898 8.82734 17.798 8.83644 17.798 8.84815L17.7913 10.1175C17.7913 10.1279 17.7922 10.1383 17.7947 10.1487C17.8033 10.187 17.8178 10.2157 17.8381 10.2352C17.8545 10.2508 17.855 10.2826 17.8396 10.3002C17.8053 10.3379 17.7908 10.3919 17.7966 10.4641C17.8096 10.6416 17.8033 10.8724 17.8169 11.0701C17.8618 11.7061 17.8811 12.4038 17.8753 13.1633C17.8743 13.2934 17.8627 13.4845 17.8415 13.7375C17.8405 13.7518 17.8256 13.7551 17.8212 13.7414C17.7961 13.664 17.7802 13.3545 17.7739 12.8148C17.7589 11.4173 17.7517 10.0934 17.7531 8.84165ZM17.7855 17.3062C17.7676 17.2912 17.7676 17.2476 17.7855 17.2086C17.8033 17.1696 17.8323 17.1501 17.8507 17.1657C17.8685 17.1806 17.8685 17.2242 17.8507 17.2632C17.8328 17.3016 17.8038 17.3211 17.7855 17.3062ZM17.9337 17.5962C17.8927 17.63 17.8487 17.6332 17.8352 17.604C17.8217 17.5741 17.8434 17.5227 17.8845 17.4882C17.9255 17.4544 17.9695 17.4512 17.983 17.4804C17.9965 17.5103 17.9748 17.5617 17.9337 17.5962ZM18.1206 9.9549C18.1177 9.96596 18.108 9.97246 18.0994 9.96921C18.0907 9.96661 18.0849 9.95555 18.0858 9.9432C18.0936 9.84371 18.1008 9.78778 18.1071 9.77543C18.1124 9.76502 18.124 9.76893 18.1245 9.78193C18.1293 9.87167 18.1278 9.92889 18.1206 9.9549ZM18.1032 9.51272C18.0883 9.51272 18.0762 9.45485 18.0767 9.38397C18.0771 9.31309 18.0892 9.25522 18.1042 9.25522C18.1192 9.25522 18.1312 9.31309 18.1307 9.38397C18.1303 9.45485 18.1182 9.51272 18.1032 9.51272Z" fill="#F8F7FC"/>
<path d="M3.26496 3.48417C3.31953 3.51148 3.419 3.5531 3.56387 3.60967C3.80435 3.70396 3.83622 4.09737 3.89706 4.45892C3.90141 4.48428 3.91638 4.50444 3.93473 4.50899C3.99509 4.52655 4.0511 4.49533 4.10181 4.4147C4.11195 4.39779 4.11823 4.37699 4.11871 4.35618C4.12161 4.24693 4.13127 4.10387 4.1472 3.92635C4.17907 3.5661 4.50164 3.53749 4.69625 3.45946C4.7513 3.438 4.77399 3.35022 4.74116 3.28714C4.63878 3.08816 4.39589 3.10117 4.25778 2.93275C4.09698 2.73637 4.08973 2.54324 4.09456 2.27728C4.09553 2.23566 4.07525 2.1973 4.04579 2.18494L3.9101 2.12577C3.88065 2.11341 3.84974 2.13943 3.8454 2.18104C3.81691 2.4535 3.80821 3.09531 3.49578 3.12262C3.39244 3.13173 3.2722 3.18895 3.2186 3.32421C3.19494 3.38468 3.21667 3.46011 3.26496 3.48417ZM3.96467 3.14343C4.03276 3.14083 4.08877 3.22537 4.09167 3.33266C4.0936 3.43996 4.04096 3.52904 3.97336 3.53164C3.90527 3.53424 3.84925 3.44971 3.84636 3.34241C3.84443 3.23512 3.89706 3.14603 3.96467 3.14343Z" fill="#F8F7FC"/>
<path d="M10.4374 4.04785C10.6122 3.91714 10.8073 3.72726 11.0154 3.60696C11.5577 3.29289 11.8755 3.11667 11.9691 3.0796C12.9335 2.69855 13.9244 2.50932 14.9418 2.51257C14.9756 2.51322 14.9964 2.51062 15.0051 2.50542C15.0476 2.48005 15.0447 2.39877 15.0017 2.37861C14.697 2.2362 14.2508 2.21019 13.8857 2.26547C13.2073 2.36756 12.6404 2.51062 12.1835 2.69269C11.5394 2.9489 10.9541 3.3163 10.4282 3.79359C10.3742 3.84301 10.3495 3.90804 10.3553 3.98932C10.3582 4.04394 10.4022 4.07451 10.4374 4.04785Z" fill="#F8F7FC"/>
<path d="M5.81252 3.06467L5.87867 3.11215C5.91006 3.1349 5.94966 3.1193 5.96656 3.07638L6.04478 2.8813C6.06169 2.83903 6.0501 2.78506 6.01823 2.7623L5.95207 2.71483C5.87626 2.65891 5.78354 2.69142 5.74636 2.78506L5.7425 2.79351C5.70483 2.8878 5.73622 3.00875 5.81252 3.06467Z" fill="#F8F7FC"/>
<path d="M14.4562 3.50857C14.4509 3.58465 14.6117 3.66723 14.8159 3.69454C15.0197 3.72185 15.1902 3.68219 15.1955 3.60611C15.2008 3.53002 15.04 3.44744 14.8357 3.42013C14.632 3.39282 14.462 3.43248 14.4562 3.50857Z" fill="#F8F7FC"/>
<path d="M10.3982 5.16149C11.1486 4.52684 11.9608 4.10612 12.8349 3.89933C13.2564 3.79984 13.524 3.74327 13.6374 3.73026C13.6809 3.72571 13.7181 3.7075 13.749 3.67434C13.7697 3.65353 13.7644 3.60931 13.7403 3.59826C13.6374 3.55079 13.5211 3.52738 13.3907 3.52803C12.9802 3.52998 12.5673 3.62037 12.1525 3.80114C12.0294 3.85446 11.7778 3.97931 11.3978 4.17504C11.208 4.27323 10.9308 4.46831 10.5648 4.76028C10.488 4.82141 10.3151 5.00153 10.3267 5.11663C10.3316 5.16214 10.3692 5.1862 10.3982 5.16149Z" fill="#F8F7FC"/>
<path d="M7.65512 4.37225C7.79081 4.3768 7.90381 4.21878 7.90719 4.0211C7.91057 3.82277 7.80337 3.6589 7.66719 3.655C7.5315 3.65045 7.4185 3.80847 7.41512 4.00615C7.41174 4.20448 7.51894 4.36835 7.65512 4.37225Z" fill="#F8F7FC"/>
<path d="M4.47529 7.59314C4.59698 8.14392 4.99585 8.61406 5.37347 8.85596C5.90562 9.19669 6.41072 9.12972 6.8883 8.65633C6.90231 8.64267 6.91051 8.61991 6.91003 8.59585C6.90617 8.45344 6.85353 8.37346 6.75164 8.3546C6.14803 8.24406 5.79551 7.82464 5.69362 7.09699C5.61829 6.55402 5.69218 6.15931 5.9824 5.7698C6.20453 5.47263 6.43873 5.32372 6.68597 5.32632C6.70239 5.32632 6.71929 5.31851 6.73232 5.30551C6.86512 5.17285 6.79944 4.96347 6.68355 4.90039C6.13305 4.59932 5.51447 4.59542 5.03255 5.11953C4.47577 5.72558 4.27006 6.66326 4.47529 7.59314ZM4.85919 6.20093C5.08857 5.54611 5.51061 5.12279 6.06014 5.1605C6.07125 5.16115 6.07414 5.18001 6.06497 5.18781C5.37395 5.74119 5.09387 6.85964 5.53089 7.80578C5.70521 8.18358 5.8554 8.37021 6.07849 8.5822C6.08718 8.59065 6.08187 8.60951 6.07125 8.60756C5.556 8.51197 5.17211 8.19789 4.91955 7.66532C4.69935 7.20103 4.67956 6.71333 4.85919 6.20093Z" fill="#F8F7FC"/>
<path d="M14.8128 5.38537C14.5772 5.39838 14.3289 5.41919 14.1831 5.54274C14.1686 5.5551 14.1488 5.55119 14.1377 5.53364C13.8731 5.13633 13.5684 4.93604 13.2246 4.93084C12.4418 4.91979 11.8532 5.70726 11.8092 6.75158C11.8083 6.77174 11.7991 6.7893 11.7856 6.79775C11.5055 6.95837 11.3032 7.1476 11.1795 7.36283C11.0796 7.53645 11.0298 7.6587 11.0313 7.73088C11.0371 8.24004 11.3968 8.23224 11.6827 8.20038C11.8942 8.17697 12.0545 8.15681 12.1627 8.1399C12.2501 8.1269 12.3143 8.1399 12.3559 8.17957C12.7161 8.52681 13.085 8.55997 13.5211 8.45983C14.0624 8.33498 14.3734 7.73543 14.4685 7.01624C14.4728 6.98308 14.4859 6.95186 14.5062 6.93041C14.7882 6.62478 15.2015 6.39394 15.2836 5.86657C15.3348 5.53364 15.0103 5.37432 14.8128 5.38537ZM12.0096 7.7712L11.4234 7.76535C11.3983 7.7647 11.3794 7.73413 11.3843 7.70032C11.4137 7.49809 11.6986 7.2809 11.8396 7.1736C11.8445 7.17035 11.8498 7.17296 11.8522 7.17946L12.0285 7.73348C12.0338 7.75169 12.0241 7.7712 12.0096 7.7712ZM14.1141 7.23473C14.0064 7.54751 13.8011 7.85508 13.5587 7.99164C13.3168 8.12754 13.0092 8.10739 12.7687 7.98969C12.7499 7.98059 12.7504 7.94482 12.7697 7.93702C12.9435 7.86614 13.1666 7.75429 13.438 7.60213C13.7094 7.44932 13.9252 7.31536 14.0851 7.19897C14.1025 7.18596 14.1223 7.21067 14.1141 7.23473ZM14.1126 6.6664L13.1657 7.24514C13.1536 7.25229 13.142 7.25749 13.1299 7.26269L12.3935 7.55076C12.3834 7.55466 12.3723 7.55011 12.3665 7.53841C12.14 7.09102 12.0893 6.41345 12.3481 5.96086C12.6258 5.47511 12.9933 5.28784 13.4496 5.40033C13.4723 5.40619 13.4945 5.41594 13.5153 5.4296C13.875 5.67084 14.0827 6.06035 14.1397 6.59812C14.144 6.62608 14.1324 6.65469 14.1126 6.6664ZM14.9099 5.97907L14.4617 6.41735C14.4506 6.42775 14.4352 6.41995 14.4323 6.40174L14.3415 5.84576C14.341 5.83861 14.3439 5.83341 14.3487 5.83276C14.5009 5.81065 14.8089 5.76643 14.9137 5.90039C14.9311 5.92185 14.9297 5.96021 14.9099 5.97907Z" fill="#F8F7FC"/>
<path d="M11.1861 5.96653C11.1354 5.81957 10.9741 5.77535 10.8249 5.86834L10.5632 6.03221C10.414 6.12584 10.3353 6.31962 10.385 6.46658H10.3855C10.386 6.46853 10.3879 6.46984 10.3903 6.46854L11.1847 5.97238C11.1861 5.97108 11.1876 5.96848 11.1861 5.96653Z" fill="#F8F7FC"/>
<path d="M7.74756 6.54006C7.7152 6.53225 7.68961 6.49714 7.68478 6.45227C7.67657 6.37749 7.6674 6.23183 7.65629 6.01529C7.65194 5.92621 7.59544 5.85728 7.52832 5.86118C7.39311 5.86963 7.39118 6.28255 7.38925 6.42756C7.38877 6.45878 7.37428 6.48674 7.35303 6.49909L7.03191 6.68507C6.98652 6.71173 6.99039 6.80017 7.03819 6.81837L7.29846 6.91721C7.35786 6.93997 7.40181 7.00825 7.40953 7.09083L7.4472 7.4927C7.45444 7.56683 7.49307 7.6273 7.54667 7.64746L7.58868 7.66372C7.62635 7.67867 7.66498 7.64096 7.66595 7.58763L7.67657 7.02841C7.67706 6.99719 7.69492 6.97118 7.71762 6.96728L8.10972 6.89966C8.16526 6.89055 8.19037 6.80212 8.15415 6.74424C8.06144 6.59663 7.89532 6.57582 7.74756 6.54006Z" fill="#F8F7FC"/>
<path d="M3.50448 7.0239L3.55856 6.94716C3.60685 6.87824 3.6054 6.76964 3.55421 6.70397L3.48371 6.61358C3.43253 6.5479 3.35189 6.5505 3.30311 6.61943L3.24903 6.69616C3.20074 6.76509 3.20219 6.87369 3.25337 6.93936L3.32387 7.02975C3.37506 7.09543 3.4557 7.09282 3.50448 7.0239Z" fill="#F8F7FC"/>
<path d="M10.556 9.62498C10.6965 9.64969 10.8259 9.50858 10.8443 9.31155C10.8631 9.11452 10.7641 8.9344 10.6236 8.91034C10.4831 8.88563 10.3537 9.02674 10.3353 9.22377C10.3165 9.4208 10.4155 9.60027 10.556 9.62498ZM10.6028 9.18475C10.6366 9.18475 10.6632 9.22117 10.6632 9.26604C10.6632 9.31156 10.6361 9.34732 10.6028 9.34732C10.569 9.34732 10.5425 9.31091 10.5425 9.26604C10.5425 9.22117 10.569 9.18475 10.6028 9.18475Z" fill="#F8F7FC"/>
<path d="M7.83504 9.64062L7.87705 9.57755C7.89347 9.55414 7.89202 9.51642 7.87463 9.49366L7.7288 9.31614C7.71045 9.29468 7.68341 9.29598 7.66651 9.32004L7.62402 9.38247C7.57235 9.4592 7.57186 9.57169 7.62305 9.63412L7.64912 9.66598C7.69983 9.72971 7.78337 9.71735 7.83504 9.64062Z" fill="#F8F7FC"/>
<path d="M15.0825 9.66523C15.082 9.57094 14.8261 9.49747 14.5112 9.50137C14.1964 9.50462 13.9419 9.58395 13.9424 9.67889C13.9429 9.77318 14.1988 9.84666 14.5136 9.84276C14.8285 9.83951 15.0835 9.76017 15.0825 9.66523Z" fill="#F8F7FC"/>
<path d="M13.3152 9.75649C13.3379 9.73633 13.3355 9.69016 13.3104 9.67521C13.2186 9.61994 13.1235 9.60238 13.025 9.62189C12.4358 9.73828 11.853 9.96002 11.2774 10.2865C10.9389 10.4783 10.6622 10.676 10.4463 10.8801C10.413 10.9114 10.4005 10.9692 10.4154 11.02L10.4164 11.0232C10.4304 11.0707 10.4729 11.0895 10.5052 11.0635C10.753 10.8665 11.0292 10.6903 11.3339 10.5362C11.8931 10.2533 12.4513 10.04 13.0076 9.89695C13.1462 9.86118 13.2486 9.81436 13.3152 9.75649Z" fill="#F8F7FC"/>
<path d="M4.21212 10.2695C4.22033 10.2018 4.02959 10.1049 3.78718 10.0523C3.54429 10.0009 3.34099 10.0139 3.33326 10.0815C3.32505 10.1492 3.51579 10.246 3.7582 10.2987C4.00062 10.3507 4.20391 10.3377 4.21212 10.2695Z" fill="#F8F7FC"/>
<path d="M5.51087 10.2357C5.3066 10.2065 5.02411 10.1928 4.89952 10.2832C4.86041 10.3118 4.85703 10.3866 4.89421 10.4217C4.91063 10.438 4.93477 10.4471 4.96568 10.4497C5.75955 10.5258 6.52155 10.7696 7.25217 11.1806C7.35502 11.2385 7.43808 11.295 7.49989 11.3503C7.68001 11.5096 7.82633 11.6559 7.99824 11.641C8.04991 11.6364 8.07502 11.5532 8.04025 11.5018C7.76887 11.0934 7.43905 10.9146 7.02762 10.7117C6.53411 10.4685 6.02901 10.3105 5.51087 10.2357Z" fill="#F8F7FC"/>
<path d="M15.2083 10.7902C15.1745 10.6966 15.1079 10.6342 15.0316 10.6244C14.638 10.5737 14.2918 10.5646 13.9943 10.5971C13.2521 10.6784 12.5683 10.8546 11.9444 11.1264C11.8097 11.185 11.6586 11.2805 11.4891 11.4125C11.4471 11.4451 11.4418 11.5237 11.4794 11.566L11.4833 11.5693C11.5287 11.6206 11.5924 11.6317 11.646 11.5985C12.2974 11.196 13.0189 11.0686 13.7712 10.9678C14.2348 10.906 14.7718 10.9665 15.1421 10.958C15.2011 10.9567 15.2387 10.8735 15.2136 10.8026L15.2083 10.7902Z" fill="#F8F7FC"/>
<path d="M5.29664 11.5538C5.94613 11.6695 6.7429 11.9355 7.41025 12.3751C7.54256 12.4622 7.71399 12.5585 7.92357 12.6638C7.98103 12.6931 8.03125 12.6898 8.07326 12.6527C8.10465 12.6254 8.10369 12.5623 8.07133 12.537C7.92067 12.4206 7.78353 12.3081 7.65894 12.1989C7.54546 12.1 7.39866 12.007 7.21903 11.9212C6.92543 11.7807 6.71875 11.6832 6.59755 11.6292C5.65639 11.2085 4.52546 11.1181 3.47662 11.0544C3.44041 11.0524 3.41095 11.0941 3.41433 11.1428L3.41481 11.1461C3.41916 11.2007 3.45006 11.2443 3.49014 11.2508C4.23911 11.3717 4.84175 11.4725 5.29664 11.5538Z" fill="#F8F7FC"/>
<path d="M10.6776 12.1148L11.3174 11.6908C11.3392 11.6765 11.3479 11.6414 11.3372 11.6121L11.2875 11.4762C11.2773 11.447 11.2508 11.4353 11.2295 11.4496L10.5892 11.8729C10.4458 11.9685 10.3454 12.0881 10.3647 12.1402L10.3835 12.1902C10.4023 12.2435 10.5347 12.2091 10.6776 12.1148Z" fill="#F8F7FC"/>
<path d="M13.8053 12.2879C13.84 12.2717 13.8415 12.2066 13.8072 12.1878C13.6705 12.1136 13.5329 12.1735 13.3175 12.2235C13.2963 12.2287 13.2765 12.2079 13.2741 12.18C13.2644 12.0597 13.2118 12.0031 13.1167 12.0109C12.5087 12.0597 11.9814 12.2632 11.3927 12.5493C11.0417 12.7197 10.7186 12.9473 10.4231 13.2321C10.3931 13.2607 10.3888 13.3179 10.4134 13.355L10.4154 13.3576C10.4424 13.3979 10.4859 13.409 10.5216 13.3849C11.1194 12.9811 11.7428 12.6579 12.3923 12.4154C12.6294 12.3269 12.853 12.271 13.0631 12.2483C13.0727 12.2476 13.08 12.2593 13.0771 12.2717L13.0674 12.312C13.0674 12.3133 13.0669 12.3139 13.0659 12.3139C12.8501 12.3107 12.6439 12.3607 12.4464 12.4648C12.4092 12.4843 12.3889 12.5376 12.3986 12.5903L12.3996 12.5948C12.4092 12.6449 12.4483 12.6748 12.4855 12.6612C12.8076 12.5402 13.1422 12.4531 13.4875 12.4004C13.587 12.3848 13.6942 12.3399 13.8053 12.2879Z" fill="#F8F7FC"/>
<path d="M8.10188 13.5842C8.01351 13.5114 7.9261 13.4243 7.8387 13.3215C7.70204 13.1616 7.38188 13.0205 7.2008 12.921C6.7097 12.6511 6.19832 12.4729 5.6652 12.3858C4.94473 12.2681 4.2286 12.179 3.51779 12.1199C3.48447 12.1173 3.46081 12.1628 3.47481 12.2037L3.47674 12.2102C3.49413 12.2629 3.53034 12.3006 3.57332 12.311C3.91955 12.3969 4.24792 12.4599 4.55842 12.5009C5.66183 12.6453 6.55324 12.8657 7.49971 13.3801C7.67886 13.477 7.79572 13.581 7.95121 13.7052C7.99274 13.7384 8.04489 13.739 8.0869 13.7065L8.10091 13.6961C8.1323 13.6714 8.13326 13.6103 8.10188 13.5842Z" fill="#F8F7FC"/>
</svg>
