<svg width="10" height="12" viewBox="0 0 10 12" fill="none" xmlns="http://www.w3.org/2000/svg">
<path d="M7.65421 11.9484C6.4786 11.9484 5.52331 10.9931 5.52331 9.81748C5.52331 9.00381 6.12291 7.73059 6.75872 6.38026C7.32213 5.18416 7.95951 3.8291 7.95951 3.13977C7.95951 1.83979 6.90194 0.782188 5.60199 0.782188C4.30205 0.782188 3.24448 1.83979 3.24448 3.13977C3.24448 3.82595 3.59858 4.45391 3.97471 5.11963C4.35242 5.7885 4.74272 6.47941 4.74272 7.24901C4.74272 7.46462 4.56801 7.63931 4.3524 7.63931C4.1368 7.63931 3.96211 7.46462 3.96211 7.24901C3.96211 6.68558 3.63791 6.11114 3.29483 5.50364C2.88722 4.77969 2.46387 4.03212 2.46387 3.13977C2.46387 1.40857 3.87241 0 5.60357 0C7.33473 0 8.74325 1.40857 8.74325 3.13977C8.74325 4.00379 8.12319 5.3195 7.4685 6.71391C6.89879 7.92575 6.30862 9.17851 6.30862 9.81748C6.30862 10.5619 6.91452 11.1662 7.65734 11.1662C8.1342 11.1662 8.58115 10.9097 8.82194 10.4989C8.93053 10.3132 9.17133 10.2503 9.35703 10.3604C9.54274 10.469 9.60569 10.7098 9.49552 10.8955C9.11467 11.5455 8.40961 11.95 7.65734 11.95L7.65421 11.9484Z" fill="#F8F7FC"/>
<path d="M2.3701 9.61931C1.06229 9.61931 0 8.55541 0 7.24914C0 5.94287 1.06387 4.87897 2.3701 4.87897C3.67634 4.87897 4.74023 5.94287 4.74023 7.24914C4.74023 8.55541 3.67634 9.61931 2.3701 9.61931ZM2.3701 5.65958C1.49351 5.65958 0.780589 6.37252 0.780589 7.24914C0.780589 8.12575 1.49351 8.83869 2.3701 8.83869C3.2467 8.83869 3.95962 8.12575 3.95962 7.24914C3.95962 6.37252 3.2467 5.65958 2.3701 5.65958Z" fill="#F8F7FC"/>
</svg>
