<svg width="14" height="15" viewBox="0 0 14 15" fill="none" xmlns="http://www.w3.org/2000/svg">
<rect width="13.7562" height="14.0272" rx="6.87812" fill="#F4E4B1"/>
<path d="M6.87808 10.6403C4.87847 10.6403 3.25146 9.01324 3.25146 7.01364C3.25146 5.01403 4.87847 3.38702 6.87808 3.38702C8.87769 3.38702 10.5047 5.01403 10.5047 7.01364C10.5047 9.01324 8.87769 10.6403 6.87808 10.6403ZM6.87808 3.86185C5.14025 3.86185 3.72629 5.27581 3.72629 7.01364C3.72629 8.75147 5.14025 10.1654 6.87808 10.1654C8.61591 10.1654 10.0299 8.75147 10.0299 7.01364C10.0299 5.27581 8.61591 3.86185 6.87808 3.86185Z" fill="#0D1220"/>
<path d="M6.87805 7.69066C7.25214 7.69066 7.55541 7.3874 7.55541 7.0133C7.55541 6.6392 7.25214 6.33594 6.87805 6.33594C6.50395 6.33594 6.20068 6.6392 6.20068 7.0133C6.20068 7.3874 6.50395 7.69066 6.87805 7.69066Z" fill="#0D1220"/>
</svg>
