<svg width="14" height="15" viewBox="0 0 14 15" fill="none" xmlns="http://www.w3.org/2000/svg">
<rect width="13.7562" height="14.0272" rx="6.87812" fill="#E8D5E0"/>
<mask id="path-2-inside-1_2228_143" fill="white">
<path d="M6.87742 11.5254C6.71329 11.5254 6.58008 11.3922 6.58008 11.2281V8.67454C6.58008 8.51041 6.71329 8.3772 6.87742 8.3772C7.04155 8.3772 7.17476 8.51041 7.17476 8.67454V11.2281C7.17476 11.3922 7.04155 11.5254 6.87742 11.5254Z"/>
</mask>
<path d="M6.87742 11.5254C6.71329 11.5254 6.58008 11.3922 6.58008 11.2281V8.67454C6.58008 8.51041 6.71329 8.3772 6.87742 8.3772C7.04155 8.3772 7.17476 8.51041 7.17476 8.67454V11.2281C7.17476 11.3922 7.04155 11.5254 6.87742 11.5254Z" fill="white"/>
<path d="M6.87742 11.5254V10.1496C7.47313 10.1496 7.95589 10.6324 7.95589 11.2281H6.58008H5.20427C5.20427 12.1521 5.95345 12.9013 6.87742 12.9013V11.5254ZM6.58008 11.2281H7.95589V8.67454H6.58008H5.20427V11.2281H6.58008ZM6.58008 8.67454H7.95589C7.95589 9.27025 7.47313 9.75301 6.87742 9.75301V8.3772V7.00139C5.95345 7.00139 5.20427 7.75057 5.20427 8.67454H6.58008ZM6.87742 8.3772V9.75301C6.28171 9.75301 5.79895 9.27025 5.79895 8.67454H7.17476H8.55057C8.55057 7.75057 7.80139 7.00139 6.87742 7.00139V8.3772ZM7.17476 8.67454H5.79895V11.2281H7.17476H8.55057V8.67454H7.17476ZM7.17476 11.2281H5.79895C5.79895 10.6324 6.28171 10.1496 6.87742 10.1496V11.5254V12.9013C7.80139 12.9013 8.55057 12.1521 8.55057 11.2281H7.17476Z" fill="black" mask="url(#path-2-inside-1_2228_143)"/>
<mask id="path-4-inside-2_2228_143" fill="white">
<path d="M8.1551 10.248H5.60154C5.43741 10.248 5.3042 10.1148 5.3042 9.95066C5.3042 9.78653 5.43741 9.65332 5.60154 9.65332H8.1551C8.31923 9.65332 8.45244 9.78653 8.45244 9.95066C8.45244 10.1148 8.31923 10.248 8.1551 10.248Z"/>
</mask>
<path d="M8.1551 10.248H5.60154C5.43741 10.248 5.3042 10.1148 5.3042 9.95066C5.3042 9.78653 5.43741 9.65332 5.60154 9.65332H8.1551C8.31923 9.65332 8.45244 9.78653 8.45244 9.95066C8.45244 10.1148 8.31923 10.248 8.1551 10.248Z" fill="white"/>
<path d="M8.1551 10.248V8.87219H5.60154V10.248V11.6238H8.1551V10.248ZM5.60154 10.248V8.87219C6.19725 8.87219 6.68001 9.35495 6.68001 9.95066H5.3042H3.92839C3.92839 10.8746 4.67757 11.6238 5.60154 11.6238V10.248ZM5.3042 9.95066H6.68001C6.68001 10.5464 6.19725 11.0291 5.60154 11.0291V9.65332V8.27751C4.67757 8.27751 3.92839 9.02669 3.92839 9.95066H5.3042ZM5.60154 9.65332V11.0291H8.1551V9.65332V8.27751H5.60154V9.65332ZM8.1551 9.65332V11.0291C7.55939 11.0291 7.07663 10.5464 7.07663 9.95066H8.45244H9.82826C9.82826 9.02669 9.07907 8.27751 8.1551 8.27751V9.65332ZM8.45244 9.95066H7.07663C7.07663 9.35495 7.55939 8.87219 8.1551 8.87219V10.248V11.6238C9.07907 11.6238 9.82826 10.8746 9.82826 9.95066H8.45244Z" fill="black" mask="url(#path-4-inside-2_2228_143)"/>
<path d="M7.19385 3.41223C6.52878 3.95542 6.10415 4.78205 6.104 5.70813C6.104 6.63441 6.52965 7.46079 7.19482 8.00403C6.01368 7.9041 5.08545 6.9151 5.08545 5.70813C5.08569 4.50167 6.01328 3.51257 7.19385 3.41223Z" fill="white" stroke="black" stroke-width="1.37581"/>
<mask id="path-7-inside-3_2228_143" fill="white">
<path d="M7.39158 8.91489C5.62418 8.91489 4.18506 7.47694 4.18506 5.70836C4.18506 3.93978 5.623 2.50183 7.39158 2.50183C8.16586 2.50183 8.91398 2.78252 9.49795 3.29157C9.56813 3.35342 9.59072 3.45333 9.55266 3.53896C9.5146 3.62459 9.42421 3.67455 9.33144 3.66265C9.24105 3.65076 9.15304 3.64482 9.0686 3.64482C7.93156 3.64482 7.00623 4.57014 7.00623 5.70717C7.00623 6.8442 7.93156 7.76953 9.0686 7.76953C9.15304 7.76953 9.24105 7.76358 9.33144 7.75169C9.42421 7.73979 9.5146 7.78975 9.55266 7.87539C9.59072 7.96102 9.56932 8.06092 9.49795 8.12277C8.91398 8.63182 8.16586 8.91251 7.39158 8.91251V8.91489ZM7.39158 2.92763C5.85849 2.92763 4.61085 4.17527 4.61085 5.70836C4.61085 7.24145 5.85849 8.48909 7.39158 8.48909C7.84711 8.48909 8.29193 8.37729 8.68918 8.16796C7.49625 7.9848 6.58044 6.95244 6.58044 5.70955C6.58044 4.46666 7.49625 3.4343 8.68918 3.25114C8.29193 3.04181 7.84711 2.93001 7.39158 2.93001V2.92763Z"/>
</mask>
<path d="M7.39158 8.91489C5.62418 8.91489 4.18506 7.47694 4.18506 5.70836C4.18506 3.93978 5.623 2.50183 7.39158 2.50183C8.16586 2.50183 8.91398 2.78252 9.49795 3.29157C9.56813 3.35342 9.59072 3.45333 9.55266 3.53896C9.5146 3.62459 9.42421 3.67455 9.33144 3.66265C9.24105 3.65076 9.15304 3.64482 9.0686 3.64482C7.93156 3.64482 7.00623 4.57014 7.00623 5.70717C7.00623 6.8442 7.93156 7.76953 9.0686 7.76953C9.15304 7.76953 9.24105 7.76358 9.33144 7.75169C9.42421 7.73979 9.5146 7.78975 9.55266 7.87539C9.59072 7.96102 9.56932 8.06092 9.49795 8.12277C8.91398 8.63182 8.16586 8.91251 7.39158 8.91251V8.91489ZM7.39158 2.92763C5.85849 2.92763 4.61085 4.17527 4.61085 5.70836C4.61085 7.24145 5.85849 8.48909 7.39158 8.48909C7.84711 8.48909 8.29193 8.37729 8.68918 8.16796C7.49625 7.9848 6.58044 6.95244 6.58044 5.70955C6.58044 4.46666 7.49625 3.4343 8.68918 3.25114C8.29193 3.04181 7.84711 2.93001 7.39158 2.93001V2.92763Z" fill="white"/>
<path d="M7.39158 8.91489V10.2907H8.76739V8.91489H7.39158ZM9.49795 3.29157L10.4077 2.25941L10.402 2.25447L9.49795 3.29157ZM9.33144 3.66265L9.15196 5.02671L9.15649 5.02729L9.33144 3.66265ZM9.33144 7.75169L9.15649 6.38704L9.15196 6.38763L9.33144 7.75169ZM9.49795 8.12277L8.59689 7.08308L8.59392 7.08566L9.49795 8.12277ZM7.39158 8.91251V7.5367H6.01577V8.91251H7.39158ZM7.39158 2.92763H8.76739V1.55181H7.39158V2.92763ZM8.68918 8.16796L9.33056 9.38513L13.02 7.44098L8.89798 6.80809L8.68918 8.16796ZM8.68918 3.25114L8.89798 4.61101L13.02 3.97812L9.33056 2.03397L8.68918 3.25114ZM7.39158 2.93001H6.01577V4.30582H7.39158V2.93001ZM7.39158 8.91489V7.53908C6.3837 7.53908 5.56087 6.71678 5.56087 5.70836H4.18506H2.80925C2.80925 8.23711 4.86467 10.2907 7.39158 10.2907V8.91489ZM4.18506 5.70836H5.56087C5.56087 4.69961 6.38284 3.87764 7.39158 3.87764V2.50183V1.12602C4.86315 1.12602 2.80925 3.17994 2.80925 5.70836H4.18506ZM7.39158 2.50183V3.87764C7.83292 3.87764 8.26005 4.03764 8.59392 4.32867L9.49795 3.29157L10.402 2.25447C9.5679 1.5274 8.49879 1.12602 7.39158 1.12602V2.50183ZM9.49795 3.29157L8.58827 4.32372C8.21421 3.99404 8.08574 3.45199 8.29543 2.98019L9.55266 3.53896L10.8099 4.09773C11.0957 3.45467 10.922 2.71279 10.4076 2.25942L9.49795 3.29157ZM9.55266 3.53896L8.29543 2.98019C8.50812 2.50164 9.00558 2.2338 9.50639 2.29801L9.33144 3.66265L9.15649 5.02729C9.84284 5.11529 10.5211 4.74755 10.8099 4.09773L9.55266 3.53896ZM9.33144 3.66265L9.51092 2.2986C9.36521 2.27942 9.21714 2.269 9.0686 2.269V3.64482V5.02063C9.08894 5.02063 9.11689 5.02209 9.15196 5.02671L9.33144 3.66265ZM9.0686 3.64482V2.269C7.17174 2.269 5.63042 3.81028 5.63042 5.70717H7.00623H8.38204C8.38204 5.32999 8.69139 5.02063 9.0686 5.02063V3.64482ZM7.00623 5.70717H5.63042C5.63042 7.60405 7.17173 9.14534 9.0686 9.14534V7.76953V6.39372C8.6914 6.39372 8.38204 6.08436 8.38204 5.70717H7.00623ZM9.0686 7.76953V9.14534C9.21721 9.14534 9.36528 9.1349 9.51092 9.11574L9.33144 7.75169L9.15196 6.38763C9.11681 6.39226 9.08887 6.39372 9.0686 6.39372V7.76953ZM9.33144 7.75169L9.50639 9.11633C9.0055 9.18055 8.50809 8.91264 8.29543 8.43416L9.55266 7.87539L10.8099 7.31662C10.5211 6.66687 9.84292 6.29904 9.15649 6.38704L9.33144 7.75169ZM9.55266 7.87539L8.29543 8.43416C8.09089 7.97394 8.2048 7.42289 8.59689 7.08308L9.49795 8.12277L10.399 9.16245C10.9338 8.69895 11.0906 7.9481 10.8099 7.31662L9.55266 7.87539ZM9.49795 8.12277L8.59392 7.08566C8.26005 7.3767 7.83292 7.5367 7.39158 7.5367V8.91251V10.2883C8.49879 10.2883 9.5679 9.88694 10.402 9.15987L9.49795 8.12277ZM7.39158 8.91251H6.01577V8.91489H7.39158H8.76739V8.91251H7.39158ZM7.39158 2.92763V1.55181C5.09865 1.55181 3.23503 3.41543 3.23503 5.70836H4.61085H5.98666C5.98666 4.93511 6.61833 4.30344 7.39158 4.30344V2.92763ZM4.61085 5.70836H3.23503C3.23503 8.00129 5.09865 9.86491 7.39158 9.86491V8.48909V7.11328C6.61833 7.11328 5.98666 6.48161 5.98666 5.70836H4.61085ZM7.39158 8.48909V9.86491C8.07259 9.86491 8.73734 9.69773 9.33056 9.38513L8.68918 8.16796L8.0478 6.9508C7.84653 7.05686 7.62163 7.11328 7.39158 7.11328V8.48909ZM8.68918 8.16796L8.89798 6.80809C8.36504 6.72626 7.95625 6.2618 7.95625 5.70955H6.58044H5.20463C5.20463 7.64307 6.62745 9.24334 8.48039 9.52784L8.68918 8.16796ZM6.58044 5.70955H7.95625C7.95625 5.1573 8.36504 4.69284 8.89798 4.61101L8.68918 3.25114L8.48039 1.89126C6.62745 2.17576 5.20463 3.77603 5.20463 5.70955H6.58044ZM8.68918 3.25114L9.33056 2.03397C8.73734 1.72137 8.07259 1.55419 7.39158 1.55419V2.93001V4.30582C7.62163 4.30582 7.84653 4.36224 8.0478 4.4683L8.68918 3.25114ZM7.39158 2.93001H8.76739V2.92763H7.39158H6.01577V2.93001H7.39158Z" fill="black" mask="url(#path-7-inside-3_2228_143)"/>
</svg>
