<svg width="67" height="28" viewBox="0 0 67 28" fill="none" xmlns="http://www.w3.org/2000/svg">
<path d="M7.83205 21.2595C3.41128 21.2595 0.575317 17.8831 0.575317 14.0882C0.575317 10.2095 3.5225 7.30752 7.33159 7.30752C11.5021 7.30752 14.3937 10.4886 14.3937 14.3951C14.3937 18.2459 11.7524 21.2595 7.83205 21.2595ZM8.1657 20.3387C10.3344 20.3387 11.947 18.3575 11.947 15.2322C11.947 11.3257 9.88952 8.22835 7.05355 8.22835C4.69025 8.22835 3.04984 10.1816 3.04984 13.3069C3.04984 16.8786 5.1073 20.3387 8.1657 20.3387Z" fill="white"/>
<path d="M16.9636 20.9804C16.6299 20.9804 16.4353 20.8409 16.4353 20.6177V20.534C16.4353 19.9759 17.4084 20.0038 17.4084 19.0272V3.34516C17.4084 2.25691 16.4353 2.08948 16.4353 1.67093V1.61512C16.4353 1.39189 16.5743 1.30817 16.8246 1.16865L18.9932 0.108306C19.5493 -0.170734 19.8551 0.136209 19.8551 0.49896V19.0272C19.8551 20.0038 20.9395 19.9759 20.9395 20.534V20.6177C20.9395 20.8409 20.7171 20.9804 20.3834 20.9804H16.9636Z" fill="white"/>
<path d="M30.1238 21.2595C25.703 21.2595 22.8671 17.8831 22.8671 14.0882C22.8671 10.2095 25.8142 7.30752 29.6233 7.30752C33.7939 7.30752 36.6854 10.4886 36.6854 14.3951C36.6854 18.2459 34.0441 21.2595 30.1238 21.2595ZM30.4574 20.3387C32.6261 20.3387 34.2387 18.3575 34.2387 15.2322C34.2387 11.3257 32.1813 8.22835 29.3453 8.22835C26.982 8.22835 25.3416 10.1816 25.3416 13.3069C25.3416 16.8786 27.399 20.3387 30.4574 20.3387Z" fill="white"/>
<path d="M50.5714 7.58656C51.5167 7.58656 51.6835 8.00512 51.3499 8.28416C50.8494 8.81433 49.9041 8.70271 49.07 8.92595C50.2655 9.81887 51.0162 11.3536 51.0162 12.7767C51.0162 15.0927 49.7373 16.9065 47.6798 17.7994C50.0987 18.3296 51.2943 19.669 51.2943 21.3153C51.2943 23.9104 48.5973 25.5009 44.8438 25.5009C40.5621 25.5009 38.5046 23.0453 38.5046 21.2595C38.5046 20.7014 38.8105 20.1991 39.5333 20.1991C41.2572 20.1991 40.3675 24.5801 45.0107 24.608C47.2906 24.608 48.8197 23.3523 48.8197 21.4827C48.8197 19.6969 47.6242 18.4691 45.7335 18.3017C45.3721 18.3296 45.0385 18.3575 44.677 18.3575C41.3406 18.3575 38.727 15.9577 38.727 12.9441C38.727 9.67935 41.1738 7.30752 44.8716 7.30752C46.7623 7.30752 47.0681 7.58656 50.5714 7.58656ZM45.1219 17.4366C47.2627 17.4366 48.5973 15.7903 48.5973 13.6417C48.5973 10.7397 46.9013 8.20044 44.4268 8.20044C42.4249 8.20044 41.146 9.81887 41.146 11.9396C41.146 14.9253 42.8698 17.4366 45.1219 17.4366Z" fill="white"/>
<path d="M66.5919 7.58656C66.8143 7.58656 66.9811 7.69817 66.9811 7.92141V8.00512C66.9811 8.5632 66.2582 8.53529 65.73 9.73516L60.4751 21.3711C59.3907 23.8266 58.1118 26.8961 55.387 26.8961C53.3018 26.8961 51.9672 25.5009 51.9672 24.4126C51.9672 23.7708 52.3564 23.2965 53.0237 23.2965C54.4695 23.2965 54.0803 25.9194 55.8041 25.9194C56.9996 25.9194 58.223 23.9662 59.1961 21.5106L53.8578 9.70726C53.3018 8.53529 52.5233 8.5632 52.5233 8.00512V7.92141C52.5233 7.69817 52.7179 7.58656 52.9403 7.58656H56.5548C56.7772 7.58656 56.944 7.72608 56.944 7.92141V8.00512C56.944 8.5632 55.9431 8.53529 56.4714 9.73516L60.4751 19.1946L64.451 9.95839C65.0627 8.53529 63.3945 8.5632 63.3945 8.00512V7.92141C63.3945 7.72608 63.5613 7.58656 63.8115 7.58656H66.5919Z" fill="white"/>
<path d="M0.374872 2.22457C0.669726 2.07992 1.12529 2.28445 1.70708 2.80269C2.28695 3.31921 2.98305 4.13942 3.75013 5.20212C5.28395 7.32707 7.09679 10.415 8.82448 13.962C10.5522 17.5091 11.8665 20.8415 12.5952 23.3615C12.9596 24.6218 13.1769 25.6768 13.2268 26.4534C13.2769 27.2324 13.158 27.7189 12.8631 27.8635C12.5683 28.0082 12.1127 27.8037 11.5309 27.2854C11.0439 26.8516 10.4749 26.2036 9.85078 25.3777C9.73175 25.2202 9.61071 25.0562 9.48786 24.886C8.75199 23.8665 7.95192 22.6254 7.12782 21.2183H7.41776C8.48559 22.9889 9.49557 24.4267 10.3366 25.3777C11.1859 26.338 11.8628 26.8019 12.2528 26.6105C13.3601 26.0673 11.7354 20.4484 8.62398 14.0604C5.51253 7.67244 2.09255 2.93436 0.985199 3.47758C0.572119 3.68024 0.539218 4.58924 0.821864 5.98098C1.05232 7.11576 1.49255 8.57149 2.10753 10.227L2.09917 10.2107L1.93812 10.4854L1.93463 10.4856C1.39986 9.10864 0.96429 7.83853 0.642783 6.7266C0.568386 6.4693 0.500104 6.22055 0.438141 5.98098C0.196613 5.04714 0.0508564 4.25272 0.0111119 3.63476C-0.0389931 2.85567 0.0800186 2.36923 0.374872 2.22457Z" fill="white"/>
</svg>
