<svg width="23" height="40" viewBox="0 0 23 40" fill="none" xmlns="http://www.w3.org/2000/svg">
<path d="M12.6018 32.1463C12.6272 33.1829 12.5849 34.2889 12.7004 35.3783C12.8131 36.4399 12.5962 37.4404 12.3567 38.4436C12.2102 39.0605 11.7819 39.4441 11.1339 39.5691C10.4267 39.7053 9.71958 39.8581 9.00958 39.9832C8.46863 40.0805 7.98404 39.747 7.80373 39.2106C7.61778 38.6492 7.51916 38.0796 7.58678 37.4876C7.66567 36.779 7.75581 36.0703 7.82343 35.3617C8.21506 31.296 8.62641 31.76 4.5383 31.4877C3.88466 31.4432 3.23665 31.3376 2.58864 31.2487C2.13785 31.1876 1.91527 30.893 1.83357 30.4733C1.78285 30.2204 1.69269 29.9703 1.67297 29.7119C1.64198 29.3256 1.34896 29.1922 1.08412 29.0088C0.912255 28.8893 0.954527 28.6225 1.12921 28.5364C1.30389 28.4502 1.47292 28.3279 1.65887 28.2862C2.88446 28.0111 4.12415 27.8166 5.35537 28.2029C6.19778 28.4669 7.0402 28.4058 7.89107 28.3474C8.13618 28.3307 8.40947 28.1056 8.463 27.8861C8.74474 26.7467 8.85462 25.5795 8.84899 24.4151C8.84335 23.3868 8.69685 22.3586 8.60951 21.2915C8.04884 21.0358 7.51915 20.7829 6.98102 20.5495C5.49341 19.9047 4.28755 18.9654 3.53248 17.5064C3.20565 16.8728 2.79431 16.2809 2.44777 15.6556C1.99698 14.8413 1.75467 13.9854 1.91527 13.0405C1.99134 12.5931 2.02796 12.1401 2.04768 11.6871C2.1153 10.1309 2.77177 8.81919 3.74378 7.63255C3.9889 7.3352 4.20866 7.0156 4.45941 6.68489C4.23401 6.47369 4.05934 6.28194 3.85367 6.12909C2.62808 5.22313 1.62788 4.13376 0.940427 2.76926C0.740389 2.37186 0.40512 2.03837 0.137463 1.67154C-0.06821 1.39364 -0.0484976 0.937875 0.233247 0.818377C0.610784 0.657194 0.867186 0.395966 1.12921 0.106948C1.30107 -0.0820261 1.70959 -0.00421208 1.80538 0.212552C1.96316 0.565488 2.1153 0.923992 2.25899 1.28249C2.45903 1.78827 2.81685 2.16065 3.2761 2.43299C3.94946 2.83317 4.62283 3.24725 5.33001 3.58629C6.09071 3.95312 6.85424 4.31161 7.71919 4.45056C8.62077 4.59785 9.48573 4.92579 10.407 5.03139C11.4072 5.14811 12.3708 5.1231 13.2949 4.68401C13.4132 4.62843 13.5344 4.57285 13.6612 4.54506C15.2305 4.1949 16.3096 3.18612 17.2422 1.97724C17.3999 1.77159 17.5605 1.56871 17.7267 1.37418C17.8902 1.18243 18.2846 1.22134 18.4086 1.43255C18.4734 1.54371 18.572 1.64932 18.5945 1.76882C18.7607 2.68867 18.665 3.58351 18.1888 4.40054C17.6281 5.36487 16.9576 6.23747 15.9658 6.82384C15.7433 6.95446 15.532 7.11008 15.3319 7.2407C15.3488 7.40744 15.3178 7.56585 15.3855 7.64644C15.7151 8.0494 16.0814 8.42178 16.4138 8.82196C17.2252 9.79184 17.7127 10.9062 17.9521 12.1429C18.4593 14.7635 18.3776 15.5472 17.2985 17.99C17.0308 18.5958 16.6448 19.1155 16.1236 19.5268C15.5601 19.9714 15.0023 20.4272 14.3993 20.8162C14.0246 21.0608 13.571 21.1914 13.154 21.3693C12.8977 21.4776 12.7342 21.6694 12.6525 21.9306C12.399 22.7421 12.2299 23.5647 12.3088 24.4179C12.4102 25.5156 12.506 26.6133 12.6159 27.7082C12.6356 27.8972 12.7089 28.0834 12.7765 28.264C12.8498 28.4558 13.0019 28.5947 13.2104 28.5947C14.1937 28.5864 15.1798 28.5642 16.1631 28.5475C16.4899 28.5419 16.828 28.4891 17.1464 28.5419C18.958 28.8393 20.8006 28.906 22.6037 29.2422C22.9193 29.3006 23.0911 29.6925 22.9503 30.0065C22.8967 30.126 22.8629 30.251 22.7981 30.365C22.7023 30.5345 22.584 30.6929 22.4798 30.8568C22.1022 31.4543 21.5669 31.7378 20.8428 31.7572C19.4651 31.7906 18.0902 31.8962 16.7125 31.9212C15.5996 31.9407 14.4839 31.8851 13.3682 31.8573C13.1005 31.8518 12.8498 31.8823 12.5877 32.1435L12.6018 32.1463ZM10.376 8.43291C8.9166 8.31619 7.50226 8.73027 6.40909 9.5473C6.04564 9.81965 5.68219 10.0975 5.3131 10.3616C4.86513 10.6811 4.61719 11.123 4.48195 11.6344C4.33545 12.1957 4.16358 12.7543 4.07624 13.324C3.85648 14.7274 3.93537 16.0363 5.40326 16.8395C5.91604 17.1201 6.38091 17.4786 6.88242 17.7788C7.45999 18.1262 8.10237 18.2234 8.77011 18.1956C10.0971 18.14 11.3593 17.8566 12.4779 17.1062C12.7483 16.9256 13.047 16.7783 13.2949 16.5727C14.5261 15.5583 15.2671 14.3439 14.867 12.682C14.822 12.4931 14.822 12.2957 14.7769 12.1096C14.5205 11.0813 14.1035 10.1559 13.0921 9.61678C12.8638 9.4945 12.6582 9.32775 12.4525 9.16934C11.8073 8.67745 11.0635 8.46626 10.376 8.43291ZM16.1574 30.8346L16.1743 30.7624L16.0306 30.7707L16.1546 30.8346H16.1574Z" fill="white"/>
</svg>
