<svg width="10" height="10" viewBox="0 0 10 10" fill="none" xmlns="http://www.w3.org/2000/svg">
<path d="M0.15315 4.8271C0.113747 4.7877 0.0897355 4.73413 0.0897356 4.6738C0.0897356 4.55436 0.186397 4.45769 0.305838 4.45769L9.04231 4.45769C9.16175 4.45769 9.25841 4.55435 9.25841 4.6738C9.25841 4.79324 9.16175 4.8899 9.04231 4.8899L0.305839 4.8899C0.246734 4.8899 0.191937 4.86589 0.152534 4.82649L0.15315 4.8271Z" fill="#F8F7FC"/>
<path d="M6.70546 7.01117C6.62112 6.92682 6.62112 6.79014 6.70547 6.70579L8.73659 4.67467L6.70547 2.64355C6.62112 2.5592 6.62112 2.42252 6.70547 2.33817C6.78982 2.25383 6.92649 2.25382 7.01084 2.33817L9.19465 4.52198C9.279 4.60633 9.279 4.74301 9.19465 4.82736L7.01084 7.01117C6.92649 7.09551 6.78981 7.09551 6.70546 7.01117Z" fill="#F8F7FC"/>
</svg>
