<svg width="19" height="19" viewBox="0 0 19 19" fill="none" xmlns="http://www.w3.org/2000/svg">
<path d="M18.287 10.7063C18.2426 10.2604 18.1681 9.88682 18.0788 9.3317C17.9366 8.45448 17.8891 7.6986 17.7406 6.71643C17.6824 6.32885 17.6444 6.09149 17.6269 6.00194C17.6111 5.91769 17.5419 5.67455 17.4203 5.27061C17.349 5.03373 17.2163 4.82237 17.1217 4.59801C17.0557 4.44058 16.9717 4.27688 16.8691 4.10548C16.5774 3.61921 16.2604 3.15846 15.9174 2.72466C15.8133 2.59274 15.7023 2.47142 15.5845 2.36116C14.9466 1.76175 14.155 1.29088 13.3978 0.969753C12.8535 0.739135 12.3493 0.554738 11.8838 0.414634C11.2681 0.229755 10.5806 0.0963906 9.82122 0.01358C9.60667 -0.00952993 9.39106 -0.00326934 9.17281 0.0333214C8.63485 0.124317 8.0266 0.173907 7.74018 0.223016C6.78157 0.387674 5.84727 0.650065 4.93887 1.01164C4.60013 1.14645 4.26404 1.31351 3.93006 1.51236C3.73612 1.62839 3.52527 1.78967 3.29803 1.9967C2.90804 2.35154 2.71304 2.52919 2.71251 2.52967C2.4504 2.80411 2.2443 3.0458 2.09422 3.25571C1.87703 3.55951 1.62338 3.98801 1.33273 4.54168C1.17578 4.84115 1.04631 5.15602 0.943792 5.48534C0.782086 6.00676 0.687494 6.33174 0.660014 6.46125C0.599243 6.75157 0.502534 7.29562 0.369893 8.09243C0.248878 8.8228 0.20396 9.50936 0.122579 10.3057C-0.0016068 11.519 -0.0312006 12.7751 0.0327418 14.075C0.0607496 14.6393 0.128394 15.5507 0.236726 16.8087C0.275831 17.2642 0.293797 17.5482 0.291154 17.6619C0.290626 17.6792 0.295912 17.6965 0.305953 17.7115C0.360383 17.7943 0.431723 17.8506 0.519974 17.8809C0.538998 17.8877 0.560137 17.8896 0.580747 17.8862C0.676925 17.8718 0.742451 17.8665 0.777329 17.8713C1.2561 17.9315 1.60647 17.9647 1.82789 17.9714C2.91755 18.0018 3.9977 18.0336 5.05883 17.9613C5.09159 17.9589 5.1196 17.983 5.11749 18.0128C5.11379 18.0908 5.14285 18.1491 5.20574 18.1876C5.26017 18.2213 5.34366 18.1963 5.39333 18.1313C5.46256 18.0413 5.50273 17.9382 5.51382 17.8241C5.61159 16.8116 5.68768 16.0918 5.74106 15.6643C5.76536 15.4698 5.81927 15.1063 5.90488 14.8545C5.99841 14.5786 6.12947 14.3143 6.30016 14.0611C6.50942 13.7495 6.60718 13.5878 6.9195 13.4265C7.23445 13.2647 7.70953 13.1029 7.99278 12.8786C8.17774 12.7317 8.33257 12.5695 8.45782 12.3923C8.46997 12.3755 8.47684 12.3562 8.47948 12.3365L8.52757 11.9176C8.53127 11.8844 8.52123 11.8516 8.49903 11.8252C8.34843 11.6446 8.22794 11.4747 8.05408 11.3167C7.94205 11.2147 7.86965 11.1348 7.83636 11.0765C7.42893 10.3586 7.41783 9.39621 8.07363 8.80258C8.4668 8.44678 8.91651 8.30282 9.42329 8.37071C9.71817 8.41019 9.9676 8.51804 10.1705 8.69377C10.3898 8.88298 10.5404 9.09819 10.6213 9.33796C10.7756 9.79341 10.7909 10.2359 10.6054 10.6769C10.5394 10.8338 10.4876 10.9489 10.4506 11.0216C10.3512 11.218 10.1827 11.4212 9.94487 11.6311C9.87987 11.6884 9.8302 11.7693 9.79532 11.8743C9.78792 11.8955 9.79268 11.9181 9.80642 11.9354L9.95227 12.1208C9.96073 12.1309 9.96548 12.1439 9.96601 12.1569C9.97658 12.4072 10.3084 12.6682 10.5309 12.7886C10.7328 12.8978 11.062 13.0832 11.517 13.3446C12.3583 13.828 12.6157 14.6927 12.7467 15.5305C12.8587 16.2478 12.9724 16.9849 13.0881 17.7418C13.1119 17.8987 13.1193 18.0764 13.2392 18.1308C13.2836 18.1505 13.3365 18.1303 13.355 18.088C13.3898 18.0051 13.4094 17.9156 13.412 17.8203C13.4126 17.8082 13.4231 17.7991 13.4363 17.8C13.7973 17.8318 14.0102 17.8525 14.0763 17.8612C14.3056 17.8939 14.5181 17.9064 14.7131 17.9007C15.0751 17.8901 15.6099 17.9199 16.105 17.8776C16.4585 17.8477 16.9289 17.8833 17.1714 17.8506C17.3416 17.8275 17.5419 17.8116 17.7712 17.8029C17.8933 17.7986 17.9641 17.8323 18.0619 17.8973C18.0772 17.9069 18.0973 17.9055 18.111 17.8939C18.2886 17.7375 18.3721 17.6181 18.3351 17.3879C18.3293 17.3523 18.3277 17.3167 18.3293 17.2806C18.3557 16.7755 18.3684 16.4895 18.3662 16.4216C18.3456 15.8251 18.3462 15.3653 18.3678 15.0418C18.4207 14.2532 18.473 13.4563 18.4318 12.6003C18.4043 12.0336 18.3562 11.4024 18.287 10.7063ZM0.450747 11.5994C0.469243 11.6244 0.478227 11.6398 0.477699 11.6432C0.476113 11.66 0.453388 11.6677 0.43912 11.6567C0.432778 11.6514 0.430136 11.6345 0.429608 11.6056C0.430136 11.595 0.444406 11.5907 0.450747 11.5994ZM0.433307 12.3057C0.443348 12.3057 0.451805 12.3514 0.451805 12.4087C0.451805 12.4655 0.443877 12.5117 0.433836 12.5117C0.423796 12.5117 0.415342 12.466 0.415342 12.4087C0.415342 12.3524 0.423267 12.3057 0.433307 12.3057ZM0.417984 10.4506C0.42274 10.4506 0.426966 10.4641 0.426966 10.4805C0.426966 10.4968 0.423268 10.5103 0.417984 10.5103C0.413228 10.5103 0.409001 10.4968 0.409001 10.4805C0.409001 10.4641 0.412699 10.4506 0.417984 10.4506ZM0.541639 14.4034L0.533714 14.4038C0.504121 14.4053 0.460259 14.0832 0.434365 13.6841L0.374121 12.7337C0.374121 12.7327 0.374122 12.7322 0.375179 12.7322L0.486681 12.7265C0.48721 12.7265 0.487739 12.7269 0.487739 12.7274L0.548509 13.6783C0.573875 14.0769 0.570175 14.4019 0.541639 14.4034ZM0.800581 9.31196C0.809036 9.31196 0.815905 9.32929 0.816433 9.35096C0.816962 9.37262 0.810094 9.39044 0.801638 9.39044C0.793183 9.39044 0.786311 9.3731 0.785782 9.35144C0.785254 9.32929 0.792125 9.31196 0.800581 9.31196ZM0.67798 10.2513C0.684321 10.013 0.765173 9.73323 0.772571 9.50454C0.7731 9.48239 0.806922 9.47662 0.816962 9.49732L0.901513 9.67594C0.910497 9.69616 0.915254 9.71783 0.913141 9.73997L0.773629 11.3909C0.772572 11.4073 0.757249 11.4203 0.739282 11.4203C0.721315 11.4203 0.705988 11.4073 0.704931 11.3909C0.675867 11.0361 0.667411 10.6557 0.67798 10.2513ZM0.872449 17.4712L0.762005 17.4635C0.723956 17.4611 0.695419 17.4303 0.698061 17.3961L0.753019 16.7476C0.753547 16.738 0.762532 16.7302 0.773629 16.7302C0.784198 16.7302 0.793183 16.7375 0.794768 16.7471L0.845497 17.1785C0.847083 17.1915 0.850256 17.2045 0.855012 17.2165L0.928464 17.4043C0.942204 17.439 0.912083 17.4746 0.872449 17.4712ZM7.9505 11.9094C7.96266 11.9017 7.98327 11.9099 7.99701 11.9272C8.01128 11.945 8.01233 11.9658 8.00018 11.9735C7.98802 11.9812 7.96741 11.973 7.95367 11.9556C7.93993 11.9378 7.93888 11.9171 7.9505 11.9094ZM7.63713 12.1501C7.6403 12.116 7.6625 12.0895 7.68575 12.0914C7.709 12.0933 7.72644 12.1227 7.72274 12.1569C7.71957 12.1911 7.69738 12.2176 7.67413 12.2156C7.65034 12.2142 7.63343 12.1848 7.63713 12.1501ZM10.4046 12.0019C10.3951 12.0067 10.3782 11.9946 10.366 11.9749C10.3544 11.9556 10.3528 11.9354 10.3623 11.9311C10.3719 11.9263 10.3888 11.9383 10.4009 11.958C10.4125 11.9773 10.4141 11.9975 10.4046 12.0019ZM15.9729 10.7279C15.9729 10.5758 16.1087 10.452 16.2757 10.452C16.4427 10.452 16.5785 10.5758 16.5785 10.7279C16.5785 10.8801 16.4427 11.0038 16.2757 11.0038C16.1092 11.0043 15.9729 10.8801 15.9729 10.7279ZM16.1119 11.9783C16.1124 11.9816 16.1098 11.985 16.1055 11.9855L16.1008 11.986C16.0553 11.9922 15.994 11.8348 15.9639 11.6355L15.9607 11.6152C15.9301 11.4154 15.9428 11.2489 15.9877 11.2436L15.9924 11.2431C15.9972 11.2426 16.0004 11.245 16.0009 11.2489L16.1119 11.9783ZM16.1774 7.05922C16.1758 7.05344 16.179 7.04718 16.1853 7.04526L16.2435 7.02889C16.2498 7.02745 16.2567 7.03033 16.2588 7.03611L16.3481 7.30091C16.4638 7.6413 16.5394 7.92199 16.5172 7.92825L16.5161 7.92873C16.4939 7.93499 16.3824 7.66393 16.2672 7.32402L16.1774 7.05922ZM16.578 11.2527H16.5801C16.6165 11.2522 16.6461 11.2782 16.6472 11.3115L16.6958 13.6133C16.6963 13.646 16.6678 13.6735 16.6313 13.6744H16.6292C16.5928 13.6749 16.5632 13.6489 16.5621 13.6157L16.5135 11.3139C16.513 11.2811 16.5415 11.2537 16.578 11.2527ZM16.486 6.55562L16.4881 6.55465C16.4998 6.55032 16.5124 6.55514 16.5177 6.56573L16.6705 6.89456C16.6752 6.90515 16.6699 6.91719 16.6583 6.92152L16.6562 6.92249C16.6446 6.92682 16.6319 6.92201 16.6266 6.91141L16.4739 6.58258C16.4691 6.57199 16.4749 6.56043 16.486 6.55562ZM14.461 1.92256C15.2933 2.58408 16.0226 3.29519 16.4258 4.22392C16.44 4.25714 16.4358 4.28218 16.4126 4.29903C16.4036 4.30577 16.3898 4.30432 16.383 4.29518C16.1616 4.00775 15.9729 3.74295 15.8181 3.50077C15.7303 3.36404 15.6537 3.26101 15.5877 3.19216C15.4682 3.06843 15.389 2.92543 15.26 2.78436C15.1924 2.7107 14.9287 2.4252 14.4673 1.92882C14.4631 1.92448 14.461 1.92256 14.4605 1.92208H14.461V1.92256ZM15.901 5.02699C15.8883 5.03421 15.7985 4.91963 15.7013 4.7723L15.6902 4.75545C15.6875 4.75063 15.6891 4.74534 15.6933 4.74245L15.734 4.7203C15.7393 4.7179 15.7451 4.71886 15.7483 4.72319L15.7589 4.74004C15.8566 4.88737 15.9259 5.01303 15.9132 5.02025L15.901 5.02699ZM15.9037 13.3211C15.9016 13.4019 15.8825 13.4669 15.8619 13.4665C15.8413 13.466 15.8265 13.4 15.8292 13.3191C15.8313 13.2382 15.8503 13.1732 15.8709 13.1737C15.891 13.1737 15.9058 13.2402 15.9037 13.3211ZM14.731 4.57538C14.7141 4.58309 14.6682 4.53061 14.628 4.45791C14.5873 4.38569 14.5688 4.3207 14.5857 4.31251C14.6026 4.30481 14.6486 4.35728 14.6888 4.42998C14.7295 4.5022 14.7479 4.5672 14.731 4.57538ZM14.4177 5.04481C14.3923 5.05443 14.3215 4.9514 14.2597 4.81467C14.1978 4.67794 14.1677 4.5595 14.1925 4.55035C14.2179 4.54072 14.2887 4.64375 14.3506 4.78049C14.4129 4.91674 14.4425 5.03518 14.4177 5.04481ZM13.4728 2.36068L13.5188 2.30965C13.5246 2.30339 13.5341 2.30243 13.541 2.30772L14.2264 2.82047C14.2327 2.82577 14.2343 2.83444 14.2285 2.8407L14.1825 2.89173C14.1767 2.89799 14.1672 2.89895 14.1603 2.89366L13.4749 2.3809C13.468 2.37561 13.467 2.36694 13.4728 2.36068ZM14.1096 3.98127C14.0927 3.98175 14.0763 3.93553 14.0726 3.87727C14.0684 3.81902 14.0789 3.77087 14.0953 3.76991C14.1122 3.76943 14.1286 3.81565 14.1323 3.8739C14.1365 3.93216 14.126 3.98031 14.1096 3.98127ZM13.7228 6.17864C13.7064 6.18778 13.6752 6.16756 13.6535 6.13434C13.6319 6.10112 13.6276 6.06646 13.6445 6.05779C13.6609 6.04865 13.6921 6.06887 13.7138 6.10209C13.7354 6.13531 13.7397 6.16997 13.7228 6.17864ZM12.3414 1.10601C12.3546 1.08241 12.5575 1.15271 12.7953 1.26296C13.0326 1.37322 13.2144 1.48154 13.2012 1.50513C13.188 1.52872 12.985 1.45843 12.7472 1.34818C12.5105 1.23793 12.3287 1.1296 12.3414 1.10601ZM12.7964 2.01789C12.799 2.03763 12.7747 2.05111 12.7568 2.03955C12.6939 2.00007 12.6294 1.97359 12.5633 1.96107C12.5496 1.95867 12.5496 1.94037 12.5639 1.93797C12.6236 1.92689 12.6844 1.9317 12.7472 1.95144C12.7747 1.96011 12.7911 1.98226 12.7964 2.01789ZM12.3652 4.78386C12.4027 4.78289 12.4281 4.79878 12.4418 4.832C12.455 4.86426 12.4471 4.8917 12.418 4.91337C12.4043 4.92348 12.3837 4.92059 12.3747 4.90615C12.3747 4.90615 12.3683 4.89074 12.3562 4.86089C12.344 4.83104 12.3382 4.81563 12.3382 4.81515C12.334 4.79878 12.3472 4.78386 12.3652 4.78386ZM11.991 1.88404C12.0048 1.88404 12.0159 1.89415 12.0159 1.90667C12.0159 1.91919 12.0048 1.9293 11.991 1.9293C11.9773 1.9293 11.9662 1.91919 11.9662 1.90667C11.9662 1.89463 11.9773 1.88404 11.991 1.88404ZM11.5392 2.70107L11.5387 2.70252C11.5366 2.70733 11.5313 2.70878 11.5265 2.70733L11.3077 2.62115C11.303 2.61923 11.3009 2.61441 11.303 2.61056L11.304 2.60863C11.3247 2.5653 11.3849 2.54749 11.4388 2.56915L11.4784 2.58456C11.5329 2.60526 11.5603 2.65774 11.5392 2.70107ZM11.4805 1.30581L11.4784 1.31448C11.4716 1.34529 10.9019 1.26441 10.2059 1.13297L9.55646 1.01068C9.55171 1.00972 9.54906 1.00538 9.55012 1.00153L9.5739 0.895609C9.57496 0.890795 9.57971 0.888387 9.58394 0.88935L10.2334 1.01164C10.9288 1.14356 11.4869 1.275 11.4805 1.30581ZM10.9775 1.95385L10.9769 1.95578C10.9738 1.96926 10.9584 1.97792 10.9436 1.97455L10.5896 1.89945C10.5743 1.89656 10.5653 1.8826 10.569 1.86912L10.5695 1.86719C10.5727 1.85371 10.588 1.84504 10.6028 1.84841L10.9569 1.92352C10.9722 1.92641 10.9812 1.94037 10.9775 1.95385ZM9.47138 0.372266C9.47244 0.364563 9.47984 0.358785 9.48829 0.359748L10.2519 0.430523C10.2604 0.431005 10.2662 0.438224 10.2656 0.445927L10.2614 0.482037C10.2604 0.48974 10.253 0.495518 10.2445 0.494555L9.48089 0.423782C9.47244 0.423301 9.46663 0.416079 9.46715 0.408375L9.47138 0.372266ZM7.68417 2.28846L8.27603 2.28221C8.28924 2.28172 8.30034 2.27402 8.30457 2.26198L8.46838 1.7449C8.47684 1.7189 8.51647 1.71842 8.52546 1.74394L8.71517 2.2538C8.71993 2.26536 8.73155 2.27306 8.74476 2.27258L9.3361 2.25476C9.36569 2.2538 9.37837 2.28847 9.35459 2.30435L8.88058 2.62597C8.87001 2.63271 8.86578 2.64571 8.87054 2.65678L9.07135 3.16327C9.08139 3.18831 9.04968 3.20997 9.0259 3.19457L8.54343 2.88354C8.53286 2.87632 8.51806 2.8768 8.50696 2.88403L8.04034 3.21527C8.01762 3.23164 7.98485 3.21094 7.99331 3.18542L8.16928 2.67122C8.17351 2.65967 8.16875 2.64763 8.15713 2.64041L7.66725 2.33854C7.64347 2.32361 7.65457 2.28895 7.68417 2.28846ZM8.65229 3.91386C8.78968 3.8455 8.9107 3.80361 8.92074 3.82094C8.9313 3.83827 8.8272 3.9076 8.6898 3.97597C8.55241 4.04434 8.43139 4.08622 8.42135 4.06889C8.41078 4.05204 8.51489 3.98223 8.65229 3.91386ZM8.5709 3.67121C8.5709 3.65436 8.5857 3.64088 8.60419 3.64088C8.62269 3.64088 8.63749 3.65436 8.63749 3.67121C8.63749 3.68806 8.62269 3.70154 8.60419 3.70154C8.58517 3.70202 8.5709 3.68854 8.5709 3.67121ZM5.76537 1.59324C6.01004 1.43532 6.27955 1.30966 6.57442 1.21482C6.86877 1.11997 7.16575 1.06364 7.46433 1.04631C7.47331 1.04582 7.47807 1.05593 7.47067 1.06123C7.43738 1.0853 7.39193 1.10456 7.33486 1.11949C7.09177 1.18256 6.85292 1.25189 6.61828 1.32796C6.38312 1.40306 6.14955 1.48636 5.91703 1.57639C5.8626 1.59757 5.81398 1.60817 5.77171 1.60865C5.76167 1.60865 5.75797 1.59805 5.76537 1.59324ZM6.26528 2.17484L6.28113 2.16666C6.67483 1.95867 7.02255 1.83445 7.0569 1.88886L7.05848 1.89126C7.05848 1.89174 7.05848 1.89223 7.05795 1.89223L5.6174 2.65293C5.61687 2.65293 5.61634 2.65293 5.61634 2.65245L5.61476 2.65052C5.57988 2.59563 5.87105 2.38283 6.26528 2.17484ZM5.90329 2.80025C5.86736 2.83444 5.82455 2.85032 5.80711 2.8354C5.78967 2.82096 5.805 2.78051 5.8404 2.74633C5.87634 2.71215 5.91914 2.69626 5.93658 2.71118C5.95455 2.72611 5.93922 2.76607 5.90329 2.80025ZM5.66126 3.00295C5.65386 3.01691 5.63906 3.02461 5.6285 3.0198C5.61793 3.01498 5.61581 3.00006 5.62268 2.98561C5.63008 2.97165 5.64488 2.96395 5.65545 2.96876C5.66602 2.97358 5.66813 2.9885 5.66126 3.00295ZM6.1506 4.15556C6.52633 3.86764 6.85397 3.65821 6.88145 3.68806C6.90946 3.71791 6.62727 3.97645 6.25154 4.26437C5.87581 4.55228 5.54817 4.76171 5.52069 4.73186C5.49268 4.70201 5.77488 4.44347 6.1506 4.15556ZM6.72873 6.3977C6.74194 6.38759 6.76043 6.38951 6.771 6.40107L6.77153 6.40203C6.7821 6.41359 6.78052 6.43092 6.76783 6.44055L6.44072 6.69042C6.42751 6.70054 6.40902 6.69861 6.39845 6.68705L6.39792 6.68609C6.38735 6.67454 6.38893 6.65721 6.40162 6.64758L6.72873 6.3977ZM6.59027 4.66301C6.61828 4.62594 6.65105 4.60187 6.66214 4.60909C6.67377 4.61631 6.66056 4.65242 6.63308 4.68949C6.60507 4.72656 6.57231 4.75063 6.56068 4.74341C6.54958 4.73667 6.56227 4.70056 6.59027 4.66301ZM5.25224 3.94371C5.26651 3.95575 5.21472 4.02749 5.13598 4.10452C5.05777 4.18107 4.98273 4.23403 4.96846 4.222C4.95419 4.20996 5.00598 4.13822 5.08472 4.06119C5.16346 3.98464 5.23797 3.93168 5.25224 3.94371ZM4.95789 1.62117C4.97322 1.61876 4.98749 1.63079 4.99066 1.64668C4.9933 1.66305 4.98379 1.67798 4.96846 1.68038C4.95314 1.68279 4.93887 1.67076 4.9357 1.65487C4.93306 1.63802 4.94257 1.62309 4.95789 1.62117ZM4.93993 3.0535L4.94151 3.05494C4.95261 3.06602 4.95208 3.08239 4.93993 3.09298L4.58851 3.39244C4.57688 3.40256 4.55839 3.40159 4.54676 3.391L4.54517 3.38956C4.53408 3.37848 4.53461 3.36211 4.54676 3.35152L4.89818 3.05205C4.91033 3.04194 4.92883 3.04243 4.93993 3.0535ZM3.29381 2.69867C3.46132 2.49838 3.67957 2.29569 3.94856 2.09059C4.21701 1.88549 4.47383 1.7242 4.71851 1.60865C4.73647 1.59998 4.75656 1.61828 4.74546 1.63464C4.70477 1.69483 4.65139 1.74634 4.58587 1.78823C4.42997 1.88693 4.24502 2.01789 4.03152 2.1811C3.81803 2.34431 3.64417 2.48731 3.51047 2.61008C3.45393 2.66207 3.38946 2.70107 3.31706 2.72659C3.2975 2.73381 3.28059 2.71311 3.29381 2.69867ZM2.94027 4.29614C3.19393 3.93745 3.47031 3.61392 3.76994 3.32456C3.84974 3.24705 3.94486 3.17434 4.0553 3.10598C4.0701 3.09731 4.08807 3.09539 4.10498 3.09972L4.1314 3.10742C4.14567 3.11176 4.14884 3.12812 4.13774 3.13679C3.98079 3.25908 3.88514 3.33804 3.85132 3.37367C3.51628 3.72754 3.24677 4.02749 3.04332 4.27351C3.02007 4.3024 2.99206 4.31877 2.95877 4.3231C2.94292 4.32503 2.93129 4.30818 2.94027 4.29614ZM3.93059 3.97405C3.87404 4.02267 3.83917 4.04193 3.82648 4.0323C3.81327 4.02316 3.82754 3.98801 3.86876 3.92831C3.88725 3.90086 3.90892 3.89605 3.9327 3.91386C3.95754 3.93168 3.95595 3.95142 3.93059 3.97405ZM3.71604 4.25088C3.66161 4.33129 3.60876 4.39195 3.59925 4.38617C3.58974 4.38039 3.62567 4.31058 3.68063 4.23066C3.73506 4.15026 3.78791 4.0896 3.79742 4.09537C3.80693 4.10115 3.77047 4.17048 3.71604 4.25088ZM2.71462 7.85555C2.73048 7.79922 2.76113 7.75782 2.78174 7.76263C2.8034 7.76745 2.8071 7.81703 2.79125 7.87336C2.7754 7.9297 2.74475 7.9711 2.72414 7.96629C2.70247 7.96147 2.69877 7.91188 2.71462 7.85555ZM2.48369 8.89117C2.51011 8.81173 2.53971 8.7501 2.55028 8.75251C2.56085 8.75539 2.54816 8.82184 2.52174 8.90128C2.49532 8.98072 2.46573 9.04234 2.45516 9.03993C2.44512 9.03705 2.45727 8.97061 2.48369 8.89117ZM1.25557 6.15312C1.24659 6.16227 1.22968 6.15457 1.23232 6.14205C1.34013 5.66396 1.49021 5.21621 1.68203 4.79926C1.87386 4.38232 2.11959 3.97164 2.41869 3.56673C2.42609 3.55662 2.44406 3.56144 2.44353 3.57395C2.44195 3.60766 2.43032 3.64184 2.41024 3.67795C2.23321 3.99138 2.0361 4.3828 1.82049 4.85174C1.60435 5.32116 1.4363 5.7227 1.31423 6.05827C1.29944 6.09775 1.28041 6.12905 1.25557 6.15312ZM1.63606 9.64898C1.63606 9.49684 1.77187 9.3731 1.93886 9.3731C2.10585 9.3731 2.24166 9.49684 2.24166 9.64898C2.24166 9.80112 2.10585 9.92485 1.93886 9.92485C1.77187 9.92485 1.63606 9.80112 1.63606 9.64898ZM1.71269 15.6094C1.6963 15.6113 1.67939 15.5892 1.67464 15.5598C1.66988 15.53 1.67939 15.5045 1.69577 15.5025C1.71216 15.5006 1.72907 15.5228 1.73382 15.5521C1.73911 15.5815 1.7296 15.6075 1.71269 15.6094ZM2.13809 10.298C2.14126 10.2898 2.15341 10.2888 2.15923 10.2956C2.16768 10.3071 2.17191 10.3177 2.17138 10.3288C2.17032 10.3461 2.14549 10.3519 2.13544 10.337C2.12963 10.3278 2.13069 10.3148 2.13809 10.298ZM2.14496 12.3432C2.16398 12.297 2.20308 12.2681 2.23268 12.2777C2.26227 12.2878 2.2702 12.3336 2.25118 12.3793C2.23215 12.4255 2.19304 12.4544 2.16345 12.4448C2.13439 12.4347 2.12646 12.3894 2.14496 12.3432ZM2.06727 8.41404C2.05353 8.45978 2.025 8.50937 1.98061 8.56281C1.97321 8.57196 1.95736 8.56714 1.95789 8.55559C1.9674 8.37023 1.99276 8.17957 2.03293 7.9841C2.07784 7.76841 2.17402 7.60231 2.28235 7.42898C2.29345 7.41069 2.32252 7.4102 2.33414 7.4285C2.35845 7.46413 2.36532 7.49639 2.35528 7.52527C2.24589 7.83292 2.14918 8.1295 2.06727 8.41404ZM1.37289 16.8891C1.36391 16.8901 1.35545 16.8848 1.35387 16.8771C1.3285 16.7731 1.31846 16.6888 1.32375 16.6243C1.32428 16.6176 1.33061 16.6123 1.33748 16.6123C1.34488 16.6123 1.35123 16.6171 1.35228 16.6238L1.38663 16.8718C1.38716 16.8805 1.38135 16.8877 1.37289 16.8891ZM1.39139 11.3278C1.38399 11.3105 1.38822 11.2927 1.40037 11.2883C1.41252 11.284 1.42891 11.2941 1.43631 11.3115C1.44371 11.3288 1.43948 11.3466 1.42732 11.3509C1.41517 11.3553 1.39879 11.3452 1.39139 11.3278ZM1.45533 17.398C1.44212 17.4028 1.42098 17.3831 1.40936 17.3537C1.39773 17.3248 1.39879 17.2974 1.412 17.2926C1.42521 17.2878 1.44635 17.3075 1.45797 17.3369C1.47013 17.3663 1.46907 17.3932 1.45533 17.398ZM1.44212 11.0004C1.44159 11.0033 1.43842 11.0062 1.43472 11.0057H1.43366C1.38029 11.0004 1.35704 10.8387 1.38029 10.6441L1.38293 10.6215C1.40671 10.427 1.46854 10.2739 1.52086 10.2792H1.52192C1.52614 10.2797 1.52879 10.2831 1.52826 10.2859L1.44212 11.0004ZM1.59643 8.28116C1.59643 8.28212 1.59537 8.28308 1.59431 8.28308C1.59326 8.28308 1.5922 8.28212 1.5922 8.28116C1.57476 7.99806 1.60277 7.68848 1.67728 7.35195C1.70476 7.2258 1.73171 7.15551 1.75655 7.14155C1.76659 7.12999 1.76817 7.11459 1.7613 7.10255L1.74651 7.07752C1.73647 7.06019 1.73224 7.03948 1.73594 7.01974C1.75919 6.87916 1.77346 6.77998 1.77874 6.72172C1.80199 6.4834 1.88443 6.29082 1.99752 6.09823C2.01496 6.06838 2.0641 6.07946 2.06516 6.11316C2.06675 6.22775 1.99699 6.34618 1.97849 6.48147C1.95736 6.62832 1.90874 6.961 1.79988 7.10303C1.78297 7.12518 1.77768 7.15407 1.78455 7.19066C1.78561 7.19547 1.78086 7.22533 1.7687 7.27925C1.74545 7.39239 1.69895 7.58256 1.63078 7.84929C1.62972 7.85411 1.62919 7.85844 1.62866 7.86326L1.59643 8.28116ZM1.74017 16.1135H1.73858C1.73541 16.1145 1.73171 16.1125 1.73118 16.1101L1.62919 15.751C1.62866 15.7486 1.63025 15.7452 1.63395 15.7442L1.63553 15.7437C1.66988 15.736 1.72114 15.8092 1.74862 15.9084L1.75179 15.92C1.7798 16.0182 1.77451 16.1048 1.74017 16.1135ZM3.53214 17.3455L3.53108 17.348C3.51311 17.398 3.44494 17.4221 3.37941 17.4028L3.37201 17.4004C3.35933 17.3971 3.35194 17.3846 3.35669 17.3725L3.40742 17.2319C3.41218 17.2199 3.42539 17.2141 3.4386 17.2175L3.446 17.2199C3.51153 17.2391 3.5501 17.2955 3.53214 17.3455ZM3.80799 13.0298L3.21348 13.4159C3.20555 13.4217 3.20238 13.4308 3.20503 13.4395L3.43649 14.0702C3.44389 14.0895 3.41958 14.1053 3.40214 14.0933L2.81503 13.6975C2.8071 13.6918 2.79601 13.6918 2.78808 13.6975L2.20097 14.0933C2.18353 14.1053 2.15922 14.089 2.16662 14.0702L2.39808 13.4395C2.40073 13.4308 2.39756 13.4217 2.38963 13.4159L1.79512 13.0298C1.77716 13.0182 1.78667 12.9927 1.80886 12.9927L2.53865 12.9985C2.54869 12.9985 2.55768 12.9927 2.56085 12.984L2.78068 12.3495C2.78755 12.3302 2.81715 12.3302 2.82349 12.3495L3.04332 12.984C3.04596 12.9927 3.05495 12.9985 3.06551 12.9985L3.7953 12.9927C3.81644 12.9927 3.82595 13.0187 3.80799 13.0298ZM3.15905 8.89646C3.15799 8.90079 3.15324 8.9032 3.14901 8.90224L3.14584 8.90128C3.07978 8.88394 3.09194 8.66247 3.17438 8.4073L3.19499 8.34327C3.2769 8.08809 3.39685 7.89551 3.46344 7.91333L3.46661 7.91429C3.47137 7.91525 3.47348 7.92007 3.47242 7.92344L3.15905 8.89646ZM3.53637 10.4381C3.56279 10.441 3.56702 10.5763 3.54641 10.7404C3.5258 10.9046 3.48722 11.0356 3.4608 11.0327C3.43437 11.0298 3.43015 10.8945 3.45076 10.7303C3.47137 10.5662 3.50994 10.4352 3.53637 10.4381ZM3.17279 12.0038C3.16011 12.0047 3.14056 11.9258 3.12946 11.8276C3.11783 11.7289 3.11995 11.648 3.1321 11.647C3.14478 11.6461 3.16434 11.725 3.17543 11.8232C3.18706 11.9215 3.18547 12.0028 3.17279 12.0038ZM4.21067 17.2281L4.1203 17.2348C4.11132 17.2353 4.10339 17.229 4.10286 17.2209L4.1018 17.2074C4.09546 17.138 4.11449 17.0798 4.14302 17.0779L4.16099 17.0764C4.19006 17.0745 4.21806 17.1289 4.2244 17.1987L4.22546 17.2122C4.22652 17.2199 4.21965 17.2271 4.21067 17.2281ZM4.14778 16.8545C4.15412 16.8386 4.17949 16.8405 4.18425 16.8574C4.18742 16.8713 4.18583 16.8805 4.17896 16.8848C4.16416 16.8939 4.15412 16.8925 4.14831 16.88C4.14408 16.8713 4.14408 16.8626 4.14778 16.8545ZM4.54887 14.3721C4.51135 14.8092 4.45692 15.1617 4.4268 15.1597C4.39721 15.1573 4.40408 14.8015 4.4416 14.3644C4.47912 13.9272 4.53355 13.5748 4.56367 13.5767C4.59326 13.5791 4.58639 13.9354 4.54887 14.3721ZM5.07151 17.2743L5.062 17.3051C5.03293 17.3942 4.96476 17.4553 4.90875 17.4404H4.90769C4.9061 17.4399 4.90452 17.438 4.90558 17.4356L5.0155 17.088C5.01602 17.086 5.01814 17.0851 5.02078 17.0856H5.02184C5.07732 17.1005 5.10005 17.1852 5.07151 17.2743ZM4.77664 10.6148C4.6033 10.6182 4.46009 10.4848 4.45639 10.3182C4.4527 10.1511 4.59062 10.0134 4.76342 10.0106C4.93676 10.0072 5.07997 10.1405 5.08366 10.3071C5.08736 10.4737 4.94997 10.6114 4.77664 10.6148ZM5.22053 9.43618C5.1846 9.54836 5.13862 9.63501 5.11801 9.62972C5.09793 9.62442 5.11009 9.52909 5.14655 9.41643C5.18248 9.30425 5.22846 9.21759 5.24907 9.22289C5.26915 9.22819 5.257 9.32351 5.22053 9.43618ZM5.38805 8.14972L5.3109 8.27827C5.26598 8.35338 5.19094 8.39478 5.14285 8.37119C5.14126 8.37023 5.14021 8.36878 5.14127 8.36638L5.37695 7.97158C5.37801 7.97014 5.3796 7.96918 5.38171 7.97014C5.4298 7.99421 5.43297 8.07461 5.38805 8.14972ZM4.97692 6.14445C4.95208 6.16034 4.94257 6.18971 4.95261 6.21619L5.34948 7.22484C5.3648 7.26336 5.31513 7.29658 5.27919 7.27154L4.38347 6.64854C4.34383 6.6211 4.28835 6.62302 4.25136 6.65432C4.10709 6.77564 3.9179 6.94512 3.68327 7.16322C3.60718 7.23399 3.5221 7.28743 3.42645 7.32402C3.39104 7.33799 3.35352 7.30813 3.36409 7.27395C3.47929 6.90612 3.54006 6.59173 3.69173 6.26289C3.69966 6.24604 3.69279 6.2263 3.67535 6.21619L2.77645 5.69525C2.7606 5.68611 2.75902 5.66492 2.77328 5.65337C2.80658 5.62689 2.85097 5.611 2.90593 5.60522C3.23039 5.57345 3.53108 5.546 3.80799 5.52289C3.89518 5.51567 3.94485 5.47956 3.95701 5.41408C3.98343 5.26964 4.0627 4.97836 4.19428 4.53928C4.20644 4.4998 4.22546 4.47332 4.25136 4.45984C4.3005 4.4348 4.36339 4.45695 4.384 4.50654C4.49444 4.77519 4.58534 5.05636 4.65668 5.35005C4.67253 5.41649 4.73647 5.46416 4.81099 5.46464L5.91122 5.47715C5.93711 5.47763 5.94768 5.50749 5.92654 5.52145L4.97692 6.14445ZM6.18125 13.2329C6.0893 13.3105 6.02536 13.3697 5.98943 13.4116C5.95296 13.453 5.90382 13.5228 5.84199 13.6215C5.83723 13.6287 5.82825 13.6316 5.81979 13.6292C5.81187 13.6263 5.80658 13.6186 5.8087 13.6104C5.82561 13.5213 5.86577 13.44 5.92918 13.3673C5.99313 13.2946 6.07081 13.2411 6.16223 13.206C6.17016 13.2031 6.17914 13.2055 6.18443 13.2122C6.18918 13.219 6.18812 13.2277 6.18125 13.2329ZM6.50202 10.7664C6.47507 10.8743 6.43755 10.9576 6.41853 10.9537C6.39898 10.9499 6.40479 10.8589 6.43121 10.7515C6.45816 10.6437 6.49568 10.5604 6.51471 10.5642C6.53479 10.5681 6.52845 10.6591 6.50202 10.7664ZM6.85609 9.54932C6.83918 9.54354 6.85556 9.46795 6.89307 9.38177C6.93059 9.29511 6.97393 9.23011 6.99084 9.23637C7.00775 9.24215 6.99137 9.31774 6.95385 9.40392C6.91686 9.4901 6.873 9.55509 6.85609 9.54932ZM6.99031 10.492C6.97604 10.492 6.96547 10.4183 6.966 10.3278C6.96653 10.2373 6.97868 10.1641 6.99295 10.1641C7.00722 10.1641 7.01779 10.2378 7.01726 10.3283C7.01621 10.4188 7.00458 10.492 6.99031 10.492ZM7.20222 6.75687L6.18125 7.76118C6.18073 7.76167 6.17967 7.76167 6.17914 7.76118L6.17703 7.75974C6.12471 7.71545 6.30703 7.45787 6.58499 7.18536L6.60243 7.16803C6.87986 6.89456 7.14779 6.7092 7.19958 6.7535L7.20169 6.75494C7.20275 6.75446 7.20275 6.7559 7.20222 6.75687ZM7.34279 4.3231C7.3375 4.32599 7.33063 4.32455 7.32746 4.32069L7.27303 4.24607C7.27039 4.24126 7.27144 4.23548 7.2762 4.23211L7.34332 4.19118C7.76977 3.93457 8.12912 3.74391 8.1455 3.76654L8.15237 3.77569C8.16875 3.79831 7.83583 4.0246 7.40937 4.28218L7.34279 4.3231ZM7.9188 4.6582C7.88868 4.66686 7.85908 4.65916 7.85274 4.64086C7.84693 4.62257 7.86595 4.6009 7.89555 4.59224C7.92567 4.58357 7.95526 4.59127 7.9616 4.60957C7.96741 4.62738 7.94839 4.64905 7.9188 4.6582ZM7.78404 6.81561C7.74758 6.84931 7.71165 6.87145 7.70478 6.86519C7.69738 6.85845 7.72116 6.8262 7.75815 6.79249C7.79461 6.75879 7.83054 6.73665 7.83741 6.7429C7.84481 6.74965 7.82103 6.7819 7.78404 6.81561ZM7.57161 5.19984C7.55205 5.21187 7.52563 5.20706 7.51242 5.18972L7.5103 5.18732C7.49709 5.16999 7.50185 5.14543 7.5214 5.13339L8.21632 4.7049C8.23587 4.69286 8.26229 4.69768 8.2755 4.71501L8.27761 4.71741C8.29082 4.73475 8.28607 4.7593 8.26652 4.77134L7.57161 5.19984ZM8.30509 7.16418L8.25278 7.19355C8.24697 7.19644 8.24009 7.19499 8.23692 7.1897L8.2105 7.1507C8.20733 7.1454 8.20891 7.13914 8.21473 7.13625L8.26599 7.10689C8.4092 7.02648 8.53232 6.9716 8.54078 6.98412L8.54871 6.99567C8.55716 7.00819 8.4483 7.08378 8.30509 7.16418ZM8.85415 7.70919C8.7009 7.73856 8.57143 7.74048 8.56509 7.71352C8.55875 7.68608 8.67765 7.64034 8.8309 7.61049C8.98415 7.58112 9.11362 7.5792 9.11996 7.60616C9.1263 7.6336 9.0074 7.67934 8.85415 7.70919ZM8.88058 5.29853L8.85151 5.25087C8.84728 5.24413 8.85045 5.23546 8.85785 5.23161L9.58764 4.86474C9.59504 4.86041 9.60402 4.8633 9.60825 4.87004L9.63731 4.9177C9.6426 4.92588 9.47984 5.01592 9.27533 5.11895L9.26 5.12617C9.05549 5.22968 8.88533 5.30624 8.88058 5.29853ZM9.36252 7.95136C9.3324 7.94462 9.30915 7.93403 9.31021 7.92922C9.31179 7.92392 9.33716 7.92536 9.36781 7.93258C9.39793 7.93932 9.42118 7.94992 9.42012 7.95473C9.41854 7.96003 9.39264 7.95858 9.36252 7.95136ZM9.71447 7.45354C9.70918 7.47424 9.51841 7.45209 9.28801 7.40443L9.2748 7.40202C9.26898 7.40106 9.26634 7.39624 9.2674 7.39191L9.28431 7.32354C9.28537 7.31873 9.29065 7.31584 9.29541 7.3168L9.30862 7.31969C9.53902 7.36639 9.72187 7.42128 9.71658 7.44198L9.71447 7.45354ZM9.52264 2.76559C9.38419 2.76463 9.31443 2.75885 9.31443 2.7497C9.31496 2.74055 9.38419 2.7367 9.52264 2.73766C9.66109 2.73911 9.73085 2.74441 9.73032 2.75355C9.73032 2.76318 9.66109 2.76703 9.52264 2.76559ZM10.0876 1.80556C10.013 1.77957 9.95756 1.74634 9.9639 1.73094C9.97024 1.71553 10.0358 1.7242 10.1108 1.75068C10.1853 1.77668 10.2408 1.8099 10.2345 1.8253C10.2281 1.84023 10.1621 1.83156 10.0876 1.80556ZM10.765 5.81562C10.6097 5.91143 10.4009 5.87821 10.2995 5.74099C10.1975 5.60426 10.2408 5.41553 10.3962 5.31924C10.5515 5.22343 10.7603 5.25665 10.8617 5.39386C10.9643 5.5306 10.9204 5.71933 10.765 5.81562ZM11.0879 3.12138C11.0805 3.13198 11.0361 3.11994 10.9891 3.09298C10.9421 3.0665 10.9098 3.03617 10.9172 3.02509C10.9246 3.0145 10.969 3.02702 11.016 3.0535C11.0631 3.07998 11.0953 3.11031 11.0879 3.12138ZM11.1503 2.56578C11.1355 2.60237 11.1048 2.60623 11.0705 2.58793C10.9764 2.53882 10.9325 2.50849 10.9368 2.49597C10.9421 2.48394 10.9975 2.48634 11.1038 2.50271C11.1429 2.50897 11.1645 2.52871 11.1503 2.56578ZM11.405 9.60565L11.359 9.61624C11.3532 9.6172 11.3474 9.61431 11.3458 9.60902L11.3432 9.59939C11.2734 9.34759 11.2295 9.14104 11.2433 9.13767L11.2586 9.13382C11.2729 9.13093 11.3405 9.3317 11.4097 9.5835L11.4124 9.59313C11.4145 9.59939 11.4113 9.60468 11.405 9.60565ZM11.7305 3.87246C11.722 3.88787 11.646 3.86812 11.5625 3.82864C11.4779 3.78868 11.4171 3.74391 11.4261 3.72898C11.4346 3.71358 11.5107 3.73332 11.5942 3.7728C11.6787 3.81228 11.7395 3.85705 11.7305 3.87246ZM11.8108 6.07416C11.7907 6.05731 11.7865 6.04431 11.7971 6.03468C11.8077 6.02553 11.8219 6.02987 11.8399 6.04864C11.9757 6.19164 12.0433 6.26386 12.0407 6.2653C12.0396 6.26674 11.963 6.20319 11.8108 6.07416ZM12.0518 12.5276C12.0338 12.5372 11.9894 12.5002 11.9525 12.4443C11.9155 12.3885 11.9001 12.335 11.9181 12.3254C11.9361 12.3158 11.9805 12.3528 12.0175 12.4087C12.0544 12.4645 12.0698 12.518 12.0518 12.5276ZM12.5422 13.5112C12.3424 13.3138 12.1231 13.142 11.8859 12.9961C11.8853 12.9956 11.8848 12.9951 11.8848 12.9946L11.8853 12.9633C11.8853 12.9489 11.9028 12.9407 11.916 12.9489C12.0418 13.0283 12.2901 13.0943 12.4048 13.2122C12.4936 13.3042 12.5559 13.3947 12.5919 13.4843C12.6019 13.5112 12.5633 13.5329 12.5422 13.5112ZM12.7985 4.40543L12.7964 4.40784C12.7694 4.43528 12.6696 4.39387 12.5734 4.31588L12.5507 4.2971C12.455 4.21863 12.399 4.13293 12.4254 4.10596L12.4281 4.10356C12.4312 4.09971 12.437 4.0997 12.4407 4.10259L12.798 4.3934C12.8017 4.39677 12.8017 4.40158 12.7985 4.40543ZM13.0257 9.77223C13.0131 9.77656 12.9829 9.73275 12.9586 9.67353C12.9343 9.61431 12.9248 9.56328 12.938 9.55895C12.9507 9.55461 12.9808 9.59842 13.0051 9.65764C13.0294 9.71686 13.0389 9.7679 13.0257 9.77223ZM13.0199 3.8012C12.8767 3.71165 12.8439 3.52773 12.9475 3.39004C13.0511 3.25234 13.2514 3.21334 13.3946 3.30289C13.5378 3.39245 13.5706 3.57636 13.467 3.71406C13.3634 3.85127 13.1631 3.89075 13.0199 3.8012ZM13.4258 9.77031C13.4247 9.80738 13.4168 9.83771 13.4078 9.83771C13.3988 9.83771 13.3919 9.80738 13.393 9.76982C13.3941 9.73275 13.402 9.70242 13.411 9.70242C13.42 9.70242 13.4268 9.73275 13.4258 9.77031ZM13.3946 12.4332L13.3935 12.4337C13.3819 12.4352 13.3703 12.4275 13.3687 12.4169C13.3248 12.1872 13.2905 11.9234 13.1832 11.7346C13.1124 11.6114 13.1013 11.4838 13.1203 11.3678C13.142 11.2354 13.087 11.1222 13.0992 11.0076C13.1002 10.9956 13.1193 10.9937 13.123 11.0052L13.2968 11.4761C13.3042 11.4958 13.309 11.5156 13.3111 11.5363L13.4089 12.4164C13.4099 12.4246 13.4036 12.4318 13.3946 12.4332ZM13.4781 10.4106C13.4305 10.5243 13.3993 10.5787 13.3856 10.5758C13.3719 10.5719 13.3756 10.5108 13.3967 10.3909C13.3978 10.3842 13.402 10.3779 13.4078 10.3741C13.42 10.3668 13.4326 10.3649 13.4469 10.3678C13.4606 10.3712 13.4707 10.3794 13.477 10.3909C13.4807 10.3972 13.4807 10.4044 13.4781 10.4106ZM13.5457 17.334C13.5198 17.334 13.4982 17.3143 13.4982 17.2907C13.4982 17.2671 13.5198 17.2473 13.5457 17.2473C13.5716 17.2473 13.5933 17.2671 13.5933 17.2907C13.5933 17.3143 13.5716 17.334 13.5457 17.334ZM13.6488 10.1555H13.6467C13.6361 10.1545 13.6282 10.1463 13.6292 10.1362C13.6366 10.0654 13.662 9.85697 13.7212 9.76597C13.7413 9.73564 13.7428 9.69087 13.7265 9.63165C13.7212 9.61239 13.7444 9.59746 13.7629 9.60854C13.8295 9.64802 13.8713 9.69087 13.8876 9.73757C13.8934 9.75394 13.8781 9.77079 13.8591 9.76742L13.7719 9.75249C13.7576 9.75009 13.7434 9.75875 13.7407 9.77175L13.6609 10.1449C13.6588 10.1502 13.6546 10.1545 13.6488 10.1555ZM13.8184 12.3427V12.3528C13.8131 12.4756 13.7793 12.5733 13.7418 12.5724H13.7391C13.7349 12.5719 13.7323 12.5695 13.7323 12.5656L13.7502 12.1246C13.7502 12.1213 13.7534 12.1184 13.7571 12.1184H13.7597C13.7973 12.1203 13.8232 12.2204 13.8184 12.3427ZM13.9627 10.2585C13.9553 10.3933 13.9199 10.5016 13.8834 10.4997C13.8469 10.4978 13.8237 10.3875 13.8316 10.2527C13.839 10.1179 13.8744 10.0096 13.9109 10.0115C13.9468 10.0134 13.9701 10.1237 13.9627 10.2585ZM14.1228 16.2006C14.089 16.1833 14.0699 16.1491 14.0742 16.114L14.0948 15.9305C14.0958 15.9175 14.1075 15.9079 14.1212 15.907C14.1355 15.9065 14.1476 15.9147 14.1513 15.9272L14.2634 16.3383C14.2655 16.3456 14.2612 16.3533 14.2533 16.3557C14.2454 16.3586 14.2364 16.3552 14.2327 16.3485C14.1899 16.2681 14.1534 16.2185 14.1228 16.2006ZM14.1888 15.089C14.1978 15.0885 14.2121 15.1646 14.2206 15.2594C14.2285 15.3542 14.228 15.4318 14.2184 15.4322C14.2095 15.4327 14.1952 15.3566 14.1867 15.2618C14.1788 15.167 14.1793 15.0894 14.1888 15.089ZM14.2655 17.3759C14.2517 17.3783 14.2343 17.3528 14.2274 17.3186C14.2206 17.2844 14.2264 17.255 14.2406 17.2531C14.2544 17.2507 14.2718 17.2762 14.2787 17.3104C14.2856 17.3446 14.2797 17.374 14.2655 17.3759ZM14.3849 11.2166L14.321 11.2238C14.3157 11.2243 14.3109 11.2214 14.3104 11.2166L14.3093 11.207C14.2422 10.7231 14.2058 10.3288 14.228 10.3259H14.2301C14.2528 10.3235 14.3252 10.7135 14.3918 11.1969L14.3934 11.2065C14.3939 11.2113 14.3902 11.2161 14.3849 11.2166ZM14.5894 14.9267C14.5751 14.9267 14.5641 14.9166 14.5641 14.9036C14.5641 14.8906 14.5751 14.8805 14.5894 14.8805C14.6037 14.8805 14.6148 14.8906 14.6148 14.9036C14.6148 14.9166 14.6037 14.9267 14.5894 14.9267ZM14.7855 9.05871C14.7738 9.0279 14.7754 8.99949 14.7892 8.99516C14.8029 8.99083 14.823 9.01249 14.8346 9.0433C14.8462 9.07412 14.8447 9.10252 14.8309 9.10686C14.8177 9.11071 14.7971 9.08904 14.7855 9.05871ZM14.9456 16.2786C14.9355 16.2815 14.9239 16.2743 14.9208 16.2628C14.9171 16.2512 14.9229 16.2401 14.9329 16.2377C14.9429 16.2348 14.9546 16.2421 14.9577 16.2536C14.9614 16.2652 14.9556 16.2762 14.9456 16.2786ZM15.0106 15.7962L14.8658 15.7365C14.86 15.7346 14.8563 15.7293 14.8552 15.7235L14.8283 15.5285C14.8262 15.5136 14.8457 15.5049 14.8573 15.5155C14.9414 15.5935 15.0016 15.6792 15.0397 15.7717C15.0449 15.788 15.0275 15.8034 15.0106 15.7962ZM15.4751 7.792C15.455 7.8127 15.4328 7.81415 15.4059 7.79681C15.2151 7.67164 15.0064 7.52238 14.7802 7.34906C14.759 7.33317 14.7284 7.33317 14.7083 7.34906L14.0652 7.84833C14.0351 7.87144 13.9907 7.84592 14.0013 7.81126L14.2417 7.039C14.2486 7.01782 14.2375 6.99471 14.2163 6.98412C13.9976 6.87819 13.7867 6.74627 13.5827 6.58787C13.56 6.56958 13.5706 6.53588 13.6007 6.53203C13.8348 6.5041 14.0663 6.49303 14.294 6.49832C14.3701 6.50025 14.4193 6.45933 14.4425 6.37507C14.5091 6.12905 14.5862 5.89169 14.6734 5.66252C14.6919 5.61244 14.7701 5.61485 14.786 5.6654L15.0143 6.41022C15.0206 6.42996 15.0397 6.44344 15.0618 6.44392L15.8572 6.44874C15.8889 6.44874 15.9068 6.48099 15.8889 6.50506C15.8503 6.55417 15.8122 6.59077 15.7758 6.61436C15.5829 6.73954 15.3995 6.8599 15.2251 6.97593C15.2008 6.9923 15.1918 7.02167 15.2035 7.04719C15.3298 7.3168 15.4212 7.55368 15.4788 7.75734C15.4836 7.77322 15.4825 7.78478 15.4751 7.792ZM15.7436 8.83387C15.7636 8.83628 15.7737 8.8825 15.7657 8.93835C15.7583 8.99372 15.7362 9.03705 15.7161 9.03464C15.696 9.03223 15.6859 8.98601 15.6939 8.93016C15.7018 8.8748 15.724 8.83146 15.7436 8.83387ZM15.7351 7.55416C15.7568 7.55175 15.78 7.58883 15.7869 7.63745C15.7932 7.6856 15.7816 7.72748 15.7599 7.72989C15.7383 7.7323 15.715 7.69523 15.7081 7.6466C15.7013 7.59845 15.7134 7.55657 15.7351 7.55416ZM15.7573 8.34279H15.7552C15.742 8.3423 15.7393 8.12565 15.7478 7.85892L15.7483 7.84833C15.7483 7.84351 15.7531 7.84014 15.7573 7.84014L15.7869 7.84111C15.7922 7.84111 15.7959 7.84544 15.7959 7.84929L15.7953 7.85989C15.7869 8.12709 15.77 8.34327 15.7573 8.34279ZM16.6424 16.3489C16.6335 16.3552 16.6181 16.3518 16.6081 16.3407C16.5981 16.3297 16.597 16.3147 16.606 16.3085C16.615 16.3022 16.6303 16.3056 16.6403 16.3167C16.6504 16.3273 16.6514 16.3422 16.6424 16.3489ZM16.5954 16.0143C16.5949 15.959 16.6007 15.9142 16.6076 15.9142C16.615 15.9142 16.6208 15.959 16.6213 16.0143C16.6218 16.0697 16.616 16.1145 16.6092 16.1145C16.6023 16.1145 16.5959 16.0692 16.5954 16.0143ZM16.8707 14.1699L16.4755 14.4298C16.4628 14.438 16.4575 14.452 16.4601 14.466C16.4924 14.6186 16.5558 14.7741 16.6509 14.932C16.6567 14.9407 16.6535 14.9522 16.6451 14.959C16.6361 14.9652 16.6234 14.9647 16.615 14.958L16.2028 14.622C16.188 14.6094 16.1647 14.6104 16.1505 14.6234L15.7832 14.958C15.7589 14.9802 15.7187 14.9773 15.6986 14.9513C15.6527 14.8925 15.7002 14.8266 15.7235 14.7649C15.7657 14.6547 15.8128 14.5478 15.8646 14.4448C15.8735 14.4279 15.8677 14.4072 15.8514 14.3957L15.5279 14.1708C15.5131 14.1607 15.519 14.139 15.5375 14.1362L15.9444 14.0755C15.9629 14.0726 15.9782 14.0615 15.9856 14.0466L16.17 13.6764C16.1859 13.6441 16.2366 13.646 16.2498 13.6793L16.3951 14.0485C16.402 14.0659 16.42 14.0784 16.4411 14.0798L16.8506 14.1087C16.8866 14.1111 16.8987 14.1511 16.8707 14.1699ZM17.0557 16.0071C17.0335 16.0071 17.0161 15.9912 17.0161 15.971C17.0161 15.9508 17.0335 15.9349 17.0557 15.9349C17.0779 15.9349 17.0953 15.9508 17.0953 15.971C17.0953 15.9912 17.0779 16.0071 17.0557 16.0071ZM17.1698 12.5266C17.1313 12.5276 17.0879 12.0577 17.0737 11.4766C17.0589 10.896 17.0789 10.4246 17.1175 10.4236C17.1561 10.4227 17.1994 10.8926 17.2137 11.4737C17.2285 12.0548 17.2084 12.5262 17.1698 12.5266ZM17.8547 17.2926C17.8526 17.3186 17.8272 17.3383 17.7987 17.3359L17.7094 17.3292C17.6808 17.3273 17.6592 17.3041 17.6618 17.2781L17.6692 17.1968C17.6713 17.1708 17.6967 17.151 17.7252 17.1534L17.8145 17.1602C17.8431 17.1621 17.8647 17.1852 17.8621 17.2112L17.8547 17.2926ZM17.9192 13.0519L17.8647 13.0548C17.8579 13.0553 17.8515 13.0505 17.851 13.0442L17.5625 8.86661C17.5625 8.85987 17.5678 8.85409 17.5752 8.85409L17.6296 8.8512C17.6618 8.84928 17.7527 9.78427 17.8325 10.9388L17.8336 10.9576C17.9128 12.1121 17.9514 13.05 17.9192 13.0519Z" fill="#F8F7FC"/>
<path d="M11.6509 15.2413C11.6367 15.1995 11.6113 15.1701 11.5738 15.1542C11.5209 15.1316 11.4602 15.159 11.4501 15.2091C11.4195 15.3684 11.4137 15.5326 11.4332 15.7007C11.5981 17.1287 11.6953 17.9861 11.7244 18.2721C11.7307 18.3333 11.7545 18.3795 11.7947 18.4089C11.8406 18.4426 11.9088 18.4185 11.9194 18.3655C11.9336 18.2904 11.9606 18.0848 11.9997 17.7502C12.0261 17.5196 12.0325 17.3135 12.0182 17.1301C11.9659 16.4589 11.8428 15.8292 11.6509 15.2413Z" fill="#F8F7FC"/>
<path d="M6.9227 15.2838C6.90579 15.2871 6.89152 15.2977 6.88359 15.3117C6.81595 15.4316 6.76892 15.5616 6.74039 15.7017C6.61303 16.3343 6.54063 16.9727 6.52425 17.6169C6.51791 17.8518 6.54856 18.1349 6.62096 18.3453C6.64262 18.4089 6.68596 18.4527 6.72453 18.4513C6.79746 18.4479 6.85876 18.4123 6.90738 18.3439C6.9153 18.3323 6.92006 18.3203 6.92059 18.3068L6.93856 17.9101C6.93908 17.9053 6.93961 17.9005 6.9412 17.8957C6.99404 17.7291 6.96286 17.5394 6.98083 17.368C7.05851 16.6516 7.08071 15.9838 7.04689 15.3646C7.04319 15.2943 7.00197 15.2679 6.9227 15.2838ZM6.77526 18.1181C6.77526 18.1306 6.76364 18.1398 6.75043 18.1398H6.74831C6.7351 18.1393 6.72453 18.1296 6.72453 18.1171L6.73088 17.8316C6.73088 17.8191 6.7425 17.81 6.75571 17.81H6.75782C6.77103 17.8104 6.7816 17.8201 6.7816 17.8326L6.77526 18.1181Z" fill="#F8F7FC"/>
<path d="M0.535114 17.9629C0.515305 17.9757 0.512175 17.9909 0.52625 18.0085C0.528856 18.0118 0.534591 18.0118 0.537198 18.0085L0.557528 17.9823C0.567432 17.9695 0.549709 17.9539 0.535114 17.9629Z" fill="#F8F7FC"/>
</svg>
